{"glyphs":{"0":{"ha":835,"x_min":83,"x_max":772,"o":"m 369 -18 q 210 15 274 -18 q 115 119 146 49 q 83 296 83 189 q 94 481 83 385 q 129 665 104 576 q 200 823 154 753 q 315 935 246 893 q 485 976 385 976 q 647 943 583 976 q 741 841 710 910 q 772 665 772 772 q 763 475 772 572 q 729 290 754 378 q 659 132 704 201 q 543 22 614 63 q 369 -18 472 -18 m 375 89 q 507 126 456 89 q 589 226 558 164 q 633 365 619 289 q 651 518 647 440 q 656 661 656 596 q 611 822 656 774 q 476 869 567 869 q 350 832 400 869 q 269 732 300 794 q 224 594 239 669 q 205 440 210 518 q 200 297 200 363 q 244 137 200 185 q 375 89 288 89 z "},"1":{"ha":549,"x_min":92,"x_max":471,"o":"m 471 958 l 336 0 l 215 0 l 322 763 q 329 804 325 783 q 339 846 333 825 l 94 769 l 92 860 l 349 958 l 471 958 z "},"2":{"ha":774,"x_min":18,"x_max":722,"o":"m 447 975 q 590 962 528 975 q 687 911 651 949 q 722 801 722 874 q 694 662 722 726 q 615 538 665 597 q 503 417 565 478 l 189 113 q 264 117 225 115 q 338 118 303 118 l 664 118 l 647 0 l 18 0 l 29 79 q 36 108 32 94 q 50 131 40 121 l 374 444 q 483 558 432 500 q 566 673 535 615 q 597 786 597 731 q 578 840 597 822 q 524 862 560 857 q 438 867 488 867 q 350 865 392 867 q 263 859 308 864 q 156 844 217 854 l 154 939 q 272 962 222 954 q 365 972 322 969 q 447 975 407 975 z "},"3":{"ha":764,"x_min":19,"x_max":701,"o":"m 429 976 q 640 929 578 976 q 701 788 701 882 q 682 661 701 724 q 624 556 663 599 q 528 507 585 513 l 526 501 q 631 444 596 489 q 667 326 667 399 q 624 144 667 219 q 499 26 581 68 q 299 -18 417 -15 q 168 -13 239 -19 q 19 7 97 -7 l 35 101 q 125 94 82 99 q 210 89 168 90 q 290 92 251 88 q 479 161 414 100 q 544 329 544 222 q 529 392 544 364 q 478 438 514 421 q 379 456 442 456 l 199 458 l 211 551 l 386 551 q 537 609 489 553 q 585 772 585 665 q 547 849 585 829 q 403 868 508 868 q 284 865 351 868 q 165 857 217 861 l 161 951 q 306 970 238 964 q 429 976 374 976 z "},"4":{"ha":847,"x_min":39,"x_max":779,"o":"m 533 958 l 186 389 q 176 349 169 363 q 208 335 183 335 l 779 335 l 767 247 l 638 235 l 153 235 q 77 259 106 235 q 44 321 49 283 q 63 394 39 358 l 410 958 l 533 958 m 717 775 l 608 0 l 493 0 l 579 617 l 624 775 l 717 775 z "},"5":{"ha":740,"x_min":22,"x_max":715,"o":"m 715 958 l 694 854 l 292 854 l 242 593 l 340 585 q 508 553 439 578 q 614 479 578 529 q 650 346 650 429 q 558 87 650 182 q 299 -17 467 -8 q 170 -12 242 -19 q 22 18 99 -4 l 44 117 q 165 95 107 101 q 272 92 224 89 q 465 160 397 99 q 532 343 532 222 q 505 427 532 397 q 419 469 478 457 q 267 486 361 482 l 176 493 q 138 513 153 496 q 129 556 124 531 l 207 958 l 715 958 z "},"6":{"ha":790,"x_min":79,"x_max":731,"o":"m 522 975 q 576 974 542 975 q 653 969 611 974 q 731 954 694 965 l 707 865 q 649 869 678 868 q 590 871 621 871 q 517 871 558 871 q 403 854 451 871 q 320 793 356 838 q 260 666 285 749 q 217 451 235 583 q 198 281 203 350 q 206 169 193 211 q 258 107 219 126 q 368 88 296 88 q 500 126 450 88 q 572 235 550 165 q 594 397 594 306 q 568 492 594 460 q 458 525 542 525 q 317 488 386 525 q 165 358 249 451 l 164 438 q 267 548 218 507 q 368 607 315 589 q 486 625 421 625 q 656 574 601 625 q 710 429 710 522 q 673 190 710 290 q 558 37 636 90 q 353 -17 479 -17 q 201 8 260 -17 q 114 87 143 32 q 82 233 85 142 q 97 456 79 324 q 155 722 121 619 q 240 880 189 825 q 360 955 290 935 q 522 975 429 975 z "},"7":{"ha":708,"x_min":117,"x_max":740,"o":"m 668 958 q 726 935 713 958 q 721 872 740 913 l 300 0 l 178 0 l 557 786 q 576 822 567 804 q 597 857 586 840 l 117 854 l 125 958 l 668 958 z "},"8":{"ha":842,"x_min":58,"x_max":781,"o":"m 492 972 q 679 944 615 972 q 762 860 743 917 q 768 715 781 804 q 740 607 760 654 q 686 532 719 560 q 601 499 653 504 l 599 493 q 688 454 657 488 q 725 365 718 421 q 721 235 732 310 q 676 94 710 149 q 569 13 642 39 q 368 -14 497 -12 q 178 13 247 -14 q 83 97 108 40 q 71 243 58 154 q 103 372 82 317 q 162 459 124 426 q 263 497 200 492 l 265 503 q 171 569 196 511 q 160 724 146 628 q 204 866 172 811 q 304 947 236 921 q 492 972 372 974 m 425 449 q 319 441 361 449 q 252 414 278 433 q 212 358 226 394 q 189 260 197 321 q 192 159 181 196 q 247 106 203 122 q 379 90 292 90 q 510 108 463 90 q 579 164 557 125 q 610 269 601 203 q 615 360 618 325 q 591 415 611 396 q 531 441 571 433 q 425 449 490 449 m 483 874 q 358 858 401 874 q 297 805 315 842 q 268 704 278 768 q 270 606 260 640 q 322 558 281 571 q 444 546 364 546 q 542 553 504 546 q 603 580 581 561 q 637 631 625 599 q 656 713 649 663 q 656 809 665 774 q 606 859 646 844 q 483 874 567 874 z "},"9":{"ha":790,"x_min":65,"x_max":732,"o":"m 463 975 q 615 949 557 975 q 702 867 674 924 q 731 716 731 810 q 711 486 732 622 q 652 230 686 329 q 568 77 618 131 q 448 3 518 24 q 281 -17 378 -17 q 185 -12 242 -17 q 65 6 129 -8 l 83 94 q 145 90 114 92 q 209 88 176 89 q 274 88 242 88 q 408 109 354 90 q 495 173 461 128 q 551 297 529 218 q 594 499 574 376 q 617 676 613 604 q 608 790 622 747 q 558 852 594 833 q 454 871 521 871 q 328 847 375 871 q 259 772 282 822 q 225 640 236 721 q 224 519 215 565 q 267 451 233 472 q 364 431 301 431 q 455 447 414 432 q 541 499 496 463 q 644 600 586 536 l 646 526 q 547 412 594 454 q 451 352 500 369 q 340 333 401 335 q 215 355 264 332 q 140 420 165 378 q 108 521 114 463 q 111 650 103 579 q 148 800 122 738 q 217 901 174 863 q 322 957 261 939 q 463 975 383 975 z "},"A":{"ha":860,"x_min":-42,"x_max":793,"o":"m 572 958 q 601 948 589 958 q 614 922 613 938 l 793 0 l 671 0 l 533 783 q 528 825 531 804 q 522 865 525 846 l 481 865 q 463 825 472 847 q 444 783 453 803 l 88 0 l -42 0 l 397 926 q 415 951 403 943 q 444 958 428 958 l 572 958 m 675 406 l 661 299 l 175 299 l 189 406 l 675 406 z "},"Á":{"ha":860,"x_min":-42,"x_max":793,"o":"m 572 958 q 601 948 589 958 q 614 922 613 938 l 793 0 l 671 0 l 533 783 q 528 825 531 804 q 522 865 525 846 l 481 865 q 463 825 472 847 q 444 783 453 803 l 88 0 l -42 0 l 397 926 q 415 951 403 943 q 444 958 428 958 l 572 958 m 675 406 l 661 299 l 175 299 l 189 406 l 675 406 m 700 1269 l 757 1178 l 469 1011 l 433 1065 l 700 1269 z "},"Ă":{"ha":860,"x_min":-42,"x_max":793,"o":"m 572 958 q 601 948 589 958 q 614 922 613 938 l 793 0 l 671 0 l 533 783 q 528 825 531 804 q 522 865 525 846 l 481 865 q 463 825 472 847 q 444 783 453 803 l 88 0 l -42 0 l 397 926 q 415 951 403 943 q 444 958 428 958 l 572 958 m 675 406 l 661 299 l 175 299 l 189 406 l 675 406 m 694 1229 l 754 1215 q 721 1121 750 1161 q 642 1058 692 1081 q 528 1035 593 1035 q 413 1058 460 1035 q 347 1124 367 1082 q 339 1219 328 1167 l 400 1225 q 428 1149 393 1175 q 528 1122 463 1122 q 644 1151 600 1122 q 694 1229 689 1181 z "},"Ắ":{"ha":860,"x_min":-42,"x_max":793,"o":"m 572 958 q 601 948 589 958 q 614 922 613 938 l 793 0 l 671 0 l 533 783 q 528 825 531 804 q 522 865 525 846 l 481 865 q 463 825 472 847 q 444 783 453 803 l 88 0 l -42 0 l 397 926 q 415 951 403 943 q 444 958 428 958 l 572 958 m 675 406 l 661 299 l 175 299 l 189 406 l 675 406 m 694 1229 l 754 1215 q 721 1121 750 1161 q 642 1058 692 1081 q 528 1035 593 1035 q 413 1058 460 1035 q 347 1124 367 1082 q 339 1219 328 1167 l 400 1225 q 428 1149 393 1175 q 528 1122 463 1122 q 644 1151 600 1122 q 694 1229 689 1181 m 668 1415 l 721 1332 l 513 1215 l 479 1265 l 668 1415 z "},"Ặ":{"ha":860,"x_min":-42,"x_max":793,"o":"m 572 958 q 601 948 589 958 q 614 922 613 938 l 793 0 l 671 0 l 533 783 q 528 825 531 804 q 522 865 525 846 l 481 865 q 463 825 472 847 q 444 783 453 803 l 88 0 l -42 0 l 397 926 q 415 951 403 943 q 444 958 428 958 l 572 958 m 675 406 l 661 299 l 175 299 l 189 406 l 675 406 m 401 -72 q 429 -82 419 -72 q 436 -110 439 -92 l 425 -189 q 388 -222 419 -222 l 349 -222 q 323 -212 332 -222 q 315 -185 314 -201 l 326 -106 q 337 -80 329 -87 q 363 -72 344 -72 l 401 -72 m 694 1229 l 754 1215 q 721 1121 750 1161 q 642 1058 692 1081 q 528 1035 593 1035 q 413 1058 460 1035 q 347 1124 367 1082 q 339 1219 328 1167 l 400 1225 q 428 1149 393 1175 q 528 1122 463 1122 q 644 1151 600 1122 q 694 1229 689 1181 z "},"Ằ":{"ha":860,"x_min":-42,"x_max":793,"o":"m 572 958 q 601 948 589 958 q 614 922 613 938 l 793 0 l 671 0 l 533 783 q 528 825 531 804 q 522 865 525 846 l 481 865 q 463 825 472 847 q 444 783 453 803 l 88 0 l -42 0 l 397 926 q 415 951 403 943 q 444 958 428 958 l 572 958 m 675 406 l 661 299 l 175 299 l 189 406 l 675 406 m 694 1229 l 754 1215 q 721 1121 750 1161 q 642 1058 692 1081 q 528 1035 593 1035 q 413 1058 460 1035 q 347 1124 367 1082 q 339 1219 328 1167 l 400 1225 q 428 1149 393 1175 q 528 1122 463 1122 q 644 1151 600 1122 q 694 1229 689 1181 m 439 1407 l 599 1263 l 560 1214 l 381 1331 l 439 1407 z "},"Ẳ":{"ha":860,"x_min":-42,"x_max":793,"o":"m 572 958 q 601 948 589 958 q 614 922 613 938 l 793 0 l 671 0 l 533 783 q 528 825 531 804 q 522 865 525 846 l 481 865 q 463 825 472 847 q 444 783 453 803 l 88 0 l -42 0 l 397 926 q 415 951 403 943 q 444 958 428 958 l 572 958 m 675 406 l 661 299 l 175 299 l 189 406 l 675 406 m 694 1229 l 754 1215 q 721 1121 750 1161 q 642 1058 692 1081 q 528 1035 593 1035 q 413 1058 460 1035 q 347 1124 367 1082 q 339 1219 328 1167 l 400 1225 q 428 1149 393 1175 q 528 1122 463 1122 q 644 1151 600 1122 q 694 1229 689 1181 m 503 1260 q 577 1290 556 1269 q 599 1342 599 1310 q 574 1375 599 1371 q 513 1365 550 1379 l 511 1426 q 626 1434 579 1451 q 674 1358 674 1417 q 630 1257 674 1297 q 506 1207 586 1217 l 503 1260 z "},"Ẵ":{"ha":860,"x_min":-42,"x_max":793,"o":"m 572 958 q 601 948 589 958 q 614 922 613 938 l 793 0 l 671 0 l 533 783 q 528 825 531 804 q 522 865 525 846 l 481 865 q 463 825 472 847 q 444 783 453 803 l 88 0 l -42 0 l 397 926 q 415 951 403 943 q 444 958 428 958 l 572 958 m 675 406 l 661 299 l 175 299 l 189 406 l 675 406 m 694 1229 l 754 1215 q 721 1121 750 1161 q 642 1058 692 1081 q 528 1035 593 1035 q 413 1058 460 1035 q 347 1124 367 1082 q 339 1219 328 1167 l 400 1225 q 428 1149 393 1175 q 528 1122 463 1122 q 644 1151 600 1122 q 694 1229 689 1181 m 463 1422 q 516 1408 494 1419 q 556 1385 538 1397 q 594 1362 575 1372 q 640 1349 614 1351 q 698 1363 681 1344 q 718 1418 715 1381 l 771 1413 q 737 1301 769 1339 q 656 1268 704 1264 q 597 1282 621 1271 q 553 1306 572 1293 q 517 1331 535 1319 q 476 1343 499 1342 q 420 1328 438 1347 q 399 1268 403 1308 l 346 1274 q 382 1390 349 1353 q 463 1422 415 1426 z "},"Â":{"ha":860,"x_min":-42,"x_max":793,"o":"m 572 958 q 601 948 589 958 q 614 922 613 938 l 793 0 l 671 0 l 533 783 q 528 825 531 804 q 522 865 525 846 l 481 865 q 463 825 472 847 q 444 783 453 803 l 88 0 l -42 0 l 397 926 q 415 951 403 943 q 444 958 428 958 l 572 958 m 675 406 l 661 299 l 175 299 l 189 406 l 675 406 m 589 1244 l 761 1060 l 717 1014 l 551 1154 l 540 1154 l 333 1015 l 299 1068 l 506 1244 l 589 1244 z "},"Ấ":{"ha":860,"x_min":-42,"x_max":921,"o":"m 572 958 q 601 948 589 958 q 614 922 613 938 l 793 0 l 671 0 l 533 783 q 528 825 531 804 q 522 865 525 846 l 481 865 q 463 825 472 847 q 444 783 453 803 l 88 0 l -42 0 l 397 926 q 415 951 403 943 q 444 958 428 958 l 572 958 m 675 406 l 661 299 l 175 299 l 189 406 l 675 406 m 593 1226 l 744 1064 l 700 1017 l 556 1136 l 544 1136 l 361 1017 l 326 1068 l 510 1226 l 593 1226 m 860 1371 l 921 1294 l 724 1160 l 685 1204 l 860 1371 z "},"Ậ":{"ha":860,"x_min":-42,"x_max":793,"o":"m 572 958 q 601 948 589 958 q 614 922 613 938 l 793 0 l 671 0 l 533 783 q 528 825 531 804 q 522 865 525 846 l 481 865 q 463 825 472 847 q 444 783 453 803 l 88 0 l -42 0 l 397 926 q 415 951 403 943 q 444 958 428 958 l 572 958 m 675 406 l 661 299 l 175 299 l 189 406 l 675 406 m 401 -72 q 429 -82 419 -72 q 436 -110 439 -92 l 425 -189 q 388 -222 419 -222 l 349 -222 q 323 -212 332 -222 q 315 -185 314 -201 l 326 -106 q 337 -80 329 -87 q 363 -72 344 -72 l 401 -72 m 590 1244 l 763 1060 l 718 1014 l 553 1154 l 540 1154 l 335 1015 l 300 1068 l 506 1244 l 590 1244 z "},"Ầ":{"ha":860,"x_min":-42,"x_max":793,"o":"m 572 958 q 601 948 589 958 q 614 922 613 938 l 793 0 l 671 0 l 533 783 q 528 825 531 804 q 522 865 525 846 l 481 865 q 463 825 472 847 q 444 783 453 803 l 88 0 l -42 0 l 397 926 q 415 951 403 943 q 444 958 428 958 l 572 958 m 675 406 l 661 299 l 175 299 l 189 406 l 675 406 m 574 1226 l 725 1064 l 681 1017 l 536 1136 l 525 1136 l 342 1017 l 307 1068 l 490 1226 l 574 1226 m 243 1365 l 390 1206 l 346 1161 l 176 1296 l 243 1365 z "},"Ẩ":{"ha":860,"x_min":-42,"x_max":856,"o":"m 572 958 q 601 948 589 958 q 614 922 613 938 l 793 0 l 671 0 l 533 783 q 528 825 531 804 q 522 865 525 846 l 481 865 q 463 825 472 847 q 444 783 453 803 l 88 0 l -42 0 l 397 926 q 415 951 403 943 q 444 958 428 958 l 572 958 m 675 406 l 661 299 l 175 299 l 189 406 l 675 406 m 581 1226 l 732 1064 l 688 1017 l 543 1136 l 532 1136 l 349 1017 l 314 1068 l 497 1226 l 581 1226 m 685 1214 q 759 1243 738 1222 q 781 1294 781 1264 q 756 1328 781 1325 q 694 1318 732 1332 l 693 1379 q 808 1388 761 1404 q 856 1313 856 1371 q 812 1211 856 1251 q 688 1161 768 1171 l 685 1214 z "},"Ẫ":{"ha":860,"x_min":-42,"x_max":793,"o":"m 572 958 q 601 948 589 958 q 614 922 613 938 l 793 0 l 671 0 l 533 783 q 528 825 531 804 q 522 865 525 846 l 481 865 q 463 825 472 847 q 444 783 453 803 l 88 0 l -42 0 l 397 926 q 415 951 403 943 q 444 958 428 958 l 572 958 m 675 406 l 661 299 l 175 299 l 189 406 l 675 406 m 579 1226 l 731 1064 l 686 1017 l 542 1136 l 531 1136 l 347 1017 l 313 1068 l 496 1226 l 579 1226 m 453 1418 q 506 1404 485 1415 q 547 1380 528 1393 q 585 1357 565 1367 q 631 1344 604 1347 q 688 1358 671 1340 q 708 1414 706 1375 l 761 1408 q 728 1297 761 1333 q 647 1263 696 1260 q 588 1276 613 1265 q 544 1301 564 1288 q 507 1326 525 1315 q 467 1339 489 1338 q 410 1323 428 1342 q 389 1264 393 1304 l 336 1269 q 372 1385 339 1349 q 453 1418 406 1422 z "},"Ȁ":{"ha":860,"x_min":-42,"x_max":793,"o":"m 572 958 q 601 948 589 958 q 614 922 613 938 l 793 0 l 671 0 l 533 783 q 528 825 531 804 q 522 865 525 846 l 481 865 q 463 825 472 847 q 444 783 453 803 l 88 0 l -42 0 l 397 926 q 415 951 403 943 q 444 958 428 958 l 572 958 m 675 406 l 661 299 l 175 299 l 189 406 l 675 406 m 507 1276 l 700 1042 l 650 1003 l 435 1224 l 507 1276 m 279 1276 l 471 1042 l 422 1003 l 207 1224 l 279 1276 z "},"Ä":{"ha":860,"x_min":-42,"x_max":793,"o":"m 572 958 q 601 948 589 958 q 614 922 613 938 l 793 0 l 671 0 l 533 783 q 528 825 531 804 q 522 865 525 846 l 481 865 q 463 825 472 847 q 444 783 453 803 l 88 0 l -42 0 l 397 926 q 415 951 403 943 q 444 958 428 958 l 572 958 m 675 406 l 661 299 l 175 299 l 189 406 l 675 406 m 446 1208 q 473 1200 467 1208 q 476 1175 479 1192 l 465 1099 q 455 1074 464 1082 q 428 1065 446 1065 l 389 1065 q 360 1097 356 1065 l 371 1175 q 383 1200 374 1192 q 410 1208 392 1208 l 446 1208 m 681 1208 q 708 1200 701 1208 q 711 1175 714 1192 l 700 1099 q 690 1074 699 1082 q 663 1065 681 1065 l 624 1065 q 594 1097 590 1065 l 606 1175 q 617 1200 608 1192 q 644 1208 626 1208 l 681 1208 z "},"Ạ":{"ha":860,"x_min":-42,"x_max":793,"o":"m 572 958 q 601 948 589 958 q 614 922 613 938 l 793 0 l 671 0 l 533 783 q 528 825 531 804 q 522 865 525 846 l 481 865 q 463 825 472 847 q 444 783 453 803 l 88 0 l -42 0 l 397 926 q 415 951 403 943 q 444 958 428 958 l 572 958 m 675 406 l 661 299 l 175 299 l 189 406 l 675 406 m 401 -72 q 429 -82 419 -72 q 436 -110 439 -92 l 425 -189 q 388 -222 419 -222 l 350 -222 q 323 -212 332 -222 q 315 -185 314 -201 l 326 -106 q 338 -80 329 -87 q 364 -72 346 -72 l 401 -72 z "},"À":{"ha":860,"x_min":-42,"x_max":793,"o":"m 572 958 q 601 948 589 958 q 614 922 613 938 l 793 0 l 671 0 l 533 783 q 528 825 531 804 q 522 865 525 846 l 481 865 q 463 825 472 847 q 444 783 453 803 l 88 0 l -42 0 l 397 926 q 415 951 403 943 q 444 958 428 958 l 572 958 m 675 406 l 661 299 l 175 299 l 189 406 l 675 406 m 357 1268 l 593 1064 l 550 1011 l 293 1185 l 357 1268 z "},"Ả":{"ha":860,"x_min":-42,"x_max":793,"o":"m 572 958 q 601 948 589 958 q 614 922 613 938 l 793 0 l 671 0 l 533 783 q 528 825 531 804 q 522 865 525 846 l 481 865 q 463 825 472 847 q 444 783 453 803 l 88 0 l -42 0 l 397 926 q 415 951 403 943 q 444 958 428 958 l 572 958 m 675 406 l 661 299 l 175 299 l 189 406 l 675 406 m 485 1089 q 565 1131 542 1100 q 589 1200 589 1161 q 565 1242 589 1233 q 496 1238 540 1251 l 493 1304 q 622 1304 572 1328 q 672 1215 672 1281 q 624 1094 672 1147 q 489 1031 575 1042 l 485 1089 z "},"Ȃ":{"ha":860,"x_min":-42,"x_max":793,"o":"m 572 958 q 601 948 589 958 q 614 922 613 938 l 793 0 l 671 0 l 533 783 q 528 825 531 804 q 522 865 525 846 l 481 865 q 463 825 472 847 q 444 783 453 803 l 88 0 l -42 0 l 397 926 q 415 951 403 943 q 444 958 428 958 l 572 958 m 675 406 l 661 299 l 175 299 l 189 406 l 675 406 m 372 1035 l 311 1049 q 346 1143 317 1103 q 424 1206 375 1183 q 538 1229 474 1229 q 653 1206 607 1229 q 719 1140 700 1182 q 728 1044 739 1099 l 667 1040 q 639 1115 674 1089 q 539 1142 604 1142 q 422 1113 467 1142 q 372 1035 378 1085 z "},"Ā":{"ha":860,"x_min":-42,"x_max":793,"o":"m 572 958 q 601 948 589 958 q 614 922 613 938 l 793 0 l 671 0 l 533 783 q 528 825 531 804 q 522 865 525 846 l 481 865 q 463 825 472 847 q 444 783 453 803 l 88 0 l -42 0 l 397 926 q 415 951 403 943 q 444 958 428 958 l 572 958 m 675 406 l 661 299 l 175 299 l 189 406 l 675 406 m 735 1179 l 724 1092 l 336 1092 l 347 1179 l 735 1179 z "},"Ą":{"ha":860,"x_min":-42,"x_max":793,"o":"m 572 958 q 601 948 589 958 q 614 922 613 938 l 793 0 l 671 0 l 533 783 q 528 825 531 804 q 522 865 525 846 l 481 865 q 463 825 472 847 q 444 783 453 803 l 88 0 l -42 0 l 397 926 q 415 951 403 943 q 444 958 428 958 l 572 958 m 675 406 l 661 299 l 175 299 l 189 406 l 675 406 m 738 4 l 793 0 q 728 -75 758 -36 q 671 -162 699 -114 q 669 -226 643 -212 q 764 -218 696 -240 l 779 -269 q 663 -297 710 -296 q 593 -278 617 -297 q 567 -227 569 -258 q 583 -158 565 -196 q 638 -84 601 -125 q 738 4 674 -43 z "},"Å":{"ha":860,"x_min":-42,"x_max":793,"o":"m 572 958 q 601 948 589 958 q 614 922 613 938 l 793 0 l 671 0 l 533 783 q 528 825 531 804 q 522 865 525 846 l 481 865 q 463 825 472 847 q 444 783 453 803 l 88 0 l -42 0 l 397 926 q 415 951 403 943 q 444 958 428 958 l 572 958 m 675 406 l 661 299 l 175 299 l 189 406 l 675 406 m 546 1285 q 647 1248 608 1285 q 686 1151 686 1211 q 642 1038 686 1083 q 528 993 597 993 q 426 1030 465 993 q 388 1126 388 1067 q 433 1240 388 1194 q 546 1285 478 1285 m 544 1224 q 478 1197 501 1224 q 454 1132 454 1171 q 474 1076 454 1099 q 531 1054 493 1054 q 595 1081 571 1054 q 619 1147 619 1108 q 600 1202 619 1181 q 544 1224 581 1224 z "},"Ǻ":{"ha":860,"x_min":-42,"x_max":793,"o":"m 554 875 q 582 865 571 875 q 596 839 593 854 l 793 0 l 671 0 l 515 700 q 509 742 511 721 q 504 782 507 763 l 463 782 q 444 742 454 764 q 426 700 435 719 l 88 0 l -42 0 l 379 843 q 426 875 394 875 l 554 875 m 679 336 l 664 229 l 167 229 l 181 336 l 679 336 m 521 1208 q 622 1172 583 1208 q 661 1075 661 1135 q 617 963 661 1008 q 503 917 572 917 q 401 953 440 917 q 363 1050 363 990 q 408 1163 363 1118 q 521 1208 453 1208 m 519 1147 q 453 1121 476 1147 q 429 1056 429 1094 q 449 1000 429 1022 q 506 978 468 978 q 570 1005 546 978 q 594 1071 594 1032 q 575 1126 594 1104 q 519 1147 556 1147 m 622 1419 l 671 1332 l 453 1233 l 422 1286 l 622 1419 z "},"Ã":{"ha":860,"x_min":-42,"x_max":793,"o":"m 572 958 q 601 948 589 958 q 614 922 613 938 l 793 0 l 671 0 l 533 783 q 528 825 531 804 q 522 865 525 846 l 481 865 q 463 825 472 847 q 444 783 453 803 l 88 0 l -42 0 l 397 926 q 415 951 403 943 q 444 958 428 958 l 572 958 m 675 406 l 661 299 l 175 299 l 189 406 l 675 406 m 431 1221 q 488 1208 464 1218 q 533 1183 513 1197 q 576 1158 554 1169 q 625 1144 597 1147 q 685 1158 667 1139 q 710 1217 704 1178 l 765 1213 q 728 1094 764 1133 q 642 1058 693 1054 q 579 1072 606 1061 q 531 1097 553 1083 q 488 1123 508 1111 q 444 1138 468 1135 q 385 1122 404 1142 q 361 1060 367 1101 l 306 1065 q 345 1187 308 1149 q 431 1221 382 1225 z "},"Æ":{"ha":1267,"x_min":-58,"x_max":1272,"o":"m 860 960 q 1086 958 992 960 q 1272 951 1181 957 l 1256 856 l 901 856 q 830 833 858 856 q 794 760 801 811 l 717 193 q 728 124 711 146 q 793 103 746 103 l 1151 103 l 1146 7 q 959 0 1053 1 q 771 -1 865 -1 q 635 49 682 -1 q 601 190 588 100 l 683 778 q 702 835 686 807 q 739 875 718 863 l 732 875 q 688 843 713 865 q 639 785 664 821 l 72 0 l -58 0 l 531 810 q 595 885 563 856 q 665 930 628 914 q 750 953 703 946 q 860 960 797 960 m 665 415 l 650 311 l 233 311 l 260 418 l 665 415 m 671 554 l 1160 553 l 1147 457 l 656 457 l 671 554 z "},"Ǽ":{"ha":1267,"x_min":-58,"x_max":1272,"o":"m 860 960 q 1086 958 992 960 q 1272 951 1181 957 l 1256 856 l 901 856 q 830 833 858 856 q 794 760 801 811 l 717 193 q 728 124 711 146 q 793 103 746 103 l 1151 103 l 1146 7 q 959 0 1053 1 q 771 -1 865 -1 q 635 49 682 -1 q 601 190 588 100 l 683 778 q 702 835 686 807 q 739 875 718 863 l 732 875 q 688 843 713 865 q 639 785 664 821 l 72 0 l -58 0 l 531 810 q 595 885 563 856 q 665 930 628 914 q 750 953 703 946 q 860 960 797 960 m 665 415 l 650 311 l 233 311 l 260 418 l 665 415 m 671 554 l 1160 553 l 1147 457 l 656 457 l 671 554 m 1003 1269 l 1060 1178 l 772 1011 l 736 1065 l 1003 1269 z "},"B":{"ha":858,"x_min":63,"x_max":807,"o":"m 504 969 q 687 947 618 969 q 781 869 756 925 q 793 715 807 814 q 735 560 779 614 q 601 499 690 507 l 600 493 q 740 415 707 483 q 756 235 772 346 q 703 83 740 136 q 599 9 667 29 q 424 -11 532 -11 q 280 -10 340 -11 q 169 -7 219 -10 q 63 0 118 -4 l 93 97 q 208 94 125 96 q 406 93 292 93 q 532 107 485 93 q 603 158 579 121 q 636 264 628 196 q 634 377 647 338 q 578 433 621 417 q 457 450 536 449 l 144 450 l 158 543 l 463 543 q 576 558 532 544 q 643 608 619 572 q 675 710 667 644 q 671 808 685 775 q 615 853 657 842 q 499 865 574 865 q 374 865 429 865 q 277 865 318 865 q 208 863 236 865 l 197 958 q 290 966 246 964 q 385 969 335 968 q 504 969 436 969 m 317 958 l 182 0 l 63 0 l 197 958 l 317 958 z "},"C":{"ha":786,"x_min":69,"x_max":793,"o":"m 532 975 q 639 972 594 975 q 719 963 683 969 q 793 946 756 957 l 774 854 q 698 861 733 858 q 624 865 663 864 q 531 867 585 867 q 409 849 460 867 q 322 788 358 831 q 262 668 286 744 q 222 475 238 592 q 212 246 201 329 q 270 128 222 163 q 408 92 318 93 q 561 96 500 92 q 682 107 622 100 l 689 14 q 563 -10 626 -3 q 407 -17 499 -17 q 192 35 269 -17 q 92 198 115 88 q 94 483 69 308 q 147 714 114 619 q 230 866 179 808 q 355 949 281 924 q 532 975 429 975 z "},"Ć":{"ha":786,"x_min":69,"x_max":793,"o":"m 532 975 q 639 972 594 975 q 719 963 683 969 q 793 946 756 957 l 774 854 q 698 861 733 858 q 624 865 663 864 q 531 867 585 867 q 409 849 460 867 q 322 788 358 831 q 262 668 286 744 q 222 475 238 592 q 212 246 201 329 q 270 128 222 163 q 408 92 318 93 q 561 96 500 92 q 682 107 622 100 l 689 14 q 563 -10 626 -3 q 407 -17 499 -17 q 192 35 269 -17 q 92 198 115 88 q 94 483 69 308 q 147 714 114 619 q 230 866 179 808 q 355 949 281 924 q 532 975 429 975 m 711 1269 l 768 1178 l 481 1011 l 444 1065 l 711 1269 z "},"Č":{"ha":786,"x_min":69,"x_max":793,"o":"m 532 975 q 639 972 594 975 q 719 963 683 969 q 793 946 756 957 l 774 854 q 698 861 733 858 q 624 865 663 864 q 531 867 585 867 q 409 849 460 867 q 322 788 358 831 q 262 668 286 744 q 222 475 238 592 q 212 246 201 329 q 270 128 222 163 q 408 92 318 93 q 561 96 500 92 q 682 107 622 100 l 689 14 q 563 -10 626 -3 q 407 -17 499 -17 q 192 35 269 -17 q 92 198 115 88 q 94 483 69 308 q 147 714 114 619 q 230 866 179 808 q 355 949 281 924 q 532 975 429 975 m 749 1260 l 786 1210 l 578 1032 l 492 1032 l 329 1217 l 378 1260 l 535 1122 l 546 1122 l 749 1260 z "},"Ç":{"ha":786,"x_min":69,"x_max":793,"o":"m 532 975 q 639 972 594 975 q 719 963 683 969 q 793 946 756 957 l 774 854 q 698 861 733 858 q 624 865 663 864 q 531 867 585 867 q 409 849 460 867 q 322 788 358 831 q 262 668 286 744 q 222 475 238 592 q 212 246 201 329 q 270 128 222 163 q 408 92 318 93 q 561 96 500 92 q 682 107 622 100 l 689 14 q 563 -10 626 -3 q 407 -17 499 -17 q 192 35 269 -17 q 92 198 115 88 q 94 483 69 308 q 147 714 114 619 q 230 866 179 808 q 355 949 281 924 q 532 975 429 975 m 317 -76 q 406 -77 371 -71 q 455 -106 440 -83 q 461 -172 469 -128 q 417 -269 453 -229 q 328 -326 382 -308 q 208 -335 274 -343 l 231 -272 q 328 -244 288 -274 q 376 -171 369 -215 q 367 -140 381 -147 q 303 -132 353 -133 l 317 -76 z "},"Ḉ":{"ha":786,"x_min":69,"x_max":793,"o":"m 532 975 q 639 972 594 975 q 719 963 683 969 q 793 946 756 957 l 774 854 q 698 861 733 858 q 624 865 663 864 q 531 867 585 867 q 409 849 460 867 q 322 788 358 831 q 262 668 286 744 q 222 475 238 592 q 212 246 201 329 q 270 128 222 163 q 408 92 318 93 q 561 96 500 92 q 682 107 622 100 l 689 14 q 563 -10 626 -3 q 407 -17 499 -17 q 192 35 269 -17 q 92 198 115 88 q 94 483 69 308 q 147 714 114 619 q 230 866 179 808 q 355 949 281 924 q 532 975 429 975 m 318 -76 q 407 -77 372 -71 q 456 -106 442 -83 q 463 -172 469 -128 q 417 -269 453 -229 q 328 -326 382 -308 q 210 -335 275 -343 l 232 -272 q 329 -244 289 -274 q 378 -171 369 -215 q 367 -140 381 -147 q 303 -132 354 -133 l 318 -76 m 711 1269 l 768 1178 l 481 1011 l 444 1065 l 711 1269 z "},"Ĉ":{"ha":786,"x_min":69,"x_max":793,"o":"m 532 975 q 639 972 594 975 q 719 963 683 969 q 793 946 756 957 l 774 854 q 698 861 733 858 q 624 865 663 864 q 531 867 585 867 q 409 849 460 867 q 322 788 358 831 q 262 668 286 744 q 222 475 238 592 q 212 246 201 329 q 270 128 222 163 q 408 92 318 93 q 561 96 500 92 q 682 107 622 100 l 689 14 q 563 -10 626 -3 q 407 -17 499 -17 q 192 35 269 -17 q 92 198 115 88 q 94 483 69 308 q 147 714 114 619 q 230 866 179 808 q 355 949 281 924 q 532 975 429 975 m 600 1244 l 772 1060 l 728 1014 l 563 1154 l 551 1154 l 344 1015 l 310 1068 l 517 1244 l 600 1244 z "},"Ċ":{"ha":786,"x_min":69,"x_max":793,"o":"m 532 975 q 639 972 594 975 q 719 963 683 969 q 793 946 756 957 l 774 854 q 698 861 733 858 q 624 865 663 864 q 531 867 585 867 q 409 849 460 867 q 322 788 358 831 q 262 668 286 744 q 222 475 238 592 q 212 246 201 329 q 270 128 222 163 q 408 92 318 93 q 561 96 500 92 q 682 107 622 100 l 689 14 q 563 -10 626 -3 q 407 -17 499 -17 q 192 35 269 -17 q 92 198 115 88 q 94 483 69 308 q 147 714 114 619 q 230 866 179 808 q 355 949 281 924 q 532 975 429 975 m 572 1204 q 599 1194 589 1204 q 606 1167 608 1185 l 594 1089 q 557 1054 590 1054 l 519 1054 q 492 1065 501 1054 q 486 1092 483 1075 l 496 1171 q 507 1197 499 1189 q 533 1204 515 1204 l 572 1204 z "},"D":{"ha":919,"x_min":63,"x_max":871,"o":"m 511 971 q 740 924 658 971 q 847 769 822 878 q 844 475 871 661 q 787 223 822 319 q 698 76 751 126 q 566 6 644 25 q 381 -12 488 -12 q 224 -9 308 -12 q 63 0 139 -6 l 126 100 q 256 97 183 99 q 379 94 328 94 q 518 110 461 94 q 613 167 575 125 q 676 285 651 208 q 718 483 700 361 q 733 676 735 601 q 707 792 731 751 q 635 849 683 833 q 508 865 586 865 q 426 865 475 865 q 328 863 378 864 q 242 861 278 863 l 197 958 q 301 965 244 963 q 413 969 358 968 q 511 971 468 971 m 319 958 l 185 0 l 63 0 l 197 958 l 319 958 z "},"Ǆ":{"ha":1693,"x_min":63,"x_max":1700,"o":"m 511 971 q 740 924 658 971 q 847 769 822 878 q 844 475 871 661 q 787 223 822 319 q 698 76 751 126 q 566 6 644 25 q 381 -12 488 -12 q 224 -9 308 -12 q 63 0 139 -6 l 126 100 q 256 97 183 99 q 379 94 328 94 q 518 110 461 94 q 613 167 575 125 q 676 285 651 208 q 718 483 700 361 q 733 676 735 601 q 707 792 731 751 q 635 849 683 833 q 508 865 586 865 q 426 865 475 865 q 328 863 378 864 q 242 861 278 863 l 197 958 q 301 965 244 963 q 413 969 358 968 q 511 971 468 971 m 319 958 l 185 0 l 63 0 l 197 958 l 319 958 m 1550 856 l 1685 854 l 1068 103 l 935 104 l 1550 856 m 1589 104 l 1574 0 l 921 0 l 935 104 l 1589 104 m 1700 958 l 1685 854 l 1047 854 l 1063 958 l 1700 958 m 1597 1260 l 1635 1210 l 1426 1032 l 1340 1032 l 1178 1217 l 1226 1260 l 1383 1122 l 1394 1122 l 1597 1260 z "},"Ð":{"ha":919,"x_min":38,"x_max":871,"o":"m 475 543 l 467 475 l 38 475 l 47 543 l 475 543 m 511 971 q 740 924 658 971 q 847 769 822 878 q 844 475 871 661 q 787 223 822 319 q 698 76 751 126 q 566 6 644 25 q 381 -12 488 -12 q 224 -9 308 -12 q 63 0 139 -6 l 126 100 q 256 97 183 99 q 379 94 328 94 q 518 110 461 94 q 613 167 575 125 q 676 285 651 208 q 718 483 700 361 q 733 676 735 601 q 707 792 731 751 q 635 849 683 833 q 508 865 586 865 q 426 865 475 865 q 328 863 378 864 q 242 861 278 863 l 197 958 q 301 965 244 963 q 413 969 358 968 q 511 971 468 971 m 319 958 l 185 0 l 63 0 l 197 958 l 319 958 z "},"Ď":{"ha":919,"x_min":63,"x_max":871,"o":"m 511 971 q 740 924 658 971 q 847 769 822 878 q 844 475 871 661 q 787 223 822 319 q 698 76 751 126 q 566 6 644 25 q 381 -12 488 -12 q 224 -9 308 -12 q 63 0 139 -6 l 126 100 q 256 97 183 99 q 379 94 328 94 q 518 110 461 94 q 613 167 575 125 q 676 285 651 208 q 718 483 700 361 q 733 676 735 601 q 707 792 731 751 q 635 849 683 833 q 508 865 586 865 q 426 865 475 865 q 328 863 378 864 q 242 861 278 863 l 197 958 q 301 965 244 963 q 413 969 358 968 q 511 971 468 971 m 319 958 l 185 0 l 63 0 l 197 958 l 319 958 m 743 1260 l 781 1210 l 572 1032 l 486 1032 l 324 1217 l 372 1260 l 529 1122 l 540 1122 l 743 1260 z "},"Đ":{"ha":919,"x_min":38,"x_max":871,"o":"m 475 543 l 467 475 l 38 475 l 47 543 l 475 543 m 511 971 q 740 924 658 971 q 847 769 822 878 q 844 475 871 661 q 787 223 822 319 q 698 76 751 126 q 566 6 644 25 q 381 -12 488 -12 q 224 -9 308 -12 q 63 0 139 -6 l 126 100 q 256 97 183 99 q 379 94 328 94 q 518 110 461 94 q 613 167 575 125 q 676 285 651 208 q 718 483 700 361 q 733 676 735 601 q 707 792 731 751 q 635 849 683 833 q 508 865 586 865 q 426 865 475 865 q 328 863 378 864 q 242 861 278 863 l 197 958 q 301 965 244 963 q 413 969 358 968 q 511 971 468 971 m 319 958 l 185 0 l 63 0 l 197 958 l 319 958 z "},"Ḍ":{"ha":919,"x_min":63,"x_max":871,"o":"m 511 971 q 740 924 658 971 q 847 769 822 878 q 844 475 871 661 q 787 223 822 319 q 698 76 751 126 q 566 6 644 25 q 381 -12 488 -12 q 224 -9 308 -12 q 63 0 139 -6 l 126 100 q 256 97 183 99 q 379 94 328 94 q 518 110 461 94 q 613 167 575 125 q 676 285 651 208 q 718 483 700 361 q 733 676 735 601 q 707 792 731 751 q 635 849 683 833 q 508 865 586 865 q 426 865 475 865 q 328 863 378 864 q 242 861 278 863 l 197 958 q 301 965 244 963 q 413 969 358 968 q 511 971 468 971 m 319 958 l 185 0 l 63 0 l 197 958 l 319 958 m 403 -89 q 431 -99 421 -89 q 438 -126 440 -108 l 426 -206 q 389 -239 421 -239 l 350 -239 q 324 -228 333 -239 q 317 -201 315 -218 l 328 -122 q 338 -97 331 -104 q 364 -89 346 -89 l 403 -89 z "},"Ḏ":{"ha":919,"x_min":63,"x_max":871,"o":"m 511 971 q 740 924 658 971 q 847 769 822 878 q 844 475 871 661 q 787 223 822 319 q 698 76 751 126 q 566 6 644 25 q 381 -12 488 -12 q 224 -9 308 -12 q 63 0 139 -6 l 126 100 q 256 97 183 99 q 379 94 328 94 q 518 110 461 94 q 613 167 575 125 q 676 285 651 208 q 718 483 700 361 q 733 676 735 601 q 707 792 731 751 q 635 849 683 833 q 508 865 586 865 q 426 865 475 865 q 328 863 378 864 q 242 861 278 863 l 197 958 q 301 965 244 963 q 413 969 358 968 q 511 971 468 971 m 319 958 l 185 0 l 63 0 l 197 958 l 319 958 m 574 -125 l 561 -212 l 174 -212 l 186 -125 l 574 -125 z "},"ǅ":{"ha":1619,"x_min":63,"x_max":1588,"o":"m 511 971 q 740 924 658 971 q 847 769 822 878 q 844 475 871 661 q 787 223 822 319 q 698 76 751 126 q 566 6 644 25 q 381 -12 488 -12 q 224 -9 308 -12 q 63 0 139 -6 l 126 100 q 256 97 183 99 q 379 94 328 94 q 518 110 461 94 q 613 167 575 125 q 676 285 651 208 q 718 483 700 361 q 733 676 735 601 q 707 792 731 751 q 635 849 683 833 q 508 865 586 865 q 426 865 475 865 q 328 863 378 864 q 242 861 278 863 l 197 958 q 301 965 244 963 q 413 969 358 968 q 511 971 468 971 m 319 958 l 185 0 l 63 0 l 197 958 l 319 958 m 1439 581 l 1575 579 l 1076 94 l 940 96 l 1439 581 m 1511 96 l 1497 0 l 928 0 l 942 96 l 1511 96 m 1588 676 l 1574 579 l 1015 579 l 1028 676 l 1588 676 m 1532 1010 l 1569 960 l 1361 782 l 1275 782 l 1113 967 l 1161 1010 l 1318 872 l 1329 872 l 1532 1010 z "},"E":{"ha":775,"x_min":68,"x_max":781,"o":"m 367 960 q 508 960 438 960 q 648 958 579 960 q 781 951 717 956 l 764 856 l 382 856 q 313 833 335 856 q 283 761 290 811 l 206 193 q 217 124 199 146 q 282 103 235 103 l 657 103 l 654 7 q 528 1 593 3 q 397 -1 463 0 q 267 -1 331 -1 q 115 50 161 -1 q 81 190 68 101 l 165 796 q 227 917 176 874 q 367 960 278 960 m 157 553 l 667 553 l 654 458 l 143 458 l 157 553 z "},"É":{"ha":775,"x_min":68,"x_max":781,"o":"m 367 960 q 508 960 438 960 q 648 958 579 960 q 781 951 717 956 l 764 856 l 382 856 q 313 833 335 856 q 283 761 290 811 l 206 193 q 217 124 199 146 q 282 103 235 103 l 657 103 l 654 7 q 528 1 593 3 q 397 -1 463 0 q 267 -1 331 -1 q 115 50 161 -1 q 81 190 68 101 l 165 796 q 227 917 176 874 q 367 960 278 960 m 157 553 l 667 553 l 654 458 l 143 458 l 157 553 m 697 1299 l 754 1207 l 467 1040 l 431 1094 l 697 1299 z "},"Ĕ":{"ha":775,"x_min":68,"x_max":781,"o":"m 367 960 q 508 960 438 960 q 648 958 579 960 q 781 951 717 956 l 764 856 l 382 856 q 313 833 335 856 q 283 761 290 811 l 206 193 q 217 124 199 146 q 282 103 235 103 l 657 103 l 654 7 q 528 1 593 3 q 397 -1 463 0 q 267 -1 331 -1 q 115 50 161 -1 q 81 190 68 101 l 165 796 q 227 917 176 874 q 367 960 278 960 m 157 553 l 667 553 l 654 458 l 143 458 l 157 553 m 692 1258 l 751 1244 q 718 1150 747 1190 q 640 1087 689 1110 q 525 1064 590 1064 q 410 1088 457 1064 q 344 1153 364 1111 q 336 1249 325 1196 l 397 1254 q 425 1178 390 1204 q 525 1151 460 1151 q 642 1181 597 1151 q 692 1258 686 1210 z "},"Ě":{"ha":775,"x_min":68,"x_max":781,"o":"m 367 960 q 508 960 438 960 q 648 958 579 960 q 781 951 717 956 l 764 856 l 382 856 q 313 833 335 856 q 283 761 290 811 l 206 193 q 217 124 199 146 q 282 103 235 103 l 657 103 l 654 7 q 528 1 593 3 q 397 -1 463 0 q 267 -1 331 -1 q 115 50 161 -1 q 81 190 68 101 l 165 796 q 227 917 176 874 q 367 960 278 960 m 157 553 l 667 553 l 654 458 l 143 458 l 157 553 m 735 1289 l 772 1239 l 564 1061 l 478 1061 l 315 1246 l 364 1289 l 521 1151 l 532 1151 l 735 1289 z "},"Ḝ":{"ha":775,"x_min":68,"x_max":781,"o":"m 367 960 q 508 960 438 960 q 648 958 579 960 q 781 951 717 956 l 764 856 l 382 856 q 313 833 335 856 q 283 761 290 811 l 206 193 q 217 124 199 146 q 282 103 235 103 l 657 103 l 654 7 q 528 1 593 3 q 397 -1 463 0 q 267 -1 331 -1 q 115 50 161 -1 q 81 190 68 101 l 165 796 q 227 917 176 874 q 367 960 278 960 m 157 553 l 667 553 l 654 458 l 143 458 l 157 553 m 290 -60 q 379 -60 344 -54 q 428 -89 414 -67 q 435 -156 442 -111 q 390 -252 425 -212 q 301 -309 354 -292 q 182 -318 247 -326 l 204 -256 q 301 -228 261 -257 q 350 -154 342 -199 q 340 -124 353 -131 q 275 -115 326 -117 l 290 -60 m 692 1258 l 751 1244 q 718 1150 747 1190 q 640 1087 689 1110 q 525 1064 590 1064 q 410 1088 457 1064 q 344 1153 364 1111 q 336 1249 325 1196 l 397 1254 q 425 1178 390 1204 q 525 1151 460 1151 q 642 1181 597 1151 q 692 1258 686 1210 z "},"Ê":{"ha":775,"x_min":68,"x_max":781,"o":"m 367 960 q 508 960 438 960 q 648 958 579 960 q 781 951 717 956 l 764 856 l 382 856 q 313 833 335 856 q 283 761 290 811 l 206 193 q 217 124 199 146 q 282 103 235 103 l 657 103 l 654 7 q 528 1 593 3 q 397 -1 463 0 q 267 -1 331 -1 q 115 50 161 -1 q 81 190 68 101 l 165 796 q 227 917 176 874 q 367 960 278 960 m 157 553 l 667 553 l 654 458 l 143 458 l 157 553 m 586 1274 l 758 1089 l 714 1043 l 549 1183 l 538 1183 l 331 1044 l 296 1097 l 503 1274 l 586 1274 z "},"Ế":{"ha":775,"x_min":68,"x_max":918,"o":"m 367 960 q 508 960 438 960 q 648 958 579 960 q 781 951 717 956 l 764 856 l 382 856 q 313 833 335 856 q 283 761 290 811 l 206 193 q 217 124 199 146 q 282 103 235 103 l 657 103 l 654 7 q 528 1 593 3 q 397 -1 463 0 q 267 -1 331 -1 q 115 50 161 -1 q 81 190 68 101 l 165 796 q 227 917 176 874 q 367 960 278 960 m 157 553 l 667 553 l 654 458 l 143 458 l 157 553 m 590 1256 l 742 1093 l 697 1046 l 553 1165 l 542 1165 l 358 1046 l 324 1097 l 507 1256 l 590 1256 m 857 1400 l 918 1324 l 721 1189 l 682 1233 l 857 1400 z "},"Ệ":{"ha":775,"x_min":68,"x_max":781,"o":"m 367 960 q 508 960 438 960 q 648 958 579 960 q 781 951 717 956 l 764 856 l 382 856 q 313 833 335 856 q 283 761 290 811 l 206 193 q 217 124 199 146 q 282 103 235 103 l 657 103 l 654 7 q 528 1 593 3 q 397 -1 463 0 q 267 -1 331 -1 q 115 50 161 -1 q 81 190 68 101 l 165 796 q 227 917 176 874 q 367 960 278 960 m 157 553 l 667 553 l 654 458 l 143 458 l 157 553 m 374 -72 q 401 -82 392 -72 q 408 -110 411 -92 l 397 -189 q 360 -222 392 -222 l 321 -222 q 295 -212 304 -222 q 288 -185 286 -201 l 299 -106 q 309 -80 301 -87 q 335 -72 317 -72 l 374 -72 m 588 1274 l 760 1089 l 715 1043 l 550 1183 l 538 1183 l 332 1044 l 297 1097 l 503 1274 l 588 1274 z "},"Ề":{"ha":775,"x_min":68,"x_max":781,"o":"m 367 960 q 508 960 438 960 q 648 958 579 960 q 781 951 717 956 l 764 856 l 382 856 q 313 833 335 856 q 283 761 290 811 l 206 193 q 217 124 199 146 q 282 103 235 103 l 657 103 l 654 7 q 528 1 593 3 q 397 -1 463 0 q 267 -1 331 -1 q 115 50 161 -1 q 81 190 68 101 l 165 796 q 227 917 176 874 q 367 960 278 960 m 157 553 l 667 553 l 654 458 l 143 458 l 157 553 m 571 1256 l 722 1093 l 678 1046 l 533 1165 l 522 1165 l 339 1046 l 304 1097 l 488 1256 l 571 1256 m 240 1394 l 388 1235 l 343 1190 l 174 1325 l 240 1394 z "},"Ể":{"ha":775,"x_min":68,"x_max":853,"o":"m 367 960 q 508 960 438 960 q 648 958 579 960 q 781 951 717 956 l 764 856 l 382 856 q 313 833 335 856 q 283 761 290 811 l 206 193 q 217 124 199 146 q 282 103 235 103 l 657 103 l 654 7 q 528 1 593 3 q 397 -1 463 0 q 267 -1 331 -1 q 115 50 161 -1 q 81 190 68 101 l 165 796 q 227 917 176 874 q 367 960 278 960 m 157 553 l 667 553 l 654 458 l 143 458 l 157 553 m 578 1256 l 729 1093 l 685 1046 l 540 1165 l 529 1165 l 346 1046 l 311 1097 l 494 1256 l 578 1256 m 682 1243 q 756 1272 735 1251 q 778 1324 778 1293 q 753 1358 778 1354 q 692 1347 729 1361 l 690 1408 q 806 1417 758 1433 q 853 1342 853 1400 q 809 1240 853 1281 q 685 1190 765 1200 l 682 1243 z "},"Ễ":{"ha":775,"x_min":68,"x_max":781,"o":"m 367 960 q 508 960 438 960 q 648 958 579 960 q 781 951 717 956 l 764 856 l 382 856 q 313 833 335 856 q 283 761 290 811 l 206 193 q 217 124 199 146 q 282 103 235 103 l 657 103 l 654 7 q 528 1 593 3 q 397 -1 463 0 q 267 -1 331 -1 q 115 50 161 -1 q 81 190 68 101 l 165 796 q 227 917 176 874 q 367 960 278 960 m 157 553 l 667 553 l 654 458 l 143 458 l 157 553 m 576 1256 l 728 1093 l 683 1046 l 539 1165 l 528 1165 l 344 1046 l 310 1097 l 493 1256 l 576 1256 m 450 1447 q 503 1433 482 1444 q 544 1409 525 1422 q 582 1386 563 1396 q 628 1374 601 1376 q 685 1387 668 1369 q 706 1443 703 1404 l 758 1438 q 726 1326 758 1363 q 644 1292 693 1289 q 585 1306 610 1294 q 542 1331 561 1317 q 504 1356 522 1344 q 464 1368 486 1367 q 408 1352 425 1371 q 386 1293 390 1333 l 333 1299 q 369 1415 336 1378 q 450 1447 403 1451 z "},"Ȅ":{"ha":775,"x_min":68,"x_max":781,"o":"m 367 960 q 508 960 438 960 q 648 958 579 960 q 781 951 717 956 l 764 856 l 382 856 q 313 833 335 856 q 283 761 290 811 l 206 193 q 217 124 199 146 q 282 103 235 103 l 657 103 l 654 7 q 528 1 593 3 q 397 -1 463 0 q 267 -1 331 -1 q 115 50 161 -1 q 81 190 68 101 l 165 796 q 227 917 176 874 q 367 960 278 960 m 157 553 l 667 553 l 654 458 l 143 458 l 157 553 m 504 1306 l 697 1071 l 647 1032 l 432 1253 l 504 1306 m 276 1306 l 468 1071 l 419 1032 l 204 1253 l 276 1306 z "},"Ë":{"ha":775,"x_min":68,"x_max":781,"o":"m 367 960 q 508 960 438 960 q 648 958 579 960 q 781 951 717 956 l 764 856 l 382 856 q 313 833 335 856 q 283 761 290 811 l 206 193 q 217 124 199 146 q 282 103 235 103 l 657 103 l 654 7 q 528 1 593 3 q 397 -1 463 0 q 267 -1 331 -1 q 115 50 161 -1 q 81 190 68 101 l 165 796 q 227 917 176 874 q 367 960 278 960 m 157 553 l 667 553 l 654 458 l 143 458 l 157 553 m 443 1236 q 470 1228 464 1236 q 474 1203 476 1219 l 463 1126 q 452 1101 461 1110 q 425 1093 443 1093 l 386 1093 q 357 1125 353 1093 l 368 1203 q 380 1228 371 1219 q 407 1236 389 1236 l 443 1236 m 678 1236 q 705 1228 699 1236 q 708 1203 711 1219 l 697 1126 q 687 1101 696 1110 q 660 1093 678 1093 l 621 1093 q 592 1125 588 1093 l 603 1203 q 615 1228 606 1219 q 642 1236 624 1236 l 678 1236 z "},"Ė":{"ha":775,"x_min":68,"x_max":781,"o":"m 367 960 q 508 960 438 960 q 648 958 579 960 q 781 951 717 956 l 764 856 l 382 856 q 313 833 335 856 q 283 761 290 811 l 206 193 q 217 124 199 146 q 282 103 235 103 l 657 103 l 654 7 q 528 1 593 3 q 397 -1 463 0 q 267 -1 331 -1 q 115 50 161 -1 q 81 190 68 101 l 165 796 q 227 917 176 874 q 367 960 278 960 m 157 553 l 667 553 l 654 458 l 143 458 l 157 553 m 560 1232 q 586 1222 576 1232 q 593 1194 596 1213 l 582 1117 q 544 1082 578 1082 l 507 1082 q 480 1092 489 1082 q 474 1119 471 1103 l 483 1199 q 494 1224 486 1217 q 521 1232 503 1232 l 560 1232 z "},"Ẹ":{"ha":775,"x_min":68,"x_max":781,"o":"m 367 960 q 508 960 438 960 q 648 958 579 960 q 781 951 717 956 l 764 856 l 382 856 q 313 833 335 856 q 283 761 290 811 l 206 193 q 217 124 199 146 q 282 103 235 103 l 657 103 l 654 7 q 528 1 593 3 q 397 -1 463 0 q 267 -1 331 -1 q 115 50 161 -1 q 81 190 68 101 l 165 796 q 227 917 176 874 q 367 960 278 960 m 157 553 l 667 553 l 654 458 l 143 458 l 157 553 m 374 -72 q 401 -82 392 -72 q 408 -110 411 -92 l 397 -189 q 360 -222 392 -222 l 322 -222 q 295 -212 304 -222 q 288 -185 286 -201 l 299 -106 q 310 -80 301 -87 q 336 -72 318 -72 l 374 -72 z "},"È":{"ha":775,"x_min":68,"x_max":781,"o":"m 367 960 q 508 960 438 960 q 648 958 579 960 q 781 951 717 956 l 764 856 l 382 856 q 313 833 335 856 q 283 761 290 811 l 206 193 q 217 124 199 146 q 282 103 235 103 l 657 103 l 654 7 q 528 1 593 3 q 397 -1 463 0 q 267 -1 331 -1 q 115 50 161 -1 q 81 190 68 101 l 165 796 q 227 917 176 874 q 367 960 278 960 m 157 553 l 667 553 l 654 458 l 143 458 l 157 553 m 354 1297 l 590 1093 l 547 1040 l 290 1214 l 354 1297 z "},"Ẻ":{"ha":775,"x_min":68,"x_max":781,"o":"m 367 960 q 508 960 438 960 q 648 958 579 960 q 781 951 717 956 l 764 856 l 382 856 q 313 833 335 856 q 283 761 290 811 l 206 193 q 217 124 199 146 q 282 103 235 103 l 657 103 l 654 7 q 528 1 593 3 q 397 -1 463 0 q 267 -1 331 -1 q 115 50 161 -1 q 81 190 68 101 l 165 796 q 227 917 176 874 q 367 960 278 960 m 157 553 l 667 553 l 654 458 l 143 458 l 157 553 m 482 1118 q 563 1160 539 1129 q 586 1229 586 1190 q 562 1272 586 1263 q 493 1267 538 1281 l 490 1333 q 619 1333 569 1357 q 669 1244 669 1310 q 621 1124 669 1176 q 486 1060 572 1071 l 482 1118 z "},"Ȇ":{"ha":775,"x_min":68,"x_max":781,"o":"m 367 960 q 508 960 438 960 q 648 958 579 960 q 781 951 717 956 l 764 856 l 382 856 q 313 833 335 856 q 283 761 290 811 l 206 193 q 217 124 199 146 q 282 103 235 103 l 657 103 l 654 7 q 528 1 593 3 q 397 -1 463 0 q 267 -1 331 -1 q 115 50 161 -1 q 81 190 68 101 l 165 796 q 227 917 176 874 q 367 960 278 960 m 157 553 l 667 553 l 654 458 l 143 458 l 157 553 m 368 1064 l 307 1078 q 342 1172 313 1132 q 420 1235 371 1213 q 533 1258 469 1258 q 649 1235 603 1258 q 715 1169 696 1211 q 724 1074 735 1128 l 663 1069 q 635 1144 669 1118 q 535 1171 600 1171 q 418 1142 463 1171 q 368 1064 374 1114 z "},"Ē":{"ha":775,"x_min":68,"x_max":781,"o":"m 367 960 q 508 960 438 960 q 648 958 579 960 q 781 951 717 956 l 764 856 l 382 856 q 313 833 335 856 q 283 761 290 811 l 206 193 q 217 124 199 146 q 282 103 235 103 l 657 103 l 654 7 q 528 1 593 3 q 397 -1 463 0 q 267 -1 331 -1 q 115 50 161 -1 q 81 190 68 101 l 165 796 q 227 917 176 874 q 367 960 278 960 m 157 553 l 667 553 l 654 458 l 143 458 l 157 553 m 732 1207 l 721 1119 l 333 1119 l 344 1207 l 732 1207 z "},"Ḗ":{"ha":775,"x_min":68,"x_max":781,"o":"m 367 960 q 508 960 438 960 q 648 958 579 960 q 781 951 717 956 l 764 856 l 382 856 q 313 833 335 856 q 283 761 290 811 l 206 193 q 217 124 199 146 q 282 103 235 103 l 657 103 l 654 7 q 528 1 593 3 q 397 -1 463 0 q 267 -1 331 -1 q 115 50 161 -1 q 81 190 68 101 l 165 796 q 227 917 176 874 q 367 960 278 960 m 157 553 l 667 553 l 654 458 l 143 458 l 157 553 m 725 1165 l 713 1078 l 325 1078 l 338 1165 l 725 1165 m 615 1418 l 678 1342 l 481 1206 l 440 1251 l 615 1418 z "},"Ḕ":{"ha":775,"x_min":68,"x_max":781,"o":"m 367 960 q 508 960 438 960 q 648 958 579 960 q 781 951 717 956 l 764 856 l 382 856 q 313 833 335 856 q 283 761 290 811 l 206 193 q 217 124 199 146 q 282 103 235 103 l 657 103 l 654 7 q 528 1 593 3 q 397 -1 463 0 q 267 -1 331 -1 q 115 50 161 -1 q 81 190 68 101 l 165 796 q 227 917 176 874 q 367 960 278 960 m 157 553 l 667 553 l 654 458 l 143 458 l 157 553 m 725 1165 l 713 1078 l 325 1078 l 338 1165 l 725 1165 m 449 1408 l 596 1249 l 551 1206 l 382 1339 l 449 1408 z "},"Ę":{"ha":775,"x_min":68,"x_max":781,"o":"m 367 960 q 508 960 438 960 q 648 958 579 960 q 781 951 717 956 l 764 856 l 382 856 q 313 833 335 856 q 283 761 290 811 l 206 193 q 217 124 199 146 q 282 103 235 103 l 657 103 l 654 7 q 528 1 593 3 q 397 -1 463 0 q 267 -1 331 -1 q 115 50 161 -1 q 81 190 68 101 l 165 796 q 227 917 176 874 q 367 960 278 960 m 157 553 l 667 553 l 654 458 l 143 458 l 157 553 m 599 11 l 654 7 q 590 -68 619 -29 q 532 -156 560 -107 q 531 -219 504 -206 q 625 -211 557 -233 l 640 -262 q 524 -290 571 -289 q 454 -271 478 -290 q 428 -220 431 -251 q 444 -151 426 -189 q 499 -77 463 -118 q 599 11 535 -36 z "},"Ẽ":{"ha":775,"x_min":68,"x_max":781,"o":"m 367 960 q 508 960 438 960 q 648 958 579 960 q 781 951 717 956 l 764 856 l 382 856 q 313 833 335 856 q 283 761 290 811 l 206 193 q 217 124 199 146 q 282 103 235 103 l 657 103 l 654 7 q 528 1 593 3 q 397 -1 463 0 q 267 -1 331 -1 q 115 50 161 -1 q 81 190 68 101 l 165 796 q 227 917 176 874 q 367 960 278 960 m 157 553 l 667 553 l 654 458 l 143 458 l 157 553 m 428 1250 q 485 1237 461 1247 q 531 1213 510 1226 q 573 1188 551 1199 q 622 1174 594 1176 q 683 1188 664 1168 q 707 1246 701 1207 l 763 1242 q 726 1123 761 1163 q 639 1088 690 1083 q 576 1101 603 1090 q 528 1126 550 1113 q 485 1152 506 1140 q 442 1167 465 1164 q 383 1151 401 1171 q 358 1089 364 1131 l 303 1094 q 342 1216 306 1178 q 428 1250 379 1254 z "},"F":{"ha":746,"x_min":60,"x_max":772,"o":"m 372 960 q 578 958 475 960 q 772 950 681 957 l 756 856 l 399 856 q 321 835 346 856 q 289 761 296 815 l 182 0 l 60 0 l 169 790 q 235 916 182 872 q 372 960 288 960 m 158 538 l 658 538 l 644 444 l 144 443 l 158 538 z "},"G":{"ha":867,"x_min":75,"x_max":824,"o":"m 549 976 q 644 974 597 976 q 736 964 690 971 q 824 946 782 957 l 806 856 q 719 863 763 860 q 637 866 676 865 q 564 867 597 867 q 422 850 481 867 q 325 792 364 833 q 262 673 286 750 q 222 475 238 596 q 215 249 207 333 q 261 127 224 164 q 371 90 299 90 q 467 108 424 90 q 552 160 510 126 q 642 242 594 194 l 654 160 q 585 85 621 118 q 511 29 550 53 q 427 -6 472 6 q 331 -18 382 -18 q 172 34 231 -18 q 94 197 113 86 q 94 483 75 308 q 151 730 114 633 q 244 880 188 826 q 376 955 300 933 q 549 976 451 976 m 796 556 l 717 0 l 629 0 l 632 150 l 625 178 l 678 556 l 796 556 z "},"Ğ":{"ha":867,"x_min":75,"x_max":824,"o":"m 549 976 q 644 974 597 976 q 736 964 690 971 q 824 946 782 957 l 806 856 q 719 863 763 860 q 637 866 676 865 q 564 867 597 867 q 422 850 481 867 q 325 792 364 833 q 262 673 286 750 q 222 475 238 596 q 215 249 207 333 q 261 127 224 164 q 371 90 299 90 q 467 108 424 90 q 552 160 510 126 q 642 242 594 194 l 654 160 q 585 85 621 118 q 511 29 550 53 q 427 -6 472 6 q 331 -18 382 -18 q 172 34 231 -18 q 94 197 113 86 q 94 483 75 308 q 151 730 114 633 q 244 880 188 826 q 376 955 300 933 q 549 976 451 976 m 796 556 l 717 0 l 629 0 l 632 150 l 625 178 l 678 556 l 796 556 m 717 1229 l 776 1215 q 743 1121 772 1161 q 665 1058 714 1081 q 550 1035 615 1035 q 435 1058 482 1035 q 369 1124 389 1082 q 361 1219 350 1167 l 422 1225 q 450 1149 415 1175 q 550 1122 485 1122 q 667 1151 622 1122 q 717 1229 711 1181 z "},"Ǧ":{"ha":867,"x_min":75,"x_max":824,"o":"m 549 976 q 644 974 597 976 q 736 964 690 971 q 824 946 782 957 l 806 856 q 719 863 763 860 q 637 866 676 865 q 564 867 597 867 q 422 850 481 867 q 325 792 364 833 q 262 673 286 750 q 222 475 238 596 q 215 249 207 333 q 261 127 224 164 q 371 90 299 90 q 467 108 424 90 q 552 160 510 126 q 642 242 594 194 l 654 160 q 585 85 621 118 q 511 29 550 53 q 427 -6 472 6 q 331 -18 382 -18 q 172 34 231 -18 q 94 197 113 86 q 94 483 75 308 q 151 730 114 633 q 244 880 188 826 q 376 955 300 933 q 549 976 451 976 m 796 556 l 717 0 l 629 0 l 632 150 l 625 178 l 678 556 l 796 556 m 761 1260 l 799 1210 l 590 1032 l 504 1032 l 342 1217 l 390 1260 l 547 1122 l 558 1122 l 761 1260 z "},"Ĝ":{"ha":867,"x_min":75,"x_max":824,"o":"m 549 976 q 644 974 597 976 q 736 964 690 971 q 824 946 782 957 l 806 856 q 719 863 763 860 q 637 866 676 865 q 564 867 597 867 q 422 850 481 867 q 325 792 364 833 q 262 673 286 750 q 222 475 238 596 q 215 249 207 333 q 261 127 224 164 q 371 90 299 90 q 467 108 424 90 q 552 160 510 126 q 642 242 594 194 l 654 160 q 585 85 621 118 q 511 29 550 53 q 427 -6 472 6 q 331 -18 382 -18 q 172 34 231 -18 q 94 197 113 86 q 94 483 75 308 q 151 730 114 633 q 244 880 188 826 q 376 955 300 933 q 549 976 451 976 m 796 556 l 717 0 l 629 0 l 632 150 l 625 178 l 678 556 l 796 556 m 613 1244 l 785 1060 l 740 1014 l 575 1154 l 564 1154 l 357 1015 l 322 1068 l 529 1244 l 613 1244 z "},"Ģ":{"ha":867,"x_min":75,"x_max":824,"o":"m 417 -82 q 446 -91 438 -82 q 450 -121 454 -100 l 439 -197 q 424 -258 435 -226 q 399 -322 414 -290 q 368 -381 385 -353 l 315 -362 q 338 -294 328 -326 q 357 -219 349 -262 q 331 -212 339 -222 q 324 -187 322 -203 l 333 -118 q 348 -90 339 -97 q 383 -82 357 -82 l 417 -82 m 549 976 q 644 974 597 976 q 736 964 690 971 q 824 946 782 957 l 806 856 q 719 863 763 860 q 637 866 676 865 q 564 867 597 867 q 422 850 481 867 q 325 792 364 833 q 262 673 286 750 q 222 475 238 596 q 215 249 207 333 q 261 127 224 164 q 371 90 299 90 q 467 108 424 90 q 552 160 510 126 q 642 242 594 194 l 654 160 q 585 85 621 118 q 511 29 550 53 q 427 -6 472 6 q 331 -18 382 -18 q 172 34 231 -18 q 94 197 113 86 q 94 483 75 308 q 151 730 114 633 q 244 880 188 826 q 376 955 300 933 q 549 976 451 976 m 796 556 l 717 0 l 629 0 l 632 150 l 625 178 l 678 556 l 796 556 z "},"Ġ":{"ha":867,"x_min":75,"x_max":824,"o":"m 549 976 q 644 974 597 976 q 736 964 690 971 q 824 946 782 957 l 806 856 q 719 863 763 860 q 637 866 676 865 q 564 867 597 867 q 422 850 481 867 q 325 792 364 833 q 262 673 286 750 q 222 475 238 596 q 215 249 207 333 q 261 127 224 164 q 371 90 299 90 q 467 108 424 90 q 552 160 510 126 q 642 242 594 194 l 654 160 q 585 85 621 118 q 511 29 550 53 q 427 -6 472 6 q 331 -18 382 -18 q 172 34 231 -18 q 94 197 113 86 q 94 483 75 308 q 151 730 114 633 q 244 880 188 826 q 376 955 300 933 q 549 976 451 976 m 796 556 l 717 0 l 629 0 l 632 150 l 625 178 l 678 556 l 796 556 m 585 1204 q 611 1194 601 1204 q 618 1167 621 1185 l 607 1089 q 569 1054 603 1054 l 532 1054 q 505 1065 514 1054 q 499 1092 496 1075 l 508 1171 q 519 1197 511 1189 q 546 1204 528 1204 l 585 1204 z "},"Ḡ":{"ha":867,"x_min":75,"x_max":824,"o":"m 549 976 q 644 974 597 976 q 736 964 690 971 q 824 946 782 957 l 806 856 q 719 863 763 860 q 637 866 676 865 q 564 867 597 867 q 422 850 481 867 q 325 792 364 833 q 262 673 286 750 q 222 475 238 596 q 215 249 207 333 q 261 127 224 164 q 371 90 299 90 q 467 108 424 90 q 552 160 510 126 q 642 242 594 194 l 654 160 q 585 85 621 118 q 511 29 550 53 q 427 -6 472 6 q 331 -18 382 -18 q 172 34 231 -18 q 94 197 113 86 q 94 483 75 308 q 151 730 114 633 q 244 880 188 826 q 376 955 300 933 q 549 976 451 976 m 796 556 l 717 0 l 629 0 l 632 150 l 625 178 l 678 556 l 796 556 m 758 1179 l 746 1092 l 358 1092 l 371 1179 l 758 1179 z "},"H":{"ha":925,"x_min":63,"x_max":883,"o":"m 321 958 l 186 0 l 63 0 l 197 958 l 321 958 m 721 564 l 707 458 l 239 458 l 254 564 l 721 564 m 883 958 l 749 0 l 628 0 l 763 958 l 883 958 z "},"Ħ":{"ha":925,"x_min":63,"x_max":961,"o":"m 961 786 l 953 721 l 71 721 l 81 786 l 961 786 m 321 958 l 186 0 l 63 0 l 197 958 l 321 958 m 721 564 l 707 458 l 239 458 l 254 564 l 721 564 m 883 958 l 749 0 l 628 0 l 763 958 l 883 958 z "},"Ḫ":{"ha":925,"x_min":63,"x_max":883,"o":"m 321 958 l 186 0 l 63 0 l 197 958 l 321 958 m 721 564 l 707 458 l 239 458 l 254 564 l 721 564 m 883 958 l 749 0 l 628 0 l 763 958 l 883 958 m 553 -54 l 613 -68 q 579 -162 608 -122 q 501 -226 550 -203 q 386 -249 451 -249 q 270 -225 317 -249 q 204 -160 224 -201 q 196 -64 185 -118 l 257 -60 q 286 -135 251 -108 q 385 -161 321 -161 q 502 -133 457 -161 q 553 -54 547 -104 z "},"Ĥ":{"ha":925,"x_min":63,"x_max":883,"o":"m 321 958 l 186 0 l 63 0 l 197 958 l 321 958 m 721 564 l 707 458 l 239 458 l 254 564 l 721 564 m 883 958 l 749 0 l 628 0 l 763 958 l 883 958 m 601 1244 l 774 1060 l 729 1014 l 564 1154 l 553 1154 l 346 1015 l 311 1068 l 518 1244 l 601 1244 z "},"Ḥ":{"ha":925,"x_min":63,"x_max":883,"o":"m 321 958 l 186 0 l 63 0 l 197 958 l 321 958 m 721 564 l 707 458 l 239 458 l 254 564 l 721 564 m 883 958 l 749 0 l 628 0 l 763 958 l 883 958 m 419 -72 q 447 -82 438 -72 q 454 -110 457 -92 l 443 -189 q 406 -222 438 -222 l 367 -222 q 341 -212 350 -222 q 333 -185 332 -201 l 344 -106 q 355 -80 347 -87 q 381 -72 363 -72 l 419 -72 z "},"I":{"ha":363,"x_min":63,"x_max":321,"o":"m 321 958 l 186 0 l 63 0 l 197 958 l 321 958 z "},"Ĳ":{"ha":833,"x_min":63,"x_max":796,"o":"m 321 958 l 186 0 l 63 0 l 197 958 l 321 958 m 796 958 l 688 199 q 620 41 674 94 q 479 -12 567 -12 q 435 -10 460 -12 q 388 -3 411 -7 q 350 6 365 1 l 374 92 l 439 92 q 527 119 494 92 q 567 199 560 147 l 672 958 l 796 958 z "},"Í":{"ha":363,"x_min":63,"x_max":506,"o":"m 321 958 l 186 0 l 63 0 l 197 958 l 321 958 m 449 1269 l 506 1178 l 218 1011 l 182 1065 l 449 1269 z "},"Ĭ":{"ha":363,"x_min":63,"x_max":501,"o":"m 321 958 l 186 0 l 63 0 l 197 958 l 321 958 m 442 1229 l 501 1215 q 468 1121 497 1161 q 390 1058 439 1081 q 275 1035 340 1035 q 160 1058 207 1035 q 94 1124 114 1082 q 86 1219 75 1167 l 147 1225 q 175 1149 140 1175 q 275 1122 210 1122 q 392 1151 347 1122 q 442 1229 436 1181 z "},"Î":{"ha":363,"x_min":47,"x_max":510,"o":"m 321 958 l 186 0 l 63 0 l 197 958 l 321 958 m 338 1244 l 510 1060 l 465 1014 l 300 1154 l 289 1154 l 82 1015 l 47 1068 l 254 1244 l 338 1244 z "},"Ȉ":{"ha":363,"x_min":-46,"x_max":447,"o":"m 321 958 l 186 0 l 63 0 l 197 958 l 321 958 m 254 1276 l 447 1042 l 397 1003 l 182 1224 l 254 1276 m 26 1276 l 218 1042 l 169 1003 l -46 1224 l 26 1276 z "},"Ï":{"ha":363,"x_min":63,"x_max":463,"o":"m 321 958 l 186 0 l 63 0 l 197 958 l 321 958 m 194 1208 q 222 1200 215 1208 q 225 1175 228 1192 l 214 1099 q 203 1074 213 1082 q 176 1065 194 1065 l 138 1065 q 108 1097 104 1065 l 119 1175 q 131 1200 122 1192 q 158 1208 140 1208 l 194 1208 m 429 1208 q 456 1200 450 1208 q 460 1175 463 1192 l 449 1099 q 438 1074 447 1082 q 411 1065 429 1065 l 372 1065 q 343 1097 339 1065 l 354 1175 q 366 1200 357 1192 q 393 1208 375 1208 l 429 1208 z "},"Ḯ":{"ha":363,"x_min":63,"x_max":496,"o":"m 321 958 l 186 0 l 63 0 l 197 958 l 321 958 m 197 1176 q 226 1146 231 1176 l 215 1076 q 206 1053 214 1061 q 182 1046 197 1046 l 147 1046 q 119 1075 114 1046 l 129 1146 q 140 1169 132 1161 q 165 1176 149 1176 l 197 1176 m 411 1176 q 439 1146 444 1176 l 429 1076 q 419 1053 426 1061 q 394 1046 411 1046 l 360 1046 q 332 1075 328 1046 l 343 1146 q 379 1176 349 1176 l 411 1176 m 444 1457 l 496 1375 l 250 1236 l 215 1285 l 444 1457 z "},"İ":{"ha":363,"x_min":63,"x_max":346,"o":"m 321 958 l 186 0 l 63 0 l 197 958 l 321 958 m 310 1204 q 336 1194 326 1204 q 343 1167 346 1185 l 332 1089 q 294 1054 328 1054 l 257 1054 q 230 1065 239 1054 q 224 1092 221 1075 l 233 1171 q 244 1197 236 1189 q 271 1204 253 1204 l 310 1204 z "},"Ị":{"ha":363,"x_min":44,"x_max":321,"o":"m 321 958 l 186 0 l 63 0 l 197 958 l 321 958 m 132 -72 q 160 -82 150 -72 q 167 -110 169 -92 l 156 -189 q 118 -222 150 -222 l 81 -222 q 53 -212 63 -222 q 46 -185 44 -201 l 57 -106 q 68 -80 60 -87 q 94 -72 76 -72 l 132 -72 z "},"Ì":{"ha":363,"x_min":40,"x_max":340,"o":"m 321 958 l 186 0 l 63 0 l 197 958 l 321 958 m 104 1268 l 340 1064 l 297 1011 l 40 1185 l 104 1268 z "},"Ỉ":{"ha":363,"x_min":63,"x_max":421,"o":"m 321 958 l 186 0 l 63 0 l 197 958 l 321 958 m 233 1089 q 314 1131 290 1100 q 338 1200 338 1161 q 313 1242 338 1233 q 244 1238 289 1251 l 242 1304 q 371 1304 321 1328 q 421 1215 421 1281 q 372 1094 421 1147 q 238 1031 324 1042 l 233 1089 z "},"Ȋ":{"ha":363,"x_min":58,"x_max":486,"o":"m 321 958 l 186 0 l 63 0 l 197 958 l 321 958 m 119 1035 l 58 1049 q 93 1143 64 1103 q 172 1206 122 1183 q 285 1229 221 1229 q 401 1206 354 1229 q 467 1140 447 1182 q 475 1044 486 1099 l 414 1040 q 386 1115 421 1089 q 286 1142 351 1142 q 169 1113 214 1142 q 119 1035 125 1085 z "},"Ī":{"ha":363,"x_min":63,"x_max":482,"o":"m 321 958 l 186 0 l 63 0 l 197 958 l 321 958 m 482 1179 l 471 1092 l 83 1092 l 94 1179 l 482 1179 z "},"Į":{"ha":363,"x_min":-57,"x_max":321,"o":"m 321 958 l 186 0 l 63 0 l 197 958 l 321 958 m 115 4 l 171 0 q 106 -75 136 -36 q 49 -162 76 -114 q 47 -226 21 -212 q 142 -218 74 -240 l 157 -269 q 41 -297 88 -296 q -29 -278 -6 -297 q -55 -227 -53 -258 q -39 -158 -57 -196 q 15 -84 -21 -125 q 115 4 51 -43 z "},"Ĩ":{"ha":363,"x_min":54,"x_max":514,"o":"m 321 958 l 186 0 l 63 0 l 197 958 l 321 958 m 179 1221 q 237 1208 213 1218 q 282 1183 261 1197 q 324 1158 303 1169 q 374 1144 346 1147 q 434 1158 415 1139 q 458 1217 453 1178 l 514 1213 q 477 1094 513 1133 q 390 1058 442 1054 q 328 1072 354 1061 q 279 1097 301 1083 q 237 1123 257 1111 q 193 1138 217 1135 q 134 1122 153 1142 q 110 1060 115 1101 l 54 1065 q 94 1187 57 1149 q 179 1221 131 1225 z "},"J":{"ha":471,"x_min":-12,"x_max":433,"o":"m 433 958 l 325 199 q 258 41 311 94 q 117 -12 204 -12 q 73 -10 97 -12 q 26 -3 49 -7 q -12 6 3 1 l 11 92 l 76 92 q 165 119 132 92 q 204 199 197 147 l 310 958 l 433 958 z "},"Ĵ":{"ha":471,"x_min":-12,"x_max":614,"o":"m 433 958 l 325 199 q 258 41 311 94 q 117 -12 204 -12 q 73 -10 97 -12 q 26 -3 49 -7 q -12 6 3 1 l 11 92 l 76 92 q 165 119 132 92 q 204 199 197 147 l 310 958 l 433 958 m 442 1244 l 614 1060 l 569 1014 l 404 1154 l 393 1154 l 186 1015 l 151 1068 l 358 1244 l 442 1244 z "},"K":{"ha":824,"x_min":63,"x_max":858,"o":"m 858 958 l 525 561 q 496 529 511 544 q 460 500 481 514 l 460 494 q 484 462 472 481 q 506 425 496 443 l 742 0 l 603 0 l 328 503 l 710 958 l 858 958 m 319 958 l 276 657 q 262 576 271 614 q 238 497 253 539 q 239 420 240 458 q 232 346 238 382 l 185 0 l 63 0 l 197 958 l 319 958 m 403 549 l 389 450 l 206 450 l 218 549 l 403 549 z "},"Ķ":{"ha":824,"x_min":63,"x_max":858,"o":"m 397 -82 q 426 -91 418 -82 q 431 -121 435 -100 l 419 -197 q 405 -258 415 -226 q 380 -322 394 -290 q 349 -381 365 -353 l 296 -362 q 319 -294 308 -326 q 338 -219 329 -262 q 311 -212 319 -222 q 304 -187 303 -203 l 314 -118 q 328 -90 319 -97 q 364 -82 338 -82 l 397 -82 m 858 958 l 525 561 q 496 529 511 544 q 460 500 481 514 l 460 494 q 484 462 472 481 q 506 425 496 443 l 742 0 l 603 0 l 328 503 l 710 958 l 858 958 m 319 958 l 276 657 q 262 576 271 614 q 238 497 253 539 q 239 420 240 458 q 232 346 238 382 l 185 0 l 63 0 l 197 958 l 319 958 m 403 549 l 389 450 l 206 450 l 218 549 l 403 549 z "},"L":{"ha":707,"x_min":79,"x_max":633,"o":"m 317 958 l 210 193 q 221 127 204 151 q 286 103 238 103 l 633 103 l 631 7 q 445 0 540 1 q 260 -1 350 -1 q 159 21 201 -1 q 98 88 117 43 q 89 197 79 132 l 193 958 l 317 958 z "},"Ǉ":{"ha":1178,"x_min":79,"x_max":1140,"o":"m 317 958 l 210 193 q 221 127 204 151 q 286 103 238 103 l 633 103 l 631 7 q 445 0 540 1 q 260 -1 350 -1 q 159 21 201 -1 q 98 88 117 43 q 89 197 79 132 l 193 958 l 317 958 m 1140 958 l 1032 199 q 965 41 1018 94 q 824 -12 911 -12 q 780 -10 804 -12 q 733 -3 756 -7 q 694 6 710 1 l 718 92 l 783 92 q 872 119 839 92 q 911 199 904 147 l 1017 958 l 1140 958 z "},"Ĺ":{"ha":707,"x_min":79,"x_max":633,"o":"m 317 958 l 210 193 q 221 127 204 151 q 286 103 238 103 l 633 103 l 631 7 q 445 0 540 1 q 260 -1 350 -1 q 159 21 201 -1 q 98 88 117 43 q 89 197 79 132 l 193 958 l 317 958 m 446 1269 l 503 1178 l 215 1011 l 179 1065 l 446 1269 z "},"Ľ":{"ha":707,"x_min":79,"x_max":633,"o":"m 317 958 l 210 193 q 221 127 204 151 q 286 103 238 103 l 633 103 l 631 7 q 445 0 540 1 q 260 -1 350 -1 q 159 21 201 -1 q 98 88 117 43 q 89 197 79 132 l 193 958 l 317 958 m 553 958 q 580 949 572 958 q 585 919 588 940 l 574 839 q 547 744 568 796 q 504 654 526 693 l 454 671 q 479 740 467 703 q 497 817 492 778 q 474 825 482 815 q 467 849 465 835 l 478 924 q 491 951 482 943 q 524 958 500 958 l 553 958 z "},"Ļ":{"ha":707,"x_min":79,"x_max":633,"o":"m 382 -85 q 411 -94 403 -85 q 415 -124 419 -103 l 404 -200 q 390 -261 400 -229 q 365 -324 379 -293 q 333 -383 350 -356 l 281 -365 q 303 -297 293 -329 q 322 -222 314 -265 q 296 -215 304 -225 q 289 -190 288 -206 l 299 -121 q 313 -92 304 -100 q 349 -85 322 -85 l 382 -85 m 317 958 l 210 193 q 221 127 204 151 q 286 103 238 103 l 633 103 l 631 7 q 445 0 540 1 q 260 -1 350 -1 q 159 21 201 -1 q 98 88 117 43 q 89 197 79 132 l 193 958 l 317 958 z "},"Ŀ":{"ha":707,"x_min":79,"x_max":633,"o":"m 481 489 q 454 499 464 489 q 447 526 444 508 l 458 604 q 496 639 463 639 l 533 639 q 560 628 551 639 q 567 601 569 618 l 557 522 q 547 497 556 504 q 519 489 538 489 l 481 489 m 317 958 l 210 193 q 221 127 204 151 q 286 103 238 103 l 633 103 l 631 7 q 445 0 540 1 q 260 -1 350 -1 q 159 21 201 -1 q 98 88 117 43 q 89 197 79 132 l 193 958 l 317 958 z "},"Ḷ":{"ha":707,"x_min":79,"x_max":633,"o":"m 317 958 l 210 193 q 221 127 204 151 q 286 103 238 103 l 633 103 l 631 7 q 445 0 540 1 q 260 -1 350 -1 q 159 21 201 -1 q 98 88 117 43 q 89 197 79 132 l 193 958 l 317 958 m 382 -72 q 410 -82 400 -72 q 417 -110 419 -92 l 406 -189 q 368 -222 400 -222 l 329 -222 q 303 -212 313 -222 q 296 -185 294 -201 l 307 -106 q 317 -80 310 -87 q 343 -72 325 -72 l 382 -72 z "},"ǈ":{"ha":1049,"x_min":79,"x_max":1017,"o":"m 317 958 l 210 193 q 221 127 204 151 q 286 103 238 103 l 633 103 l 631 7 q 445 0 540 1 q 260 -1 350 -1 q 159 21 201 -1 q 98 88 117 43 q 89 197 79 132 l 193 958 l 317 958 m 974 676 l 876 -19 q 847 -123 869 -74 q 791 -212 825 -172 q 714 -283 757 -253 l 650 -229 q 724 -130 697 -181 q 760 -14 750 -79 l 857 676 l 974 676 m 981 964 q 1008 953 1000 964 q 1014 925 1017 942 l 1004 846 q 965 813 999 813 l 911 813 q 876 851 872 813 l 888 929 q 925 964 892 964 l 981 964 z "},"Ḻ":{"ha":707,"x_min":79,"x_max":633,"o":"m 317 958 l 210 193 q 221 127 204 151 q 286 103 238 103 l 633 103 l 631 7 q 445 0 540 1 q 260 -1 350 -1 q 159 21 201 -1 q 98 88 117 43 q 89 197 79 132 l 193 958 l 317 958 m 553 -108 l 540 -196 l 153 -196 l 165 -108 l 553 -108 z "},"Ł":{"ha":706,"x_min":31,"x_max":632,"o":"m 440 657 l 432 583 l 31 424 l 38 499 l 440 657 m 315 958 l 208 193 q 219 127 203 151 q 285 103 236 103 l 632 103 l 629 7 q 444 0 539 1 q 258 -1 349 -1 q 158 21 200 -1 q 97 88 115 43 q 88 197 78 132 l 192 958 l 315 958 z "},"M":{"ha":1217,"x_min":44,"x_max":1149,"o":"m 1099 958 q 1136 944 1124 958 q 1146 904 1149 929 l 1058 0 l 936 0 l 1025 857 l 997 857 l 685 149 q 663 118 676 128 q 628 108 650 108 l 518 108 q 483 120 496 108 q 467 153 471 132 l 346 857 l 318 857 l 165 0 l 44 0 l 210 910 q 227 946 214 933 q 264 958 240 958 l 399 958 q 430 947 418 958 q 444 914 442 935 l 547 331 q 558 265 554 297 q 565 200 561 232 l 592 200 q 619 267 606 235 q 646 329 632 299 l 906 918 q 928 948 915 939 q 963 957 942 957 l 1099 958 z "},"Ṃ":{"ha":1217,"x_min":44,"x_max":1149,"o":"m 1099 958 q 1136 944 1124 958 q 1146 904 1149 929 l 1058 0 l 936 0 l 1025 857 l 997 857 l 685 149 q 663 118 676 128 q 628 108 650 108 l 518 108 q 483 120 496 108 q 467 153 471 132 l 346 857 l 318 857 l 165 0 l 44 0 l 210 910 q 227 946 214 933 q 264 958 240 958 l 399 958 q 430 947 418 958 q 444 914 442 935 l 547 331 q 558 265 554 297 q 565 200 561 232 l 592 200 q 619 267 606 235 q 646 329 632 299 l 906 918 q 928 948 915 939 q 963 957 942 957 l 1099 958 m 571 -72 q 599 -82 589 -72 q 606 -110 608 -92 l 594 -189 q 557 -222 589 -222 l 518 -222 q 492 -212 501 -222 q 485 -185 483 -201 l 496 -106 q 506 -80 499 -87 q 532 -72 514 -72 l 571 -72 z "},"N":{"ha":976,"x_min":63,"x_max":935,"o":"m 935 958 l 806 46 q 792 11 803 22 q 757 0 781 0 l 646 0 q 614 11 625 0 q 596 42 603 22 l 356 721 q 335 781 346 747 q 318 844 325 815 l 294 844 q 290 782 293 814 q 283 718 288 750 l 185 0 l 63 0 l 190 913 q 207 947 194 936 q 242 958 219 958 l 350 958 q 382 947 371 958 q 400 917 393 936 l 633 256 q 656 188 644 225 q 678 117 668 151 l 704 117 q 710 188 707 153 q 718 257 713 222 l 814 958 l 935 958 z "},"Ǌ":{"ha":1447,"x_min":63,"x_max":1410,"o":"m 935 958 l 806 46 q 792 11 803 22 q 757 0 781 0 l 646 0 q 614 11 625 0 q 596 42 603 22 l 356 721 q 335 781 346 747 q 318 844 325 815 l 294 844 q 290 782 293 814 q 283 718 288 750 l 185 0 l 63 0 l 190 913 q 207 947 194 936 q 242 958 219 958 l 350 958 q 382 947 371 958 q 400 917 393 936 l 633 256 q 656 188 644 225 q 678 117 668 151 l 704 117 q 710 188 707 153 q 718 257 713 222 l 814 958 l 935 958 m 1410 958 l 1301 199 q 1234 41 1288 94 q 1093 -12 1181 -12 q 1049 -10 1074 -12 q 1002 -3 1025 -7 q 964 6 979 1 l 988 92 l 1053 92 q 1141 119 1108 92 q 1181 199 1174 147 l 1286 958 l 1410 958 z "},"Ń":{"ha":976,"x_min":63,"x_max":935,"o":"m 935 958 l 806 46 q 792 11 803 22 q 757 0 781 0 l 646 0 q 614 11 625 0 q 596 42 603 22 l 356 721 q 335 781 346 747 q 318 844 325 815 l 294 844 q 290 782 293 814 q 283 718 288 750 l 185 0 l 63 0 l 190 913 q 207 947 194 936 q 242 958 219 958 l 350 958 q 382 947 371 958 q 400 917 393 936 l 633 256 q 656 188 644 225 q 678 117 668 151 l 704 117 q 710 188 707 153 q 718 257 713 222 l 814 958 l 935 958 m 765 1269 l 822 1178 l 535 1011 l 499 1065 l 765 1269 z "},"Ň":{"ha":976,"x_min":63,"x_max":935,"o":"m 935 958 l 806 46 q 792 11 803 22 q 757 0 781 0 l 646 0 q 614 11 625 0 q 596 42 603 22 l 356 721 q 335 781 346 747 q 318 844 325 815 l 294 844 q 290 782 293 814 q 283 718 288 750 l 185 0 l 63 0 l 190 913 q 207 947 194 936 q 242 958 219 958 l 350 958 q 382 947 371 958 q 400 917 393 936 l 633 256 q 656 188 644 225 q 678 117 668 151 l 704 117 q 710 188 707 153 q 718 257 713 222 l 814 958 l 935 958 m 803 1260 l 840 1210 l 632 1032 l 546 1032 l 383 1217 l 432 1260 l 589 1122 l 600 1122 l 803 1260 z "},"Ņ":{"ha":976,"x_min":63,"x_max":935,"o":"m 465 -82 q 494 -91 486 -82 q 499 -121 503 -100 l 488 -197 q 473 -258 483 -226 q 448 -322 463 -290 q 417 -381 433 -353 l 364 -362 q 387 -294 376 -326 q 406 -219 397 -262 q 379 -212 388 -222 q 372 -187 371 -203 l 382 -118 q 397 -90 388 -97 q 432 -82 406 -82 l 465 -82 m 935 958 l 806 46 q 792 11 803 22 q 757 0 781 0 l 646 0 q 614 11 625 0 q 596 42 603 22 l 356 721 q 335 781 346 747 q 318 844 325 815 l 294 844 q 290 782 293 814 q 283 718 288 750 l 185 0 l 63 0 l 190 913 q 207 947 194 936 q 242 958 219 958 l 350 958 q 382 947 371 958 q 400 917 393 936 l 633 256 q 656 188 644 225 q 678 117 668 151 l 704 117 q 710 188 707 153 q 718 257 713 222 l 814 958 l 935 958 z "},"Ṅ":{"ha":976,"x_min":63,"x_max":935,"o":"m 935 958 l 806 46 q 792 11 803 22 q 757 0 781 0 l 646 0 q 614 11 625 0 q 596 42 603 22 l 356 721 q 335 781 346 747 q 318 844 325 815 l 294 844 q 290 782 293 814 q 283 718 288 750 l 185 0 l 63 0 l 190 913 q 207 947 194 936 q 242 958 219 958 l 350 958 q 382 947 371 958 q 400 917 393 936 l 633 256 q 656 188 644 225 q 678 117 668 151 l 704 117 q 710 188 707 153 q 718 257 713 222 l 814 958 l 935 958 m 626 1204 q 654 1194 644 1204 q 661 1167 664 1185 l 650 1089 q 613 1054 646 1054 l 575 1054 q 548 1065 557 1054 q 542 1092 539 1075 l 551 1171 q 563 1197 554 1189 q 589 1204 571 1204 l 626 1204 z "},"Ṇ":{"ha":976,"x_min":63,"x_max":935,"o":"m 935 958 l 806 46 q 792 11 803 22 q 757 0 781 0 l 646 0 q 614 11 625 0 q 596 42 603 22 l 356 721 q 335 781 346 747 q 318 844 325 815 l 294 844 q 290 782 293 814 q 283 718 288 750 l 185 0 l 63 0 l 190 913 q 207 947 194 936 q 242 958 219 958 l 350 958 q 382 947 371 958 q 400 917 393 936 l 633 256 q 656 188 644 225 q 678 117 668 151 l 704 117 q 710 188 707 153 q 718 257 713 222 l 814 958 l 935 958 m 443 -72 q 471 -82 461 -72 q 478 -110 481 -92 l 467 -189 q 429 -222 461 -222 l 390 -222 q 365 -212 374 -222 q 357 -185 356 -201 l 368 -106 q 378 -80 371 -87 q 404 -72 386 -72 l 443 -72 z "},"Ŋ":{"ha":976,"x_min":63,"x_max":935,"o":"m 935 958 l 783 -112 q 716 -253 771 -206 q 578 -300 661 -301 q 514 -295 550 -300 q 453 -282 478 -290 l 474 -206 l 540 -206 q 631 -178 597 -206 q 671 -99 664 -151 l 685 1 l 647 0 q 626 11 633 -1 q 613 38 619 24 l 354 700 q 335 759 344 725 q 318 826 325 793 l 296 826 q 291 762 294 794 q 282 697 288 729 l 185 0 l 63 0 l 190 913 q 207 947 194 936 q 242 958 219 958 l 336 958 q 368 947 357 958 q 388 917 379 936 l 632 275 q 656 210 643 247 q 681 136 669 172 l 703 136 q 709 209 706 172 q 717 281 713 246 l 813 958 l 935 958 z "},"ǋ":{"ha":1318,"x_min":63,"x_max":1286,"o":"m 935 958 l 806 46 q 792 11 803 22 q 757 0 781 0 l 646 0 q 614 11 625 0 q 596 42 603 22 l 356 721 q 335 781 346 747 q 318 844 325 815 l 294 844 q 290 782 293 814 q 283 718 288 750 l 185 0 l 63 0 l 190 913 q 207 947 194 936 q 242 958 219 958 l 350 958 q 382 947 371 958 q 400 917 393 936 l 633 256 q 656 188 644 225 q 678 117 668 151 l 704 117 q 710 188 707 153 q 718 257 713 222 l 814 958 l 935 958 m 1243 676 l 1146 -19 q 1117 -123 1139 -74 q 1060 -212 1094 -172 q 983 -283 1026 -253 l 919 -229 q 993 -130 967 -181 q 1029 -14 1019 -79 l 1126 676 l 1243 676 m 1250 964 q 1278 953 1269 964 q 1283 925 1286 942 l 1274 846 q 1235 813 1268 813 l 1181 813 q 1146 851 1142 813 l 1157 929 q 1194 964 1161 964 l 1250 964 z "},"Ṉ":{"ha":976,"x_min":63,"x_max":935,"o":"m 935 958 l 806 46 q 792 11 803 22 q 757 0 781 0 l 646 0 q 614 11 625 0 q 596 42 603 22 l 356 721 q 335 781 346 747 q 318 844 325 815 l 294 844 q 290 782 293 814 q 283 718 288 750 l 185 0 l 63 0 l 190 913 q 207 947 194 936 q 242 958 219 958 l 350 958 q 382 947 371 958 q 400 917 393 936 l 633 256 q 656 188 644 225 q 678 117 668 151 l 704 117 q 710 188 707 153 q 718 257 713 222 l 814 958 l 935 958 m 613 -108 l 600 -196 l 213 -196 l 225 -108 l 613 -108 z "},"Ñ":{"ha":976,"x_min":63,"x_max":935,"o":"m 935 958 l 806 46 q 792 11 803 22 q 757 0 781 0 l 646 0 q 614 11 625 0 q 596 42 603 22 l 356 721 q 335 781 346 747 q 318 844 325 815 l 294 844 q 290 782 293 814 q 283 718 288 750 l 185 0 l 63 0 l 190 913 q 207 947 194 936 q 242 958 219 958 l 350 958 q 382 947 371 958 q 400 917 393 936 l 633 256 q 656 188 644 225 q 678 117 668 151 l 704 117 q 710 188 707 153 q 718 257 713 222 l 814 958 l 935 958 m 496 1221 q 553 1208 529 1218 q 599 1183 578 1197 q 641 1158 619 1169 q 690 1144 663 1147 q 751 1158 732 1139 q 775 1217 769 1178 l 831 1213 q 794 1094 829 1133 q 707 1058 758 1054 q 644 1072 671 1061 q 596 1097 618 1083 q 553 1123 574 1111 q 510 1138 533 1135 q 451 1122 469 1142 q 426 1060 432 1101 l 371 1065 q 410 1187 374 1149 q 496 1221 447 1225 z "},"O":{"ha":925,"x_min":69,"x_max":876,"o":"m 538 976 q 748 928 669 976 q 851 769 826 879 q 850 475 876 660 q 799 241 832 336 q 715 89 765 146 q 590 7 664 32 q 413 -18 515 -18 q 201 29 281 -18 q 96 186 122 76 q 94 483 69 296 q 146 713 114 619 q 229 865 178 807 q 356 950 281 924 q 538 976 432 976 m 531 867 q 373 831 433 867 q 278 710 313 796 q 222 475 243 625 q 213 246 203 329 q 272 127 224 163 q 415 92 321 92 q 571 128 511 92 q 667 249 631 164 q 724 483 703 335 q 735 717 746 633 q 674 833 724 800 q 531 867 625 867 z "},"Ó":{"ha":925,"x_min":69,"x_max":876,"o":"m 538 976 q 748 928 669 976 q 851 769 826 879 q 850 475 876 660 q 799 241 832 336 q 715 89 765 146 q 590 7 664 32 q 413 -18 515 -18 q 201 29 281 -18 q 96 186 122 76 q 94 483 69 296 q 146 713 114 619 q 229 865 178 807 q 356 950 281 924 q 538 976 432 976 m 531 867 q 373 831 433 867 q 278 710 313 796 q 222 475 243 625 q 213 246 203 329 q 272 127 224 163 q 415 92 321 92 q 571 128 511 92 q 667 249 631 164 q 724 483 703 335 q 735 717 746 633 q 674 833 724 800 q 531 867 625 867 m 724 1269 l 781 1178 l 493 1011 l 457 1065 l 724 1269 z "},"Ŏ":{"ha":925,"x_min":69,"x_max":876,"o":"m 538 976 q 748 928 669 976 q 851 769 826 879 q 850 475 876 660 q 799 241 832 336 q 715 89 765 146 q 590 7 664 32 q 413 -18 515 -18 q 201 29 281 -18 q 96 186 122 76 q 94 483 69 296 q 146 713 114 619 q 229 865 178 807 q 356 950 281 924 q 538 976 432 976 m 531 867 q 373 831 433 867 q 278 710 313 796 q 222 475 243 625 q 213 246 203 329 q 272 127 224 163 q 415 92 321 92 q 571 128 511 92 q 667 249 631 164 q 724 483 703 335 q 735 717 746 633 q 674 833 724 800 q 531 867 625 867 m 717 1229 l 776 1215 q 743 1121 772 1161 q 665 1058 714 1081 q 550 1035 615 1035 q 435 1058 482 1035 q 369 1124 389 1082 q 361 1219 350 1167 l 422 1225 q 450 1149 415 1175 q 550 1122 485 1122 q 667 1151 622 1122 q 717 1229 711 1181 z "},"Ô":{"ha":925,"x_min":69,"x_max":876,"o":"m 538 976 q 748 928 669 976 q 851 769 826 879 q 850 475 876 660 q 799 241 832 336 q 715 89 765 146 q 590 7 664 32 q 413 -18 515 -18 q 201 29 281 -18 q 96 186 122 76 q 94 483 69 296 q 146 713 114 619 q 229 865 178 807 q 356 950 281 924 q 538 976 432 976 m 531 867 q 373 831 433 867 q 278 710 313 796 q 222 475 243 625 q 213 246 203 329 q 272 127 224 163 q 415 92 321 92 q 571 128 511 92 q 667 249 631 164 q 724 483 703 335 q 735 717 746 633 q 674 833 724 800 q 531 867 625 867 m 613 1244 l 785 1060 l 740 1014 l 575 1154 l 564 1154 l 357 1015 l 322 1068 l 529 1244 l 613 1244 z "},"Ố":{"ha":925,"x_min":69,"x_max":944,"o":"m 538 976 q 748 928 669 976 q 851 769 826 879 q 850 475 876 660 q 799 241 832 336 q 715 89 765 146 q 590 7 664 32 q 413 -18 515 -18 q 201 29 281 -18 q 96 186 122 76 q 94 483 69 296 q 146 713 114 619 q 229 865 178 807 q 356 950 281 924 q 538 976 432 976 m 531 867 q 373 831 433 867 q 278 710 313 796 q 222 475 243 625 q 213 246 203 329 q 272 127 224 163 q 415 92 321 92 q 571 128 511 92 q 667 249 631 164 q 724 483 703 335 q 735 717 746 633 q 674 833 724 800 q 531 867 625 867 m 617 1226 l 768 1064 l 724 1017 l 579 1136 l 568 1136 l 385 1017 l 350 1068 l 533 1226 l 617 1226 m 883 1371 l 944 1294 l 747 1160 l 708 1204 l 883 1371 z "},"Ộ":{"ha":925,"x_min":69,"x_max":876,"o":"m 538 976 q 748 928 669 976 q 851 769 826 879 q 850 475 876 660 q 799 241 832 336 q 715 89 765 146 q 590 7 664 32 q 413 -18 515 -18 q 201 29 281 -18 q 96 186 122 76 q 94 483 69 296 q 146 713 114 619 q 229 865 178 807 q 356 950 281 924 q 538 976 432 976 m 531 867 q 373 831 433 867 q 278 710 313 796 q 222 475 243 625 q 213 246 203 329 q 272 127 224 163 q 415 92 321 92 q 571 128 511 92 q 667 249 631 164 q 724 483 703 335 q 735 717 746 633 q 674 833 724 800 q 531 867 625 867 m 421 -72 q 449 -82 439 -72 q 456 -110 458 -92 l 444 -189 q 407 -222 439 -222 l 368 -222 q 342 -212 351 -222 q 335 -185 333 -201 l 346 -106 q 356 -80 349 -87 q 382 -72 364 -72 l 421 -72 m 613 1244 l 785 1060 l 740 1014 l 575 1154 l 563 1154 l 357 1015 l 322 1068 l 528 1244 l 613 1244 z "},"Ồ":{"ha":925,"x_min":69,"x_max":876,"o":"m 538 976 q 748 928 669 976 q 851 769 826 879 q 850 475 876 660 q 799 241 832 336 q 715 89 765 146 q 590 7 664 32 q 413 -18 515 -18 q 201 29 281 -18 q 96 186 122 76 q 94 483 69 296 q 146 713 114 619 q 229 865 178 807 q 356 950 281 924 q 538 976 432 976 m 531 867 q 373 831 433 867 q 278 710 313 796 q 222 475 243 625 q 213 246 203 329 q 272 127 224 163 q 415 92 321 92 q 571 128 511 92 q 667 249 631 164 q 724 483 703 335 q 735 717 746 633 q 674 833 724 800 q 531 867 625 867 m 596 1226 l 747 1064 l 703 1017 l 558 1136 l 547 1136 l 364 1017 l 329 1068 l 513 1226 l 596 1226 m 265 1365 l 413 1206 l 368 1161 l 199 1296 l 265 1365 z "},"Ổ":{"ha":925,"x_min":69,"x_max":878,"o":"m 538 976 q 748 928 669 976 q 851 769 826 879 q 850 475 876 660 q 799 241 832 336 q 715 89 765 146 q 590 7 664 32 q 413 -18 515 -18 q 201 29 281 -18 q 96 186 122 76 q 94 483 69 296 q 146 713 114 619 q 229 865 178 807 q 356 950 281 924 q 538 976 432 976 m 531 867 q 373 831 433 867 q 278 710 313 796 q 222 475 243 625 q 213 246 203 329 q 272 127 224 163 q 415 92 321 92 q 571 128 511 92 q 667 249 631 164 q 724 483 703 335 q 735 717 746 633 q 674 833 724 800 q 531 867 625 867 m 603 1226 l 754 1064 l 710 1017 l 565 1136 l 554 1136 l 371 1017 l 336 1068 l 519 1226 l 603 1226 m 707 1214 q 781 1243 760 1222 q 803 1294 803 1264 q 778 1328 803 1325 q 717 1318 754 1332 l 715 1379 q 831 1388 783 1404 q 878 1313 878 1371 q 834 1211 878 1251 q 710 1161 790 1171 l 707 1214 z "},"Ỗ":{"ha":925,"x_min":69,"x_max":876,"o":"m 538 976 q 748 928 669 976 q 851 769 826 879 q 850 475 876 660 q 799 241 832 336 q 715 89 765 146 q 590 7 664 32 q 413 -18 515 -18 q 201 29 281 -18 q 96 186 122 76 q 94 483 69 296 q 146 713 114 619 q 229 865 178 807 q 356 950 281 924 q 538 976 432 976 m 531 867 q 373 831 433 867 q 278 710 313 796 q 222 475 243 625 q 213 246 203 329 q 272 127 224 163 q 415 92 321 92 q 571 128 511 92 q 667 249 631 164 q 724 483 703 335 q 735 717 746 633 q 674 833 724 800 q 531 867 625 867 m 601 1226 l 753 1064 l 708 1017 l 564 1136 l 553 1136 l 369 1017 l 335 1068 l 518 1226 l 601 1226 m 475 1418 q 528 1404 507 1415 q 569 1380 550 1393 q 607 1357 588 1367 q 653 1344 626 1347 q 710 1358 693 1340 q 731 1414 728 1375 l 783 1408 q 751 1297 783 1333 q 669 1263 718 1260 q 610 1276 635 1265 q 567 1301 586 1288 q 529 1326 547 1315 q 489 1339 511 1338 q 433 1323 450 1342 q 411 1264 415 1304 l 358 1269 q 394 1385 361 1349 q 475 1418 428 1422 z "},"Ȍ":{"ha":925,"x_min":69,"x_max":876,"o":"m 538 976 q 748 928 669 976 q 851 769 826 879 q 850 475 876 660 q 799 241 832 336 q 715 89 765 146 q 590 7 664 32 q 413 -18 515 -18 q 201 29 281 -18 q 96 186 122 76 q 94 483 69 296 q 146 713 114 619 q 229 865 178 807 q 356 950 281 924 q 538 976 432 976 m 531 867 q 373 831 433 867 q 278 710 313 796 q 222 475 243 625 q 213 246 203 329 q 272 127 224 163 q 415 92 321 92 q 571 128 511 92 q 667 249 631 164 q 724 483 703 335 q 735 717 746 633 q 674 833 724 800 q 531 867 625 867 m 529 1276 l 722 1042 l 672 1003 l 457 1224 l 529 1276 m 301 1276 l 493 1042 l 444 1003 l 229 1224 l 301 1276 z "},"Ö":{"ha":925,"x_min":69,"x_max":876,"o":"m 538 976 q 748 928 669 976 q 851 769 826 879 q 850 475 876 660 q 799 241 832 336 q 715 89 765 146 q 590 7 664 32 q 413 -18 515 -18 q 201 29 281 -18 q 96 186 122 76 q 94 483 69 296 q 146 713 114 619 q 229 865 178 807 q 356 950 281 924 q 538 976 432 976 m 531 867 q 373 831 433 867 q 278 710 313 796 q 222 475 243 625 q 213 246 203 329 q 272 127 224 163 q 415 92 321 92 q 571 128 511 92 q 667 249 631 164 q 724 483 703 335 q 735 717 746 633 q 674 833 724 800 q 531 867 625 867 m 469 1208 q 497 1200 490 1208 q 500 1175 503 1192 l 489 1099 q 478 1074 488 1082 q 451 1065 469 1065 l 413 1065 q 383 1097 379 1065 l 394 1175 q 406 1200 397 1192 q 433 1208 415 1208 l 469 1208 m 704 1208 q 731 1200 725 1208 q 735 1175 738 1192 l 724 1099 q 713 1074 722 1082 q 686 1065 704 1065 l 647 1065 q 618 1097 614 1065 l 629 1175 q 641 1200 632 1192 q 668 1208 650 1208 l 704 1208 z "},"Ȫ":{"ha":925,"x_min":69,"x_max":876,"o":"m 538 976 q 748 928 669 976 q 851 769 826 879 q 850 475 876 660 q 799 241 832 336 q 715 89 765 146 q 590 7 664 32 q 413 -18 515 -18 q 201 29 281 -18 q 96 186 122 76 q 94 483 69 296 q 146 713 114 619 q 229 865 178 807 q 356 950 281 924 q 538 976 432 976 m 531 867 q 373 831 433 867 q 278 710 313 796 q 222 475 243 625 q 213 246 203 329 q 272 127 224 163 q 415 92 321 92 q 571 128 511 92 q 667 249 631 164 q 724 483 703 335 q 735 717 746 633 q 674 833 724 800 q 531 867 625 867 m 468 1175 q 496 1146 501 1175 l 485 1076 q 476 1053 483 1060 q 453 1046 468 1046 l 417 1046 q 389 1075 385 1046 l 400 1146 q 411 1168 403 1161 q 435 1175 419 1175 l 468 1175 m 681 1175 q 706 1168 700 1175 q 710 1146 713 1161 l 699 1076 q 689 1053 697 1060 q 665 1046 681 1046 l 631 1046 q 603 1075 597 1046 l 613 1146 q 649 1175 618 1175 l 681 1175 m 757 1326 l 746 1246 l 393 1246 l 404 1326 l 757 1326 z "},"Ȱ":{"ha":925,"x_min":69,"x_max":876,"o":"m 538 976 q 748 928 669 976 q 851 769 826 879 q 850 475 876 660 q 799 241 832 336 q 715 89 765 146 q 590 7 664 32 q 413 -18 515 -18 q 201 29 281 -18 q 96 186 122 76 q 94 483 69 296 q 146 713 114 619 q 229 865 178 807 q 356 950 281 924 q 538 976 432 976 m 531 867 q 373 831 433 867 q 278 710 313 796 q 222 475 243 625 q 213 246 203 329 q 272 127 224 163 q 415 92 321 92 q 571 128 511 92 q 667 249 631 164 q 724 483 703 335 q 735 717 746 633 q 674 833 724 800 q 531 867 625 867 m 761 1338 l 750 1257 l 397 1257 l 408 1338 l 761 1338 m 575 1175 q 600 1166 590 1175 q 607 1140 610 1157 l 597 1069 q 563 1038 590 1038 l 528 1038 q 497 1072 494 1038 l 507 1144 q 540 1175 508 1175 l 575 1175 z "},"Ọ":{"ha":925,"x_min":69,"x_max":876,"o":"m 538 976 q 748 928 669 976 q 851 769 826 879 q 850 475 876 660 q 799 241 832 336 q 715 89 765 146 q 590 7 664 32 q 413 -18 515 -18 q 201 29 281 -18 q 96 186 122 76 q 94 483 69 296 q 146 713 114 619 q 229 865 178 807 q 356 950 281 924 q 538 976 432 976 m 531 867 q 373 831 433 867 q 278 710 313 796 q 222 475 243 625 q 213 246 203 329 q 272 127 224 163 q 415 92 321 92 q 571 128 511 92 q 667 249 631 164 q 724 483 703 335 q 735 717 746 633 q 674 833 724 800 q 531 867 625 867 m 421 -72 q 449 -82 439 -72 q 456 -110 458 -92 l 444 -189 q 407 -222 439 -222 l 369 -222 q 342 -212 351 -222 q 335 -185 333 -201 l 346 -106 q 357 -80 349 -87 q 383 -72 365 -72 l 421 -72 z "},"Ò":{"ha":925,"x_min":69,"x_max":876,"o":"m 538 976 q 748 928 669 976 q 851 769 826 879 q 850 475 876 660 q 799 241 832 336 q 715 89 765 146 q 590 7 664 32 q 413 -18 515 -18 q 201 29 281 -18 q 96 186 122 76 q 94 483 69 296 q 146 713 114 619 q 229 865 178 807 q 356 950 281 924 q 538 976 432 976 m 531 867 q 373 831 433 867 q 278 710 313 796 q 222 475 243 625 q 213 246 203 329 q 272 127 224 163 q 415 92 321 92 q 571 128 511 92 q 667 249 631 164 q 724 483 703 335 q 735 717 746 633 q 674 833 724 800 q 531 867 625 867 m 379 1268 l 615 1064 l 572 1011 l 315 1185 l 379 1268 z "},"Ỏ":{"ha":925,"x_min":69,"x_max":876,"o":"m 538 976 q 748 928 669 976 q 851 769 826 879 q 850 475 876 660 q 799 241 832 336 q 715 89 765 146 q 590 7 664 32 q 413 -18 515 -18 q 201 29 281 -18 q 96 186 122 76 q 94 483 69 296 q 146 713 114 619 q 229 865 178 807 q 356 950 281 924 q 538 976 432 976 m 531 867 q 373 831 433 867 q 278 710 313 796 q 222 475 243 625 q 213 246 203 329 q 272 127 224 163 q 415 92 321 92 q 571 128 511 92 q 667 249 631 164 q 724 483 703 335 q 735 717 746 633 q 674 833 724 800 q 531 867 625 867 m 507 1089 q 588 1131 564 1100 q 611 1200 611 1161 q 587 1242 611 1233 q 518 1238 563 1251 l 515 1304 q 644 1304 594 1328 q 694 1215 694 1281 q 646 1094 694 1147 q 511 1031 597 1042 l 507 1089 z "},"Ơ":{"ha":938,"x_min":69,"x_max":1044,"o":"m 538 976 q 748 928 669 976 q 851 769 826 879 q 850 475 876 660 q 799 241 832 336 q 715 89 765 146 q 590 7 664 32 q 413 -18 515 -18 q 201 29 281 -18 q 96 186 122 76 q 94 483 69 296 q 146 713 114 619 q 229 865 178 807 q 356 950 281 924 q 538 976 432 976 m 531 867 q 373 831 433 867 q 278 710 313 796 q 222 475 243 625 q 213 246 203 329 q 272 127 224 163 q 415 92 321 92 q 571 128 511 92 q 667 249 631 164 q 724 483 703 335 q 735 717 746 633 q 674 833 724 800 q 531 867 625 867 m 800 804 l 804 863 q 907 908 867 867 q 961 1007 947 950 l 1044 990 q 994 891 1032 933 q 906 826 957 849 q 800 804 856 803 z "},"Ớ":{"ha":938,"x_min":69,"x_max":1044,"o":"m 538 976 q 748 928 669 976 q 851 769 826 879 q 850 475 876 660 q 799 241 832 336 q 715 89 765 146 q 590 7 664 32 q 413 -18 515 -18 q 201 29 281 -18 q 96 186 122 76 q 94 483 69 296 q 146 713 114 619 q 229 865 178 807 q 356 950 281 924 q 538 976 432 976 m 531 867 q 373 831 433 867 q 278 710 313 796 q 222 475 243 625 q 213 246 203 329 q 272 127 224 163 q 415 92 321 92 q 571 128 511 92 q 667 249 631 164 q 724 483 703 335 q 735 717 746 633 q 674 833 724 800 q 531 867 625 867 m 800 804 l 804 863 q 907 908 867 867 q 961 1007 947 950 l 1044 990 q 994 891 1032 933 q 906 826 957 849 q 800 804 856 803 m 724 1269 l 781 1178 l 493 1011 l 457 1065 l 724 1269 z "},"Ợ":{"ha":938,"x_min":69,"x_max":1044,"o":"m 538 976 q 748 928 669 976 q 851 769 826 879 q 850 475 876 660 q 799 241 832 336 q 715 89 765 146 q 590 7 664 32 q 413 -18 515 -18 q 201 29 281 -18 q 96 186 122 76 q 94 483 69 296 q 146 713 114 619 q 229 865 178 807 q 356 950 281 924 q 538 976 432 976 m 531 867 q 373 831 433 867 q 278 710 313 796 q 222 475 243 625 q 213 246 203 329 q 272 127 224 163 q 415 92 321 92 q 571 128 511 92 q 667 249 631 164 q 724 483 703 335 q 735 717 746 633 q 674 833 724 800 q 531 867 625 867 m 800 804 l 804 863 q 907 908 867 867 q 961 1007 947 950 l 1044 990 q 994 891 1032 933 q 906 826 957 849 q 800 804 856 803 m 421 -72 q 449 -82 439 -72 q 456 -110 458 -92 l 444 -189 q 407 -222 439 -222 l 368 -222 q 342 -212 351 -222 q 335 -185 333 -201 l 346 -106 q 356 -80 349 -87 q 382 -72 364 -72 l 421 -72 z "},"Ờ":{"ha":938,"x_min":69,"x_max":1044,"o":"m 538 976 q 748 928 669 976 q 851 769 826 879 q 850 475 876 660 q 799 241 832 336 q 715 89 765 146 q 590 7 664 32 q 413 -18 515 -18 q 201 29 281 -18 q 96 186 122 76 q 94 483 69 296 q 146 713 114 619 q 229 865 178 807 q 356 950 281 924 q 538 976 432 976 m 531 867 q 373 831 433 867 q 278 710 313 796 q 222 475 243 625 q 213 246 203 329 q 272 127 224 163 q 415 92 321 92 q 571 128 511 92 q 667 249 631 164 q 724 483 703 335 q 735 717 746 633 q 674 833 724 800 q 531 867 625 867 m 800 804 l 804 863 q 907 908 867 867 q 961 1007 947 950 l 1044 990 q 994 891 1032 933 q 906 826 957 849 q 800 804 856 803 m 379 1268 l 615 1064 l 572 1011 l 315 1185 l 379 1268 z "},"Ở":{"ha":938,"x_min":69,"x_max":1044,"o":"m 538 976 q 748 928 669 976 q 851 769 826 879 q 850 475 876 660 q 799 241 832 336 q 715 89 765 146 q 590 7 664 32 q 413 -18 515 -18 q 201 29 281 -18 q 96 186 122 76 q 94 483 69 296 q 146 713 114 619 q 229 865 178 807 q 356 950 281 924 q 538 976 432 976 m 531 867 q 373 831 433 867 q 278 710 313 796 q 222 475 243 625 q 213 246 203 329 q 272 127 224 163 q 415 92 321 92 q 571 128 511 92 q 667 249 631 164 q 724 483 703 335 q 735 717 746 633 q 674 833 724 800 q 531 867 625 867 m 800 804 l 804 863 q 907 908 867 867 q 961 1007 947 950 l 1044 990 q 994 891 1032 933 q 906 826 957 849 q 800 804 856 803 m 507 1089 q 588 1131 564 1100 q 611 1200 611 1161 q 587 1242 611 1233 q 518 1238 563 1251 l 515 1304 q 644 1304 594 1328 q 694 1215 694 1281 q 646 1094 694 1147 q 511 1031 597 1042 l 507 1089 z "},"Ỡ":{"ha":938,"x_min":69,"x_max":1044,"o":"m 538 976 q 748 928 669 976 q 851 769 826 879 q 850 475 876 660 q 799 241 832 336 q 715 89 765 146 q 590 7 664 32 q 413 -18 515 -18 q 201 29 281 -18 q 96 186 122 76 q 94 483 69 296 q 146 713 114 619 q 229 865 178 807 q 356 950 281 924 q 538 976 432 976 m 531 867 q 373 831 433 867 q 278 710 313 796 q 222 475 243 625 q 213 246 203 329 q 272 127 224 163 q 415 92 321 92 q 571 128 511 92 q 667 249 631 164 q 724 483 703 335 q 735 717 746 633 q 674 833 724 800 q 531 867 625 867 m 800 804 l 804 863 q 907 908 867 867 q 961 1007 947 950 l 1044 990 q 994 891 1032 933 q 906 826 957 849 q 800 804 856 803 m 453 1221 q 511 1208 486 1218 q 557 1183 536 1197 q 599 1158 578 1169 q 649 1144 621 1147 q 709 1158 690 1139 q 733 1217 728 1178 l 789 1213 q 751 1094 786 1133 q 665 1058 717 1054 q 602 1072 629 1061 q 553 1097 575 1083 q 512 1123 532 1111 q 468 1138 492 1135 q 409 1122 428 1142 q 383 1060 390 1101 l 329 1065 q 369 1187 332 1149 q 453 1221 406 1225 z "},"Ő":{"ha":925,"x_min":69,"x_max":876,"o":"m 538 976 q 748 928 669 976 q 851 769 826 879 q 850 475 876 660 q 799 241 832 336 q 715 89 765 146 q 590 7 664 32 q 413 -18 515 -18 q 201 29 281 -18 q 96 186 122 76 q 94 483 69 296 q 146 713 114 619 q 229 865 178 807 q 356 950 281 924 q 538 976 432 976 m 531 867 q 373 831 433 867 q 278 710 313 796 q 222 475 243 625 q 213 246 203 329 q 272 127 224 163 q 415 92 321 92 q 571 128 511 92 q 667 249 631 164 q 724 483 703 335 q 735 717 746 633 q 674 833 724 800 q 531 867 625 867 m 556 1276 l 628 1224 l 413 1003 l 363 1042 l 556 1276 m 783 1276 l 857 1224 l 640 1003 l 592 1042 l 783 1276 z "},"Ȏ":{"ha":925,"x_min":69,"x_max":876,"o":"m 538 976 q 748 928 669 976 q 851 769 826 879 q 850 475 876 660 q 799 241 832 336 q 715 89 765 146 q 590 7 664 32 q 413 -18 515 -18 q 201 29 281 -18 q 96 186 122 76 q 94 483 69 296 q 146 713 114 619 q 229 865 178 807 q 356 950 281 924 q 538 976 432 976 m 531 867 q 373 831 433 867 q 278 710 313 796 q 222 475 243 625 q 213 246 203 329 q 272 127 224 163 q 415 92 321 92 q 571 128 511 92 q 667 249 631 164 q 724 483 703 335 q 735 717 746 633 q 674 833 724 800 q 531 867 625 867 m 394 1035 l 333 1049 q 368 1143 339 1103 q 447 1206 397 1183 q 560 1229 496 1229 q 676 1206 629 1229 q 742 1140 722 1182 q 750 1044 761 1099 l 689 1040 q 661 1115 696 1089 q 561 1142 626 1142 q 444 1113 489 1142 q 394 1035 400 1085 z "},"Ō":{"ha":925,"x_min":69,"x_max":876,"o":"m 538 976 q 748 928 669 976 q 851 769 826 879 q 850 475 876 660 q 799 241 832 336 q 715 89 765 146 q 590 7 664 32 q 413 -18 515 -18 q 201 29 281 -18 q 96 186 122 76 q 94 483 69 296 q 146 713 114 619 q 229 865 178 807 q 356 950 281 924 q 538 976 432 976 m 531 867 q 373 831 433 867 q 278 710 313 796 q 222 475 243 625 q 213 246 203 329 q 272 127 224 163 q 415 92 321 92 q 571 128 511 92 q 667 249 631 164 q 724 483 703 335 q 735 717 746 633 q 674 833 724 800 q 531 867 625 867 m 757 1179 l 746 1092 l 358 1092 l 369 1179 l 757 1179 z "},"Ṓ":{"ha":925,"x_min":69,"x_max":876,"o":"m 538 976 q 748 928 669 976 q 851 769 826 879 q 850 475 876 660 q 799 241 832 336 q 715 89 765 146 q 590 7 664 32 q 413 -18 515 -18 q 201 29 281 -18 q 96 186 122 76 q 94 483 69 296 q 146 713 114 619 q 229 865 178 807 q 356 950 281 924 q 538 976 432 976 m 531 867 q 373 831 433 867 q 278 710 313 796 q 222 475 243 625 q 213 246 203 329 q 272 127 224 163 q 415 92 321 92 q 571 128 511 92 q 667 249 631 164 q 724 483 703 335 q 735 717 746 633 q 674 833 724 800 q 531 867 625 867 m 750 1138 l 738 1050 l 350 1050 l 363 1138 l 750 1138 m 640 1390 l 703 1314 l 506 1178 l 465 1224 l 640 1390 z "},"Ṑ":{"ha":925,"x_min":69,"x_max":876,"o":"m 538 976 q 748 928 669 976 q 851 769 826 879 q 850 475 876 660 q 799 241 832 336 q 715 89 765 146 q 590 7 664 32 q 413 -18 515 -18 q 201 29 281 -18 q 96 186 122 76 q 94 483 69 296 q 146 713 114 619 q 229 865 178 807 q 356 950 281 924 q 538 976 432 976 m 531 867 q 373 831 433 867 q 278 710 313 796 q 222 475 243 625 q 213 246 203 329 q 272 127 224 163 q 415 92 321 92 q 571 128 511 92 q 667 249 631 164 q 724 483 703 335 q 735 717 746 633 q 674 833 724 800 q 531 867 625 867 m 750 1138 l 738 1050 l 350 1050 l 363 1138 l 750 1138 m 474 1381 l 621 1221 l 576 1178 l 407 1311 l 474 1381 z "},"Ǫ":{"ha":925,"x_min":69,"x_max":876,"o":"m 538 976 q 748 928 669 976 q 851 769 826 879 q 850 475 876 660 q 799 241 832 336 q 715 89 765 146 q 590 7 664 32 q 413 -18 515 -18 q 201 29 281 -18 q 96 186 122 76 q 94 483 69 296 q 146 713 114 619 q 229 865 178 807 q 356 950 281 924 q 538 976 432 976 m 531 867 q 373 831 433 867 q 278 710 313 796 q 222 475 243 625 q 213 246 203 329 q 272 127 224 163 q 415 92 321 92 q 571 128 511 92 q 667 249 631 164 q 724 483 703 335 q 735 717 746 633 q 674 833 724 800 q 531 867 625 867 m 396 10 l 451 6 q 387 -69 417 -31 q 329 -157 357 -108 q 328 -221 301 -207 q 422 -212 354 -235 l 438 -264 q 322 -291 368 -290 q 251 -272 275 -292 q 226 -222 228 -253 q 242 -153 224 -190 q 296 -78 260 -119 q 396 10 332 -37 z "},"Ø":{"ha":925,"x_min":69,"x_max":876,"o":"m 778 1046 l 836 1013 l 171 -83 l 114 -49 l 778 1046 m 538 976 q 748 928 669 976 q 851 769 826 879 q 850 475 876 660 q 799 241 832 336 q 715 89 765 146 q 590 7 664 32 q 413 -18 515 -18 q 201 29 281 -18 q 96 186 122 76 q 94 483 69 296 q 146 713 114 619 q 229 865 178 807 q 356 950 281 924 q 538 976 432 976 m 531 867 q 373 831 433 867 q 278 710 313 796 q 222 475 243 625 q 213 246 203 329 q 272 127 224 163 q 415 92 321 92 q 571 128 511 92 q 667 249 631 164 q 724 483 703 335 q 735 717 746 633 q 674 833 724 800 q 531 867 625 867 z "},"Ǿ":{"ha":925,"x_min":69,"x_max":876,"o":"m 778 1046 l 836 1013 l 171 -83 l 114 -49 l 778 1046 m 538 976 q 748 928 669 976 q 851 769 826 879 q 850 475 876 660 q 799 241 832 336 q 715 89 765 146 q 590 7 664 32 q 413 -18 515 -18 q 201 29 281 -18 q 96 186 122 76 q 94 483 69 296 q 146 713 114 619 q 229 865 178 807 q 356 950 281 924 q 538 976 432 976 m 531 867 q 373 831 433 867 q 278 710 313 796 q 222 475 243 625 q 213 246 203 329 q 272 127 224 163 q 415 92 321 92 q 571 128 511 92 q 667 249 631 164 q 724 483 703 335 q 735 717 746 633 q 674 833 724 800 q 531 867 625 867 m 724 1269 l 781 1178 l 493 1011 l 457 1065 l 724 1269 z "},"Õ":{"ha":925,"x_min":69,"x_max":876,"o":"m 538 976 q 748 928 669 976 q 851 769 826 879 q 850 475 876 660 q 799 241 832 336 q 715 89 765 146 q 590 7 664 32 q 413 -18 515 -18 q 201 29 281 -18 q 96 186 122 76 q 94 483 69 296 q 146 713 114 619 q 229 865 178 807 q 356 950 281 924 q 538 976 432 976 m 531 867 q 373 831 433 867 q 278 710 313 796 q 222 475 243 625 q 213 246 203 329 q 272 127 224 163 q 415 92 321 92 q 571 128 511 92 q 667 249 631 164 q 724 483 703 335 q 735 717 746 633 q 674 833 724 800 q 531 867 625 867 m 454 1221 q 512 1208 488 1218 q 557 1183 536 1197 q 599 1158 578 1169 q 649 1144 621 1147 q 709 1158 690 1139 q 733 1217 728 1178 l 789 1213 q 752 1094 788 1133 q 665 1058 717 1054 q 603 1072 629 1061 q 554 1097 576 1083 q 512 1123 532 1111 q 468 1138 492 1135 q 409 1122 428 1142 q 385 1060 390 1101 l 329 1065 q 369 1187 332 1149 q 454 1221 406 1225 z "},"Ṍ":{"ha":925,"x_min":69,"x_max":876,"o":"m 538 976 q 748 928 669 976 q 851 769 826 879 q 850 475 876 660 q 799 241 832 336 q 715 89 765 146 q 590 7 664 32 q 413 -18 515 -18 q 201 29 281 -18 q 96 186 122 76 q 94 483 69 296 q 146 713 114 619 q 229 865 178 807 q 356 950 281 924 q 538 976 432 976 m 531 867 q 373 831 433 867 q 278 710 313 796 q 222 475 243 625 q 213 246 203 329 q 272 127 224 163 q 415 92 321 92 q 571 128 511 92 q 667 249 631 164 q 724 483 703 335 q 735 717 746 633 q 674 833 724 800 q 531 867 625 867 m 449 1193 q 506 1180 482 1190 q 551 1156 531 1169 q 594 1131 572 1142 q 644 1117 617 1119 q 705 1131 686 1111 q 729 1189 724 1150 l 783 1185 q 747 1067 782 1106 q 661 1031 713 1028 q 598 1045 625 1033 q 549 1071 571 1057 q 506 1096 526 1085 q 463 1110 486 1107 q 403 1094 422 1114 q 379 1032 385 1074 l 324 1038 q 364 1159 328 1121 q 449 1193 400 1197 m 660 1431 l 721 1354 l 524 1219 l 485 1265 l 660 1431 z "},"Ṏ":{"ha":925,"x_min":69,"x_max":876,"o":"m 538 976 q 748 928 669 976 q 851 769 826 879 q 850 475 876 660 q 799 241 832 336 q 715 89 765 146 q 590 7 664 32 q 413 -18 515 -18 q 201 29 281 -18 q 96 186 122 76 q 94 483 69 296 q 146 713 114 619 q 229 865 178 807 q 356 950 281 924 q 538 976 432 976 m 531 867 q 373 831 433 867 q 278 710 313 796 q 222 475 243 625 q 213 246 203 329 q 272 127 224 163 q 415 92 321 92 q 571 128 511 92 q 667 249 631 164 q 724 483 703 335 q 735 717 746 633 q 674 833 724 800 q 531 867 625 867 m 450 1193 q 508 1180 483 1190 q 553 1156 532 1169 q 595 1131 574 1142 q 644 1117 617 1119 q 705 1131 686 1111 q 729 1189 724 1150 l 785 1185 q 748 1067 783 1106 q 661 1031 713 1028 q 599 1045 625 1033 q 550 1071 572 1057 q 508 1096 528 1085 q 464 1110 488 1107 q 405 1094 424 1114 q 381 1032 386 1074 l 325 1038 q 365 1159 328 1121 q 450 1193 401 1197 m 497 1394 q 522 1387 517 1394 q 525 1364 528 1379 l 514 1294 q 504 1272 513 1279 q 481 1265 496 1265 l 446 1265 q 418 1293 414 1265 l 429 1364 q 464 1394 433 1394 l 497 1394 m 710 1394 q 739 1364 743 1394 l 728 1294 q 694 1265 724 1265 l 660 1265 q 631 1293 626 1265 l 642 1364 q 678 1394 647 1394 l 710 1394 z "},"Ȭ":{"ha":925,"x_min":69,"x_max":876,"o":"m 538 976 q 748 928 669 976 q 851 769 826 879 q 850 475 876 660 q 799 241 832 336 q 715 89 765 146 q 590 7 664 32 q 413 -18 515 -18 q 201 29 281 -18 q 96 186 122 76 q 94 483 69 296 q 146 713 114 619 q 229 865 178 807 q 356 950 281 924 q 538 976 432 976 m 531 867 q 373 831 433 867 q 278 710 313 796 q 222 475 243 625 q 213 246 203 329 q 272 127 224 163 q 415 92 321 92 q 571 128 511 92 q 667 249 631 164 q 724 483 703 335 q 735 717 746 633 q 674 833 724 800 q 531 867 625 867 m 450 1193 q 508 1180 483 1190 q 553 1156 532 1169 q 595 1131 574 1142 q 644 1117 617 1119 q 705 1131 686 1111 q 729 1189 724 1150 l 785 1185 q 748 1067 783 1106 q 661 1031 713 1028 q 599 1045 625 1033 q 550 1071 572 1057 q 508 1096 528 1085 q 464 1110 488 1107 q 405 1094 424 1114 q 381 1032 386 1074 l 325 1038 q 365 1159 328 1121 q 450 1193 401 1197 m 760 1351 l 749 1271 l 396 1271 l 407 1351 l 760 1351 z "},"Œ":{"ha":1276,"x_min":75,"x_max":1281,"o":"m 538 976 q 667 965 615 976 q 775 928 718 954 l 722 838 q 639 859 679 851 q 538 867 599 867 q 378 831 440 867 q 279 710 315 796 q 222 475 243 625 q 212 246 201 329 q 272 127 222 163 q 415 92 321 92 q 497 96 464 92 q 557 108 529 100 q 618 125 585 115 l 656 36 q 578 5 614 17 q 504 -12 543 -7 q 413 -18 465 -18 q 235 8 306 -18 q 126 91 164 33 q 82 245 89 149 q 94 483 75 342 q 147 719 114 624 q 231 870 179 814 q 357 951 282 926 q 538 976 432 976 m 665 554 l 1168 553 l 1156 457 l 651 457 l 665 554 m 875 960 q 1014 960 944 960 q 1151 958 1083 960 q 1281 951 1218 956 l 1265 856 l 890 856 q 822 833 846 856 q 792 761 799 811 l 714 193 q 725 124 707 146 q 790 103 743 103 l 1158 103 l 1156 7 q 1031 1 1096 3 q 902 -1 967 0 q 775 -1 838 -1 q 661 22 706 -1 q 599 89 617 46 q 589 190 581 132 l 674 796 q 737 917 685 874 q 875 960 789 960 z "},"P":{"ha":817,"x_min":63,"x_max":810,"o":"m 522 971 q 699 942 633 971 q 787 846 764 913 q 793 667 810 779 q 738 481 776 544 q 632 394 700 417 q 454 371 564 371 q 350 374 401 371 q 255 383 299 378 q 180 393 211 388 q 136 403 149 399 l 144 476 q 297 476 218 476 q 450 476 375 476 q 570 494 526 476 q 638 554 614 511 q 672 676 661 597 q 672 794 683 753 q 622 850 660 835 q 518 865 585 865 q 319 864 403 865 q 207 860 236 863 l 197 958 q 296 967 250 964 q 394 970 342 969 q 522 971 447 971 m 319 958 l 185 0 l 63 0 l 197 958 l 319 958 z "},"Þ":{"ha":818,"x_min":63,"x_max":785,"o":"m 497 788 q 669 760 603 788 q 760 667 735 733 q 767 481 785 600 q 713 297 750 363 q 608 207 675 232 q 439 182 542 182 q 291 188 360 182 q 174 200 222 193 q 110 213 126 207 l 118 288 q 271 288 192 288 q 424 288 350 288 q 540 306 496 289 q 610 366 585 322 q 646 490 635 410 q 647 610 657 568 q 599 667 636 651 q 493 683 563 683 q 295 682 378 683 q 182 678 213 681 l 172 776 q 272 784 226 782 q 369 787 317 786 q 497 788 422 788 m 319 958 l 185 0 l 63 0 l 197 958 l 319 958 z "},"Q":{"ha":925,"x_min":69,"x_max":876,"o":"m 538 976 q 748 928 669 976 q 851 769 826 879 q 850 475 876 660 q 799 241 832 336 q 715 89 765 146 q 590 7 664 32 q 413 -18 515 -18 q 201 29 281 -18 q 96 186 122 76 q 94 483 69 296 q 146 713 114 619 q 229 865 178 807 q 356 950 281 924 q 538 976 432 976 m 336 -61 q 503 -126 414 -100 q 693 -168 592 -153 l 644 -290 q 448 -224 536 -265 q 289 -133 360 -183 l 336 -61 m 531 867 q 373 831 433 867 q 278 710 313 796 q 222 475 243 625 q 213 246 203 329 q 272 127 224 163 q 415 92 321 92 q 571 128 511 92 q 667 249 631 164 q 724 483 703 335 q 735 717 746 633 q 674 833 724 800 q 531 867 625 867 z "},"R":{"ha":858,"x_min":63,"x_max":815,"o":"m 522 971 q 689 946 622 971 q 785 860 756 921 q 800 689 815 799 q 765 565 790 617 q 697 485 740 514 q 586 447 653 456 l 585 440 q 631 415 611 433 q 665 369 651 397 q 686 300 679 340 l 747 0 l 622 0 l 565 303 q 529 378 556 357 q 457 400 503 400 q 308 402 369 401 q 205 403 246 403 q 136 404 164 404 l 151 506 l 458 506 q 573 524 529 507 q 642 581 617 540 q 676 693 667 621 q 675 797 686 760 q 626 850 664 835 q 519 865 589 865 q 319 864 401 865 q 207 863 236 863 l 197 958 q 298 967 250 964 q 399 970 346 969 q 522 971 453 971 m 317 958 l 182 0 l 63 0 l 197 958 l 317 958 z "},"Ŕ":{"ha":858,"x_min":63,"x_max":815,"o":"m 522 971 q 689 946 622 971 q 785 860 756 921 q 800 689 815 799 q 765 565 790 617 q 697 485 740 514 q 586 447 653 456 l 585 440 q 631 415 611 433 q 665 369 651 397 q 686 300 679 340 l 747 0 l 622 0 l 565 303 q 529 378 556 357 q 457 400 503 400 q 308 402 369 401 q 205 403 246 403 q 136 404 164 404 l 151 506 l 458 506 q 573 524 529 507 q 642 581 617 540 q 676 693 667 621 q 675 797 686 760 q 626 850 664 835 q 519 865 589 865 q 319 864 401 865 q 207 863 236 863 l 197 958 q 298 967 250 964 q 399 970 346 969 q 522 971 453 971 m 317 958 l 182 0 l 63 0 l 197 958 l 317 958 m 701 1269 l 758 1178 l 471 1011 l 435 1065 l 701 1269 z "},"Ř":{"ha":858,"x_min":63,"x_max":815,"o":"m 522 971 q 689 946 622 971 q 785 860 756 921 q 800 689 815 799 q 765 565 790 617 q 697 485 740 514 q 586 447 653 456 l 585 440 q 631 415 611 433 q 665 369 651 397 q 686 300 679 340 l 747 0 l 622 0 l 565 303 q 529 378 556 357 q 457 400 503 400 q 308 402 369 401 q 205 403 246 403 q 136 404 164 404 l 151 506 l 458 506 q 573 524 529 507 q 642 581 617 540 q 676 693 667 621 q 675 797 686 760 q 626 850 664 835 q 519 865 589 865 q 319 864 401 865 q 207 863 236 863 l 197 958 q 298 967 250 964 q 399 970 346 969 q 522 971 453 971 m 317 958 l 182 0 l 63 0 l 197 958 l 317 958 m 740 1260 l 778 1210 l 569 1032 l 483 1032 l 321 1217 l 369 1260 l 526 1122 l 538 1122 l 740 1260 z "},"Ŗ":{"ha":858,"x_min":63,"x_max":815,"o":"m 439 -82 q 468 -91 460 -82 q 472 -121 476 -100 l 461 -197 q 447 -258 457 -226 q 422 -322 436 -290 q 390 -381 407 -353 l 338 -362 q 360 -294 350 -326 q 379 -219 371 -262 q 353 -212 361 -222 q 346 -187 344 -203 l 356 -118 q 370 -90 361 -97 q 406 -82 379 -82 l 439 -82 m 522 971 q 689 946 622 971 q 785 860 756 921 q 800 689 815 799 q 765 565 790 617 q 697 485 740 514 q 586 447 653 456 l 585 440 q 631 415 611 433 q 665 369 651 397 q 686 300 679 340 l 747 0 l 622 0 l 565 303 q 529 378 556 357 q 457 400 503 400 q 308 402 369 401 q 205 403 246 403 q 136 404 164 404 l 151 506 l 458 506 q 573 524 529 507 q 642 581 617 540 q 676 693 667 621 q 675 797 686 760 q 626 850 664 835 q 519 865 589 865 q 319 864 401 865 q 207 863 236 863 l 197 958 q 298 967 250 964 q 399 970 346 969 q 522 971 453 971 m 317 958 l 182 0 l 63 0 l 197 958 l 317 958 z "},"Ȑ":{"ha":858,"x_min":63,"x_max":815,"o":"m 522 971 q 689 946 622 971 q 785 860 756 921 q 800 689 815 799 q 765 565 790 617 q 697 485 740 514 q 586 447 653 456 l 585 440 q 631 415 611 433 q 665 369 651 397 q 686 300 679 340 l 747 0 l 622 0 l 565 303 q 529 378 556 357 q 457 400 503 400 q 308 402 369 401 q 205 403 246 403 q 136 404 164 404 l 151 506 l 458 506 q 573 524 529 507 q 642 581 617 540 q 676 693 667 621 q 675 797 686 760 q 626 850 664 835 q 519 865 589 865 q 319 864 401 865 q 207 863 236 863 l 197 958 q 298 967 250 964 q 399 970 346 969 q 522 971 453 971 m 317 958 l 182 0 l 63 0 l 197 958 l 317 958 m 508 1276 l 701 1042 l 651 1003 l 436 1224 l 508 1276 m 281 1276 l 472 1042 l 424 1003 l 208 1224 l 281 1276 z "},"Ṛ":{"ha":858,"x_min":63,"x_max":815,"o":"m 522 971 q 689 946 622 971 q 785 860 756 921 q 800 689 815 799 q 765 565 790 617 q 697 485 740 514 q 586 447 653 456 l 585 440 q 631 415 611 433 q 665 369 651 397 q 686 300 679 340 l 747 0 l 622 0 l 565 303 q 529 378 556 357 q 457 400 503 400 q 308 402 369 401 q 205 403 246 403 q 136 404 164 404 l 151 506 l 458 506 q 573 524 529 507 q 642 581 617 540 q 676 693 667 621 q 675 797 686 760 q 626 850 664 835 q 519 865 589 865 q 319 864 401 865 q 207 863 236 863 l 197 958 q 298 967 250 964 q 399 970 346 969 q 522 971 453 971 m 317 958 l 182 0 l 63 0 l 197 958 l 317 958 m 399 -72 q 426 -82 417 -72 q 433 -110 436 -92 l 422 -189 q 385 -222 417 -222 l 346 -222 q 320 -212 329 -222 q 313 -185 311 -201 l 324 -106 q 334 -80 326 -87 q 360 -72 342 -72 l 399 -72 z "},"Ȓ":{"ha":858,"x_min":63,"x_max":815,"o":"m 522 971 q 689 946 622 971 q 785 860 756 921 q 800 689 815 799 q 765 565 790 617 q 697 485 740 514 q 586 447 653 456 l 585 440 q 631 415 611 433 q 665 369 651 397 q 686 300 679 340 l 747 0 l 622 0 l 565 303 q 529 378 556 357 q 457 400 503 400 q 308 402 369 401 q 205 403 246 403 q 136 404 164 404 l 151 506 l 458 506 q 573 524 529 507 q 642 581 617 540 q 676 693 667 621 q 675 797 686 760 q 626 850 664 835 q 519 865 589 865 q 319 864 401 865 q 207 863 236 863 l 197 958 q 298 967 250 964 q 399 970 346 969 q 522 971 453 971 m 317 958 l 182 0 l 63 0 l 197 958 l 317 958 m 374 1035 l 313 1049 q 347 1143 318 1103 q 426 1206 376 1183 q 539 1229 475 1229 q 655 1206 608 1229 q 721 1140 701 1182 q 729 1044 740 1099 l 668 1040 q 640 1115 675 1089 q 540 1142 606 1142 q 424 1113 468 1142 q 374 1035 379 1085 z "},"Ṟ":{"ha":858,"x_min":63,"x_max":815,"o":"m 522 971 q 689 946 622 971 q 785 860 756 921 q 800 689 815 799 q 765 565 790 617 q 697 485 740 514 q 586 447 653 456 l 585 440 q 631 415 611 433 q 665 369 651 397 q 686 300 679 340 l 747 0 l 622 0 l 565 303 q 529 378 556 357 q 457 400 503 400 q 308 402 369 401 q 205 403 246 403 q 136 404 164 404 l 151 506 l 458 506 q 573 524 529 507 q 642 581 617 540 q 676 693 667 621 q 675 797 686 760 q 626 850 664 835 q 519 865 589 865 q 319 864 401 865 q 207 863 236 863 l 197 958 q 298 967 250 964 q 399 970 346 969 q 522 971 453 971 m 317 958 l 182 0 l 63 0 l 197 958 l 317 958 m 569 -108 l 557 -196 l 169 -196 l 182 -108 l 569 -108 z "},"S":{"ha":778,"x_min":36,"x_max":743,"o":"m 460 975 q 602 968 529 974 q 743 947 675 963 l 731 858 q 638 863 683 861 q 549 865 593 864 q 457 865 504 865 q 373 863 410 865 q 310 849 336 861 q 267 806 283 836 q 243 722 250 776 q 244 647 238 675 q 273 603 250 619 q 339 571 296 588 l 526 501 q 636 440 599 475 q 684 353 674 404 q 685 232 694 303 q 630 74 671 128 q 515 2 589 21 q 328 -17 442 -17 q 208 -12 285 -17 q 36 10 132 -8 l 51 100 q 183 95 133 97 q 267 93 233 93 q 329 93 300 93 q 456 103 408 93 q 529 146 504 114 q 563 244 554 178 q 563 322 569 294 q 533 365 556 349 q 467 397 510 382 l 276 468 q 172 530 210 493 q 124 617 135 567 q 121 735 113 668 q 159 863 132 815 q 229 935 186 911 q 330 967 272 960 q 460 975 388 975 z "},"Ś":{"ha":778,"x_min":36,"x_max":743,"o":"m 460 975 q 602 968 529 974 q 743 947 675 963 l 731 858 q 638 863 683 861 q 549 865 593 864 q 457 865 504 865 q 373 863 410 865 q 310 849 336 861 q 267 806 283 836 q 243 722 250 776 q 244 647 238 675 q 273 603 250 619 q 339 571 296 588 l 526 501 q 636 440 599 475 q 684 353 674 404 q 685 232 694 303 q 630 74 671 128 q 515 2 589 21 q 328 -17 442 -17 q 208 -12 285 -17 q 36 10 132 -8 l 51 100 q 183 95 133 97 q 267 93 233 93 q 329 93 300 93 q 456 103 408 93 q 529 146 504 114 q 563 244 554 178 q 563 322 569 294 q 533 365 556 349 q 467 397 510 382 l 276 468 q 172 530 210 493 q 124 617 135 567 q 121 735 113 668 q 159 863 132 815 q 229 935 186 911 q 330 967 272 960 q 460 975 388 975 m 647 1269 l 704 1178 l 417 1011 l 381 1065 l 647 1269 z "},"Ṥ":{"ha":778,"x_min":36,"x_max":743,"o":"m 460 975 q 602 968 529 974 q 743 947 675 963 l 731 858 q 638 863 683 861 q 549 865 593 864 q 457 865 504 865 q 373 863 410 865 q 310 849 336 861 q 267 806 283 836 q 243 722 250 776 q 244 647 238 675 q 273 603 250 619 q 339 571 296 588 l 526 501 q 636 440 599 475 q 684 353 674 404 q 685 232 694 303 q 630 74 671 128 q 515 2 589 21 q 328 -17 442 -17 q 208 -12 285 -17 q 36 10 132 -8 l 51 100 q 183 95 133 97 q 267 93 233 93 q 329 93 300 93 q 456 103 408 93 q 529 146 504 114 q 563 244 554 178 q 563 322 569 294 q 533 365 556 349 q 467 397 510 382 l 276 468 q 172 530 210 493 q 124 617 135 567 q 121 735 113 668 q 159 863 132 815 q 229 935 186 911 q 330 967 272 960 q 460 975 388 975 m 539 1406 q 563 1397 554 1406 q 569 1371 572 1388 l 560 1299 q 526 1268 554 1268 l 492 1268 q 460 1303 456 1268 l 469 1375 q 480 1398 472 1390 q 504 1406 488 1406 l 539 1406 m 596 1249 l 649 1167 l 401 1028 l 368 1078 l 596 1249 z "},"Š":{"ha":778,"x_min":36,"x_max":743,"o":"m 460 975 q 602 968 529 974 q 743 947 675 963 l 731 858 q 638 863 683 861 q 549 865 593 864 q 457 865 504 865 q 373 863 410 865 q 310 849 336 861 q 267 806 283 836 q 243 722 250 776 q 244 647 238 675 q 273 603 250 619 q 339 571 296 588 l 526 501 q 636 440 599 475 q 684 353 674 404 q 685 232 694 303 q 630 74 671 128 q 515 2 589 21 q 328 -17 442 -17 q 208 -12 285 -17 q 36 10 132 -8 l 51 100 q 183 95 133 97 q 267 93 233 93 q 329 93 300 93 q 456 103 408 93 q 529 146 504 114 q 563 244 554 178 q 563 322 569 294 q 533 365 556 349 q 467 397 510 382 l 276 468 q 172 530 210 493 q 124 617 135 567 q 121 735 113 668 q 159 863 132 815 q 229 935 186 911 q 330 967 272 960 q 460 975 388 975 m 686 1260 l 724 1210 l 515 1032 l 429 1032 l 267 1217 l 315 1260 l 472 1122 l 483 1122 l 686 1260 z "},"Ṧ":{"ha":778,"x_min":36,"x_max":743,"o":"m 460 975 q 602 968 529 974 q 743 947 675 963 l 731 858 q 638 863 683 861 q 549 865 593 864 q 457 865 504 865 q 373 863 410 865 q 310 849 336 861 q 267 806 283 836 q 243 722 250 776 q 244 647 238 675 q 273 603 250 619 q 339 571 296 588 l 526 501 q 636 440 599 475 q 684 353 674 404 q 685 232 694 303 q 630 74 671 128 q 515 2 589 21 q 328 -17 442 -17 q 208 -12 285 -17 q 36 10 132 -8 l 51 100 q 183 95 133 97 q 267 93 233 93 q 329 93 300 93 q 456 103 408 93 q 529 146 504 114 q 563 244 554 178 q 563 322 569 294 q 533 365 556 349 q 467 397 510 382 l 276 468 q 172 530 210 493 q 124 617 135 567 q 121 735 113 668 q 159 863 132 815 q 229 935 186 911 q 330 967 272 960 q 460 975 388 975 m 667 1246 l 703 1196 l 515 1032 l 429 1032 l 281 1201 l 329 1246 l 472 1122 l 483 1122 l 667 1246 m 531 1439 q 555 1430 546 1439 q 561 1404 564 1421 l 551 1333 q 518 1303 546 1303 l 483 1303 q 451 1338 447 1303 l 461 1408 q 472 1431 464 1424 q 496 1439 479 1439 l 531 1439 z "},"Ş":{"ha":778,"x_min":36,"x_max":743,"o":"m 460 975 q 602 968 529 974 q 743 947 675 963 l 731 858 q 638 863 683 861 q 549 865 593 864 q 457 865 504 865 q 373 863 410 865 q 310 849 336 861 q 267 806 283 836 q 243 722 250 776 q 244 647 238 675 q 273 603 250 619 q 339 571 296 588 l 526 501 q 636 440 599 475 q 684 353 674 404 q 685 232 694 303 q 630 74 671 128 q 515 2 589 21 q 328 -17 442 -17 q 208 -12 285 -17 q 36 10 132 -8 l 51 100 q 183 95 133 97 q 267 93 233 93 q 329 93 300 93 q 456 103 408 93 q 529 146 504 114 q 563 244 554 178 q 563 322 569 294 q 533 365 556 349 q 467 397 510 382 l 276 468 q 172 530 210 493 q 124 617 135 567 q 121 735 113 668 q 159 863 132 815 q 229 935 186 911 q 330 967 272 960 q 460 975 388 975 m 261 -60 q 350 -60 315 -54 q 399 -89 385 -67 q 406 -156 414 -111 q 362 -252 397 -212 q 272 -309 326 -292 q 153 -318 218 -326 l 175 -256 q 273 -228 232 -257 q 321 -154 314 -199 q 311 -124 325 -131 q 247 -115 297 -117 l 261 -60 z "},"Ŝ":{"ha":778,"x_min":36,"x_max":743,"o":"m 460 975 q 602 968 529 974 q 743 947 675 963 l 731 858 q 638 863 683 861 q 549 865 593 864 q 457 865 504 865 q 373 863 410 865 q 310 849 336 861 q 267 806 283 836 q 243 722 250 776 q 244 647 238 675 q 273 603 250 619 q 339 571 296 588 l 526 501 q 636 440 599 475 q 684 353 674 404 q 685 232 694 303 q 630 74 671 128 q 515 2 589 21 q 328 -17 442 -17 q 208 -12 285 -17 q 36 10 132 -8 l 51 100 q 183 95 133 97 q 267 93 233 93 q 329 93 300 93 q 456 103 408 93 q 529 146 504 114 q 563 244 554 178 q 563 322 569 294 q 533 365 556 349 q 467 397 510 382 l 276 468 q 172 530 210 493 q 124 617 135 567 q 121 735 113 668 q 159 863 132 815 q 229 935 186 911 q 330 967 272 960 q 460 975 388 975 m 538 1244 l 710 1060 l 665 1014 l 500 1154 l 489 1154 l 282 1015 l 247 1068 l 454 1244 l 538 1244 z "},"Ș":{"ha":778,"x_min":36,"x_max":743,"o":"m 378 -82 q 407 -91 399 -82 q 411 -121 415 -100 l 400 -197 q 385 -258 396 -226 q 360 -322 375 -290 q 329 -381 346 -353 l 276 -362 q 299 -294 289 -326 q 318 -219 310 -262 q 292 -212 300 -222 q 285 -187 283 -203 l 294 -118 q 309 -90 300 -97 q 344 -82 318 -82 l 378 -82 m 460 975 q 602 968 529 974 q 743 947 675 963 l 731 858 q 638 863 683 861 q 549 865 593 864 q 457 865 504 865 q 373 863 410 865 q 310 849 336 861 q 267 806 283 836 q 243 722 250 776 q 244 647 238 675 q 273 603 250 619 q 339 571 296 588 l 526 501 q 636 440 599 475 q 684 353 674 404 q 685 232 694 303 q 630 74 671 128 q 515 2 589 21 q 328 -17 442 -17 q 208 -12 285 -17 q 36 10 132 -8 l 51 100 q 183 95 133 97 q 267 93 233 93 q 329 93 300 93 q 456 103 408 93 q 529 146 504 114 q 563 244 554 178 q 563 322 569 294 q 533 365 556 349 q 467 397 510 382 l 276 468 q 172 530 210 493 q 124 617 135 567 q 121 735 113 668 q 159 863 132 815 q 229 935 186 911 q 330 967 272 960 q 460 975 388 975 z "},"Ṡ":{"ha":778,"x_min":36,"x_max":743,"o":"m 460 975 q 602 968 529 974 q 743 947 675 963 l 731 858 q 638 863 683 861 q 549 865 593 864 q 457 865 504 865 q 373 863 410 865 q 310 849 336 861 q 267 806 283 836 q 243 722 250 776 q 244 647 238 675 q 273 603 250 619 q 339 571 296 588 l 526 501 q 636 440 599 475 q 684 353 674 404 q 685 232 694 303 q 630 74 671 128 q 515 2 589 21 q 328 -17 442 -17 q 208 -12 285 -17 q 36 10 132 -8 l 51 100 q 183 95 133 97 q 267 93 233 93 q 329 93 300 93 q 456 103 408 93 q 529 146 504 114 q 563 244 554 178 q 563 322 569 294 q 533 365 556 349 q 467 397 510 382 l 276 468 q 172 530 210 493 q 124 617 135 567 q 121 735 113 668 q 159 863 132 815 q 229 935 186 911 q 330 967 272 960 q 460 975 388 975 m 508 1204 q 536 1194 526 1204 q 543 1167 546 1185 l 532 1089 q 494 1054 528 1054 l 457 1054 q 430 1065 439 1054 q 424 1092 421 1075 l 433 1171 q 444 1197 436 1189 q 471 1204 453 1204 l 508 1204 z "},"Ṣ":{"ha":778,"x_min":36,"x_max":743,"o":"m 460 975 q 602 968 529 974 q 743 947 675 963 l 731 858 q 638 863 683 861 q 549 865 593 864 q 457 865 504 865 q 373 863 410 865 q 310 849 336 861 q 267 806 283 836 q 243 722 250 776 q 244 647 238 675 q 273 603 250 619 q 339 571 296 588 l 526 501 q 636 440 599 475 q 684 353 674 404 q 685 232 694 303 q 630 74 671 128 q 515 2 589 21 q 328 -17 442 -17 q 208 -12 285 -17 q 36 10 132 -8 l 51 100 q 183 95 133 97 q 267 93 233 93 q 329 93 300 93 q 456 103 408 93 q 529 146 504 114 q 563 244 554 178 q 563 322 569 294 q 533 365 556 349 q 467 397 510 382 l 276 468 q 172 530 210 493 q 124 617 135 567 q 121 735 113 668 q 159 863 132 815 q 229 935 186 911 q 330 967 272 960 q 460 975 388 975 m 344 -72 q 372 -82 363 -72 q 379 -110 382 -92 l 368 -189 q 331 -222 363 -222 l 292 -222 q 266 -212 275 -222 q 258 -185 257 -201 l 269 -106 q 280 -80 272 -87 q 306 -72 288 -72 l 344 -72 z "},"Ṩ":{"ha":778,"x_min":36,"x_max":743,"o":"m 460 975 q 602 968 529 974 q 743 947 675 963 l 731 858 q 638 863 683 861 q 549 865 593 864 q 457 865 504 865 q 373 863 410 865 q 310 849 336 861 q 267 806 283 836 q 243 722 250 776 q 244 647 238 675 q 273 603 250 619 q 339 571 296 588 l 526 501 q 636 440 599 475 q 684 353 674 404 q 685 232 694 303 q 630 74 671 128 q 515 2 589 21 q 328 -17 442 -17 q 208 -12 285 -17 q 36 10 132 -8 l 51 100 q 183 95 133 97 q 267 93 233 93 q 329 93 300 93 q 456 103 408 93 q 529 146 504 114 q 563 244 554 178 q 563 322 569 294 q 533 365 556 349 q 467 397 510 382 l 276 468 q 172 530 210 493 q 124 617 135 567 q 121 735 113 668 q 159 863 132 815 q 229 935 186 911 q 330 967 272 960 q 460 975 388 975 m 344 -72 q 372 -82 363 -72 q 379 -110 382 -92 l 368 -189 q 331 -222 363 -222 l 292 -222 q 266 -212 275 -222 q 258 -185 257 -201 l 269 -106 q 280 -80 272 -87 q 306 -72 288 -72 l 344 -72 m 508 1204 q 536 1194 526 1204 q 543 1167 546 1185 l 532 1089 q 494 1054 528 1054 l 457 1054 q 430 1065 439 1054 q 424 1092 421 1075 l 433 1171 q 444 1197 436 1189 q 471 1204 453 1204 l 508 1204 z "},"ẞ":{"ha":882,"x_min":60,"x_max":868,"o":"m 372 960 q 484 960 424 960 q 609 959 544 960 q 737 956 674 958 q 858 950 800 954 l 840 856 l 399 856 q 321 835 346 856 q 289 761 296 815 l 182 0 l 60 0 l 169 790 q 235 916 182 872 q 372 960 288 960 m 251 7 l 268 101 q 385 90 329 93 q 499 92 440 88 q 619 122 571 97 q 695 188 668 146 q 732 285 722 229 q 734 349 738 319 q 715 399 731 378 q 669 431 699 419 q 590 444 639 443 l 428 447 l 440 526 l 700 856 l 840 856 l 636 596 q 574 539 607 561 l 574 535 l 635 539 q 772 508 718 540 q 847 414 826 476 q 851 263 868 351 q 804 129 839 192 q 699 27 769 67 q 507 -18 628 -12 q 385 -14 450 -19 q 251 7 321 -8 z "},"Ə":{"ha":889,"x_min":60,"x_max":842,"o":"m 378 -18 q 182 20 254 -18 q 85 128 110 58 q 76 292 60 197 q 132 435 92 382 q 242 514 172 488 q 411 550 311 540 l 778 590 l 758 485 l 401 443 q 297 417 339 436 q 232 364 256 399 q 200 272 208 329 q 203 183 192 218 q 240 128 214 149 q 303 100 267 108 q 381 92 339 92 q 536 128 476 92 q 632 249 596 164 q 689 482 668 335 q 700 716 711 632 q 640 833 689 800 q 496 867 590 867 q 394 864 443 867 q 296 856 344 861 q 194 843 247 850 l 182 924 q 287 954 232 943 q 397 971 342 965 q 503 976 453 976 q 713 928 635 976 q 816 769 790 879 q 815 472 842 658 q 763 240 796 333 q 679 89 731 146 q 554 7 628 32 q 378 -18 481 -18 z "},"T":{"ha":796,"x_min":90,"x_max":844,"o":"m 536 958 l 401 0 l 279 0 l 414 958 l 536 958 m 844 958 l 831 850 l 90 850 l 106 958 l 844 958 z "},"Ŧ":{"ha":796,"x_min":90,"x_max":844,"o":"m 679 551 l 671 483 l 158 483 l 168 551 l 679 551 m 536 958 l 401 0 l 279 0 l 414 958 l 536 958 m 844 958 l 831 850 l 90 850 l 106 958 l 844 958 z "},"Ť":{"ha":796,"x_min":90,"x_max":844,"o":"m 536 958 l 401 0 l 279 0 l 414 958 l 536 958 m 844 958 l 831 850 l 90 850 l 106 958 l 844 958 m 703 1260 l 740 1210 l 532 1032 l 446 1032 l 283 1217 l 332 1260 l 489 1122 l 500 1122 l 703 1260 z "},"Ţ":{"ha":796,"x_min":90,"x_max":844,"o":"m 536 958 l 401 0 l 279 0 l 414 958 l 536 958 m 844 958 l 831 850 l 90 850 l 106 958 l 844 958 m 265 -60 q 354 -60 319 -54 q 403 -89 389 -67 q 410 -156 418 -111 q 366 -252 401 -212 q 276 -309 331 -292 q 157 -318 222 -326 l 179 -256 q 277 -228 236 -257 q 325 -154 318 -199 q 315 -124 329 -131 q 251 -115 301 -117 l 265 -60 z "},"Ț":{"ha":796,"x_min":90,"x_max":844,"o":"m 350 -82 q 379 -91 371 -82 q 383 -121 388 -100 l 372 -197 q 358 -258 368 -226 q 333 -322 347 -290 q 301 -381 318 -353 l 249 -362 q 272 -294 261 -326 q 290 -219 282 -262 q 264 -212 272 -222 q 257 -187 256 -203 l 267 -118 q 281 -90 272 -97 q 317 -82 290 -82 l 350 -82 m 536 958 l 401 0 l 279 0 l 414 958 l 536 958 m 844 958 l 831 850 l 90 850 l 106 958 l 844 958 z "},"Ṭ":{"ha":796,"x_min":90,"x_max":844,"o":"m 536 958 l 401 0 l 279 0 l 414 958 l 536 958 m 844 958 l 831 850 l 90 850 l 106 958 l 844 958 m 349 -72 q 376 -82 367 -72 q 383 -110 386 -92 l 372 -189 q 335 -222 367 -222 l 296 -222 q 270 -212 279 -222 q 263 -185 261 -201 l 274 -106 q 284 -80 276 -87 q 310 -72 292 -72 l 349 -72 z "},"Ṯ":{"ha":796,"x_min":90,"x_max":844,"o":"m 536 958 l 401 0 l 279 0 l 414 958 l 536 958 m 844 958 l 831 850 l 90 850 l 106 958 l 844 958 m 519 -108 l 507 -196 l 119 -196 l 132 -108 l 519 -108 z "},"U":{"ha":922,"x_min":88,"x_max":888,"o":"m 888 958 l 804 365 q 739 142 785 226 q 614 19 693 57 q 414 -18 535 -18 q 217 21 292 -18 q 115 145 142 60 q 108 371 88 231 l 189 958 l 313 958 l 229 365 q 227 202 215 263 q 283 117 239 142 q 411 92 328 92 q 551 118 496 92 q 637 206 606 144 q 683 371 668 268 l 764 958 l 888 958 z "},"Ú":{"ha":922,"x_min":88,"x_max":888,"o":"m 888 958 l 804 365 q 739 142 785 226 q 614 19 693 57 q 414 -18 535 -18 q 217 21 292 -18 q 115 145 142 60 q 108 371 88 231 l 189 958 l 313 958 l 229 365 q 227 202 215 263 q 283 117 239 142 q 411 92 328 92 q 551 118 496 92 q 637 206 606 144 q 683 371 668 268 l 764 958 l 888 958 m 724 1269 l 781 1178 l 493 1011 l 457 1065 l 724 1269 z "},"Ŭ":{"ha":922,"x_min":88,"x_max":888,"o":"m 888 958 l 804 365 q 739 142 785 226 q 614 19 693 57 q 414 -18 535 -18 q 217 21 292 -18 q 115 145 142 60 q 108 371 88 231 l 189 958 l 313 958 l 229 365 q 227 202 215 263 q 283 117 239 142 q 411 92 328 92 q 551 118 496 92 q 637 206 606 144 q 683 371 668 268 l 764 958 l 888 958 m 717 1229 l 776 1215 q 743 1121 772 1161 q 665 1058 714 1081 q 550 1035 615 1035 q 435 1058 482 1035 q 369 1124 389 1082 q 361 1219 350 1167 l 422 1225 q 450 1149 415 1175 q 550 1122 485 1122 q 667 1151 622 1122 q 717 1229 711 1181 z "},"Û":{"ha":922,"x_min":88,"x_max":888,"o":"m 888 958 l 804 365 q 739 142 785 226 q 614 19 693 57 q 414 -18 535 -18 q 217 21 292 -18 q 115 145 142 60 q 108 371 88 231 l 189 958 l 313 958 l 229 365 q 227 202 215 263 q 283 117 239 142 q 411 92 328 92 q 551 118 496 92 q 637 206 606 144 q 683 371 668 268 l 764 958 l 888 958 m 613 1244 l 785 1060 l 740 1014 l 575 1154 l 564 1154 l 357 1015 l 322 1068 l 529 1244 l 613 1244 z "},"Ȕ":{"ha":922,"x_min":88,"x_max":888,"o":"m 888 958 l 804 365 q 739 142 785 226 q 614 19 693 57 q 414 -18 535 -18 q 217 21 292 -18 q 115 145 142 60 q 108 371 88 231 l 189 958 l 313 958 l 229 365 q 227 202 215 263 q 283 117 239 142 q 411 92 328 92 q 551 118 496 92 q 637 206 606 144 q 683 371 668 268 l 764 958 l 888 958 m 529 1276 l 722 1042 l 672 1003 l 457 1224 l 529 1276 m 301 1276 l 493 1042 l 444 1003 l 229 1224 l 301 1276 z "},"Ü":{"ha":922,"x_min":88,"x_max":888,"o":"m 888 958 l 804 365 q 739 142 785 226 q 614 19 693 57 q 414 -18 535 -18 q 217 21 292 -18 q 115 145 142 60 q 108 371 88 231 l 189 958 l 313 958 l 229 365 q 227 202 215 263 q 283 117 239 142 q 411 92 328 92 q 551 118 496 92 q 637 206 606 144 q 683 371 668 268 l 764 958 l 888 958 m 469 1208 q 497 1200 490 1208 q 500 1175 503 1192 l 489 1099 q 478 1074 488 1082 q 451 1065 469 1065 l 413 1065 q 383 1097 379 1065 l 394 1175 q 406 1200 397 1192 q 433 1208 415 1208 l 469 1208 m 704 1208 q 731 1200 725 1208 q 735 1175 738 1192 l 724 1099 q 713 1074 722 1082 q 686 1065 704 1065 l 647 1065 q 618 1097 614 1065 l 629 1175 q 641 1200 632 1192 q 668 1208 650 1208 l 704 1208 z "},"Ụ":{"ha":922,"x_min":88,"x_max":888,"o":"m 888 958 l 804 365 q 739 142 785 226 q 614 19 693 57 q 414 -18 535 -18 q 217 21 292 -18 q 115 145 142 60 q 108 371 88 231 l 189 958 l 313 958 l 229 365 q 227 202 215 263 q 283 117 239 142 q 411 92 328 92 q 551 118 496 92 q 637 206 606 144 q 683 371 668 268 l 764 958 l 888 958 m 421 -72 q 449 -82 439 -72 q 456 -110 458 -92 l 444 -189 q 407 -222 439 -222 l 369 -222 q 342 -212 351 -222 q 335 -185 333 -201 l 346 -106 q 357 -80 349 -87 q 383 -72 365 -72 l 421 -72 z "},"Ù":{"ha":922,"x_min":88,"x_max":888,"o":"m 888 958 l 804 365 q 739 142 785 226 q 614 19 693 57 q 414 -18 535 -18 q 217 21 292 -18 q 115 145 142 60 q 108 371 88 231 l 189 958 l 313 958 l 229 365 q 227 202 215 263 q 283 117 239 142 q 411 92 328 92 q 551 118 496 92 q 637 206 606 144 q 683 371 668 268 l 764 958 l 888 958 m 379 1268 l 615 1064 l 572 1011 l 315 1185 l 379 1268 z "},"Ủ":{"ha":922,"x_min":88,"x_max":888,"o":"m 888 958 l 804 365 q 739 142 785 226 q 614 19 693 57 q 414 -18 535 -18 q 217 21 292 -18 q 115 145 142 60 q 108 371 88 231 l 189 958 l 313 958 l 229 365 q 227 202 215 263 q 283 117 239 142 q 411 92 328 92 q 551 118 496 92 q 637 206 606 144 q 683 371 668 268 l 764 958 l 888 958 m 507 1089 q 588 1131 564 1100 q 611 1200 611 1161 q 587 1242 611 1233 q 518 1238 563 1251 l 515 1304 q 644 1304 594 1328 q 694 1215 694 1281 q 646 1094 694 1147 q 511 1031 597 1042 l 507 1089 z "},"Ư":{"ha":975,"x_min":88,"x_max":1096,"o":"m 888 958 l 804 365 q 739 142 785 226 q 614 19 693 57 q 414 -18 535 -18 q 217 21 292 -18 q 115 145 142 60 q 108 371 88 231 l 189 958 l 313 958 l 229 365 q 227 202 215 263 q 283 117 239 142 q 411 92 328 92 q 551 118 496 92 q 637 206 606 144 q 683 371 668 268 l 764 958 l 888 958 m 851 810 l 856 868 q 958 914 918 872 q 1013 1013 999 956 l 1096 996 q 1046 897 1083 939 q 958 831 1008 854 q 851 810 907 808 z "},"Ứ":{"ha":975,"x_min":88,"x_max":1096,"o":"m 888 958 l 804 365 q 739 142 785 226 q 614 19 693 57 q 414 -18 535 -18 q 217 21 292 -18 q 115 145 142 60 q 108 371 88 231 l 189 958 l 313 958 l 229 365 q 227 202 215 263 q 283 117 239 142 q 411 92 328 92 q 551 118 496 92 q 637 206 606 144 q 683 371 668 268 l 764 958 l 888 958 m 851 810 l 856 868 q 958 914 918 872 q 1013 1013 999 956 l 1096 996 q 1046 897 1083 939 q 958 831 1008 854 q 851 810 907 808 m 724 1269 l 781 1178 l 493 1011 l 457 1065 l 724 1269 z "},"Ự":{"ha":975,"x_min":88,"x_max":1096,"o":"m 888 958 l 804 365 q 739 142 785 226 q 614 19 693 57 q 414 -18 535 -18 q 217 21 292 -18 q 115 145 142 60 q 108 371 88 231 l 189 958 l 313 958 l 229 365 q 227 202 215 263 q 283 117 239 142 q 411 92 328 92 q 551 118 496 92 q 637 206 606 144 q 683 371 668 268 l 764 958 l 888 958 m 851 810 l 856 868 q 958 914 918 872 q 1013 1013 999 956 l 1096 996 q 1046 897 1083 939 q 958 831 1008 854 q 851 810 907 808 m 421 -72 q 449 -82 439 -72 q 456 -110 458 -92 l 444 -189 q 407 -222 439 -222 l 368 -222 q 342 -212 351 -222 q 335 -185 333 -201 l 346 -106 q 356 -80 349 -87 q 382 -72 364 -72 l 421 -72 z "},"Ừ":{"ha":975,"x_min":88,"x_max":1096,"o":"m 888 958 l 804 365 q 739 142 785 226 q 614 19 693 57 q 414 -18 535 -18 q 217 21 292 -18 q 115 145 142 60 q 108 371 88 231 l 189 958 l 313 958 l 229 365 q 227 202 215 263 q 283 117 239 142 q 411 92 328 92 q 551 118 496 92 q 637 206 606 144 q 683 371 668 268 l 764 958 l 888 958 m 851 810 l 856 868 q 958 914 918 872 q 1013 1013 999 956 l 1096 996 q 1046 897 1083 939 q 958 831 1008 854 q 851 810 907 808 m 379 1268 l 615 1064 l 572 1011 l 315 1185 l 379 1268 z "},"Ử":{"ha":975,"x_min":88,"x_max":1096,"o":"m 888 958 l 804 365 q 739 142 785 226 q 614 19 693 57 q 414 -18 535 -18 q 217 21 292 -18 q 115 145 142 60 q 108 371 88 231 l 189 958 l 313 958 l 229 365 q 227 202 215 263 q 283 117 239 142 q 411 92 328 92 q 551 118 496 92 q 637 206 606 144 q 683 371 668 268 l 764 958 l 888 958 m 851 810 l 856 868 q 958 914 918 872 q 1013 1013 999 956 l 1096 996 q 1046 897 1083 939 q 958 831 1008 854 q 851 810 907 808 m 507 1089 q 588 1131 564 1100 q 611 1200 611 1161 q 587 1242 611 1233 q 518 1238 563 1251 l 515 1304 q 644 1304 594 1328 q 694 1215 694 1281 q 646 1094 694 1147 q 511 1031 597 1042 l 507 1089 z "},"Ữ":{"ha":975,"x_min":88,"x_max":1096,"o":"m 888 958 l 804 365 q 739 142 785 226 q 614 19 693 57 q 414 -18 535 -18 q 217 21 292 -18 q 115 145 142 60 q 108 371 88 231 l 189 958 l 313 958 l 229 365 q 227 202 215 263 q 283 117 239 142 q 411 92 328 92 q 551 118 496 92 q 637 206 606 144 q 683 371 668 268 l 764 958 l 888 958 m 851 810 l 856 868 q 958 914 918 872 q 1013 1013 999 956 l 1096 996 q 1046 897 1083 939 q 958 831 1008 854 q 851 810 907 808 m 453 1221 q 511 1208 486 1218 q 557 1183 536 1197 q 599 1158 578 1169 q 649 1144 621 1147 q 709 1158 690 1139 q 733 1217 728 1178 l 789 1213 q 751 1094 786 1133 q 665 1058 717 1054 q 602 1072 629 1061 q 553 1097 575 1083 q 512 1123 532 1111 q 468 1138 492 1135 q 409 1122 428 1142 q 383 1060 390 1101 l 329 1065 q 369 1187 332 1149 q 453 1221 406 1225 z "},"Ű":{"ha":922,"x_min":88,"x_max":888,"o":"m 888 958 l 804 365 q 739 142 785 226 q 614 19 693 57 q 414 -18 535 -18 q 217 21 292 -18 q 115 145 142 60 q 108 371 88 231 l 189 958 l 313 958 l 229 365 q 227 202 215 263 q 283 117 239 142 q 411 92 328 92 q 551 118 496 92 q 637 206 606 144 q 683 371 668 268 l 764 958 l 888 958 m 556 1276 l 628 1224 l 413 1003 l 363 1042 l 556 1276 m 783 1276 l 857 1224 l 640 1003 l 592 1042 l 783 1276 z "},"Ȗ":{"ha":922,"x_min":88,"x_max":888,"o":"m 888 958 l 804 365 q 739 142 785 226 q 614 19 693 57 q 414 -18 535 -18 q 217 21 292 -18 q 115 145 142 60 q 108 371 88 231 l 189 958 l 313 958 l 229 365 q 227 202 215 263 q 283 117 239 142 q 411 92 328 92 q 551 118 496 92 q 637 206 606 144 q 683 371 668 268 l 764 958 l 888 958 m 394 1035 l 333 1049 q 368 1143 339 1103 q 447 1206 397 1183 q 560 1229 496 1229 q 676 1206 629 1229 q 742 1140 722 1182 q 750 1044 761 1099 l 689 1040 q 661 1115 696 1089 q 561 1142 626 1142 q 444 1113 489 1142 q 394 1035 400 1085 z "},"Ū":{"ha":922,"x_min":88,"x_max":888,"o":"m 888 958 l 804 365 q 739 142 785 226 q 614 19 693 57 q 414 -18 535 -18 q 217 21 292 -18 q 115 145 142 60 q 108 371 88 231 l 189 958 l 313 958 l 229 365 q 227 202 215 263 q 283 117 239 142 q 411 92 328 92 q 551 118 496 92 q 637 206 606 144 q 683 371 668 268 l 764 958 l 888 958 m 757 1179 l 746 1092 l 358 1092 l 369 1179 l 757 1179 z "},"Ṻ":{"ha":922,"x_min":88,"x_max":888,"o":"m 888 958 l 804 365 q 739 142 785 226 q 614 19 693 57 q 414 -18 535 -18 q 217 21 292 -18 q 115 145 142 60 q 108 371 88 231 l 189 958 l 313 958 l 229 365 q 227 202 215 263 q 283 117 239 142 q 411 92 328 92 q 551 118 496 92 q 637 206 606 144 q 683 371 668 268 l 764 958 l 888 958 m 493 1333 q 518 1326 513 1333 q 521 1303 524 1318 l 510 1233 q 501 1210 508 1218 q 478 1203 493 1203 l 442 1203 q 414 1232 410 1203 l 425 1303 q 436 1326 428 1318 q 460 1333 444 1333 l 493 1333 m 706 1333 q 735 1303 739 1333 l 724 1233 q 714 1210 722 1218 q 690 1203 706 1203 l 656 1203 q 628 1232 622 1203 l 638 1303 q 674 1333 643 1333 l 706 1333 m 732 1121 l 721 1042 l 368 1042 l 379 1121 l 732 1121 z "},"Ų":{"ha":922,"x_min":88,"x_max":888,"o":"m 888 958 l 804 365 q 739 142 785 226 q 614 19 693 57 q 414 -18 535 -18 q 217 21 292 -18 q 115 145 142 60 q 108 371 88 231 l 189 958 l 313 958 l 229 365 q 227 202 215 263 q 283 117 239 142 q 411 92 328 92 q 551 118 496 92 q 637 206 606 144 q 683 371 668 268 l 764 958 l 888 958 m 403 -8 l 458 -12 q 394 -87 424 -49 q 336 -175 364 -126 q 335 -239 308 -225 q 429 -231 361 -253 l 444 -282 q 328 -309 375 -308 q 258 -290 282 -310 q 233 -240 235 -271 q 249 -171 231 -208 q 303 -97 267 -137 q 403 -8 339 -56 z "},"Ů":{"ha":922,"x_min":88,"x_max":888,"o":"m 888 958 l 804 365 q 739 142 785 226 q 614 19 693 57 q 414 -18 535 -18 q 217 21 292 -18 q 115 145 142 60 q 108 371 88 231 l 189 958 l 313 958 l 229 365 q 227 202 215 263 q 283 117 239 142 q 411 92 328 92 q 551 118 496 92 q 637 206 606 144 q 683 371 668 268 l 764 958 l 888 958 m 568 1285 q 669 1248 631 1285 q 708 1151 708 1211 q 664 1038 708 1083 q 550 993 619 993 q 449 1030 488 993 q 410 1126 410 1067 q 455 1240 410 1194 q 568 1285 500 1285 m 567 1224 q 500 1197 524 1224 q 476 1132 476 1171 q 496 1076 476 1099 q 553 1054 515 1054 q 617 1081 593 1054 q 642 1147 642 1108 q 622 1202 642 1181 q 567 1224 603 1224 z "},"Ũ":{"ha":922,"x_min":88,"x_max":888,"o":"m 888 958 l 804 365 q 739 142 785 226 q 614 19 693 57 q 414 -18 535 -18 q 217 21 292 -18 q 115 145 142 60 q 108 371 88 231 l 189 958 l 313 958 l 229 365 q 227 202 215 263 q 283 117 239 142 q 411 92 328 92 q 551 118 496 92 q 637 206 606 144 q 683 371 668 268 l 764 958 l 888 958 m 454 1221 q 512 1208 488 1218 q 557 1183 536 1197 q 599 1158 578 1169 q 649 1144 621 1147 q 709 1158 690 1139 q 733 1217 728 1178 l 789 1213 q 752 1094 788 1133 q 665 1058 717 1054 q 603 1072 629 1061 q 554 1097 576 1083 q 512 1123 532 1111 q 468 1138 492 1135 q 409 1122 428 1142 q 385 1060 390 1101 l 329 1065 q 369 1187 332 1149 q 454 1221 406 1225 z "},"Ṹ":{"ha":922,"x_min":88,"x_max":888,"o":"m 888 958 l 804 365 q 739 142 785 226 q 614 19 693 57 q 414 -18 535 -18 q 217 21 292 -18 q 115 145 142 60 q 108 371 88 231 l 189 958 l 313 958 l 229 365 q 227 202 215 263 q 283 117 239 142 q 411 92 328 92 q 551 118 496 92 q 637 206 606 144 q 683 371 668 268 l 764 958 l 888 958 m 449 1193 q 506 1180 482 1190 q 551 1156 531 1169 q 594 1131 572 1142 q 644 1117 617 1119 q 705 1131 686 1111 q 729 1189 724 1150 l 783 1185 q 747 1067 782 1106 q 661 1031 713 1028 q 598 1045 625 1033 q 549 1071 571 1057 q 506 1096 526 1085 q 463 1110 486 1107 q 403 1094 422 1114 q 379 1032 385 1074 l 324 1038 q 364 1159 328 1121 q 449 1193 400 1197 m 660 1431 l 721 1354 l 524 1219 l 485 1265 l 660 1431 z "},"V":{"ha":840,"x_min":96,"x_max":896,"o":"m 896 958 l 472 32 q 425 0 460 0 l 303 0 q 275 11 286 0 q 261 38 264 22 l 96 958 l 219 958 l 340 197 q 349 144 344 171 q 354 92 353 118 l 390 92 q 411 147 400 118 q 433 201 422 175 l 767 958 l 896 958 z "},"W":{"ha":1310,"x_min":115,"x_max":1346,"o":"m 1346 958 l 1019 33 q 1001 8 1014 17 q 969 0 989 0 l 833 0 q 803 11 815 0 q 789 40 790 22 l 739 761 q 735 815 738 789 q 731 867 732 840 l 701 867 q 683 811 692 840 q 664 756 674 782 l 415 35 q 397 9 410 18 q 365 0 383 0 l 231 0 q 199 11 213 0 q 185 39 186 22 l 115 958 l 240 958 l 285 210 q 288 152 288 182 q 289 90 288 122 l 322 90 q 343 153 333 122 q 363 214 353 185 l 608 919 q 658 958 619 958 l 790 958 q 819 946 808 958 q 832 915 831 933 l 889 208 q 893 149 892 179 q 894 90 894 119 l 929 90 q 947 151 938 119 q 967 211 957 182 l 1218 958 l 1346 958 z "},"Ẃ":{"ha":1310,"x_min":115,"x_max":1346,"o":"m 1346 958 l 1019 33 q 1001 8 1014 17 q 969 0 989 0 l 833 0 q 803 11 815 0 q 789 40 790 22 l 739 761 q 735 815 738 789 q 731 867 732 840 l 701 867 q 683 811 692 840 q 664 756 674 782 l 415 35 q 397 9 410 18 q 365 0 383 0 l 231 0 q 199 11 213 0 q 185 39 186 22 l 115 958 l 240 958 l 285 210 q 288 152 288 182 q 289 90 288 122 l 322 90 q 343 153 333 122 q 363 214 353 185 l 608 919 q 658 958 619 958 l 790 958 q 819 946 808 958 q 832 915 831 933 l 889 208 q 893 149 892 179 q 894 90 894 119 l 929 90 q 947 151 938 119 q 967 211 957 182 l 1218 958 l 1346 958 m 919 1269 l 976 1178 l 689 1011 l 653 1065 l 919 1269 z "},"Ŵ":{"ha":1310,"x_min":115,"x_max":1346,"o":"m 1346 958 l 1019 33 q 1001 8 1014 17 q 969 0 989 0 l 833 0 q 803 11 815 0 q 789 40 790 22 l 739 761 q 735 815 738 789 q 731 867 732 840 l 701 867 q 683 811 692 840 q 664 756 674 782 l 415 35 q 397 9 410 18 q 365 0 383 0 l 231 0 q 199 11 213 0 q 185 39 186 22 l 115 958 l 240 958 l 285 210 q 288 152 288 182 q 289 90 288 122 l 322 90 q 343 153 333 122 q 363 214 353 185 l 608 919 q 658 958 619 958 l 790 958 q 819 946 808 958 q 832 915 831 933 l 889 208 q 893 149 892 179 q 894 90 894 119 l 929 90 q 947 151 938 119 q 967 211 957 182 l 1218 958 l 1346 958 m 810 1244 l 982 1060 l 938 1014 l 772 1154 l 761 1154 l 554 1015 l 519 1068 l 726 1244 l 810 1244 z "},"Ẅ":{"ha":1310,"x_min":115,"x_max":1346,"o":"m 1346 958 l 1019 33 q 1001 8 1014 17 q 969 0 989 0 l 833 0 q 803 11 815 0 q 789 40 790 22 l 739 761 q 735 815 738 789 q 731 867 732 840 l 701 867 q 683 811 692 840 q 664 756 674 782 l 415 35 q 397 9 410 18 q 365 0 383 0 l 231 0 q 199 11 213 0 q 185 39 186 22 l 115 958 l 240 958 l 285 210 q 288 152 288 182 q 289 90 288 122 l 322 90 q 343 153 333 122 q 363 214 353 185 l 608 919 q 658 958 619 958 l 790 958 q 819 946 808 958 q 832 915 831 933 l 889 208 q 893 149 892 179 q 894 90 894 119 l 929 90 q 947 151 938 119 q 967 211 957 182 l 1218 958 l 1346 958 m 665 1207 q 692 1199 686 1207 q 696 1174 699 1190 l 685 1097 q 674 1072 683 1081 q 647 1064 665 1064 l 608 1064 q 579 1096 575 1064 l 590 1174 q 602 1199 593 1190 q 629 1207 611 1207 l 665 1207 m 900 1207 q 927 1199 921 1207 q 931 1174 933 1190 l 919 1097 q 909 1072 918 1081 q 882 1064 900 1064 l 843 1064 q 814 1096 810 1064 l 825 1174 q 837 1199 828 1190 q 864 1207 846 1207 l 900 1207 z "},"Ẁ":{"ha":1310,"x_min":115,"x_max":1346,"o":"m 1346 958 l 1019 33 q 1001 8 1014 17 q 969 0 989 0 l 833 0 q 803 11 815 0 q 789 40 790 22 l 739 761 q 735 815 738 789 q 731 867 732 840 l 701 867 q 683 811 692 840 q 664 756 674 782 l 415 35 q 397 9 410 18 q 365 0 383 0 l 231 0 q 199 11 213 0 q 185 39 186 22 l 115 958 l 240 958 l 285 210 q 288 152 288 182 q 289 90 288 122 l 322 90 q 343 153 333 122 q 363 214 353 185 l 608 919 q 658 958 619 958 l 790 958 q 819 946 808 958 q 832 915 831 933 l 889 208 q 893 149 892 179 q 894 90 894 119 l 929 90 q 947 151 938 119 q 967 211 957 182 l 1218 958 l 1346 958 m 576 1268 l 813 1064 l 769 1011 l 513 1185 l 576 1268 z "},"X":{"ha":846,"x_min":-25,"x_max":875,"o":"m 256 958 l 440 485 l 117 0 l -25 0 l 317 496 l 131 958 l 256 958 m 517 544 l 503 450 l 356 450 l 369 544 l 517 544 m 875 958 l 556 496 l 757 0 l 632 0 l 432 510 l 740 958 l 875 958 z "},"Y":{"ha":785,"x_min":89,"x_max":846,"o":"m 846 958 l 433 325 l 324 325 l 89 958 l 214 958 l 358 551 q 374 499 367 526 q 386 443 382 471 l 397 443 q 423 501 407 469 q 454 556 439 532 l 713 958 l 846 958 m 450 411 l 393 0 l 269 0 l 329 411 l 450 411 z "},"Ý":{"ha":785,"x_min":89,"x_max":846,"o":"m 846 958 l 433 325 l 324 325 l 89 958 l 214 958 l 358 551 q 374 499 367 526 q 386 443 382 471 l 397 443 q 423 501 407 469 q 454 556 439 532 l 713 958 l 846 958 m 450 411 l 393 0 l 269 0 l 329 411 l 450 411 m 643 1269 l 700 1178 l 413 1011 l 376 1065 l 643 1269 z "},"Ŷ":{"ha":785,"x_min":89,"x_max":846,"o":"m 846 958 l 433 325 l 324 325 l 89 958 l 214 958 l 358 551 q 374 499 367 526 q 386 443 382 471 l 397 443 q 423 501 407 469 q 454 556 439 532 l 713 958 l 846 958 m 450 411 l 393 0 l 269 0 l 329 411 l 450 411 m 532 1244 l 704 1060 l 660 1014 l 494 1154 l 483 1154 l 276 1015 l 242 1068 l 449 1244 l 532 1244 z "},"Ÿ":{"ha":785,"x_min":89,"x_max":846,"o":"m 846 958 l 433 325 l 324 325 l 89 958 l 214 958 l 358 551 q 374 499 367 526 q 386 443 382 471 l 397 443 q 423 501 407 469 q 454 556 439 532 l 713 958 l 846 958 m 450 411 l 393 0 l 269 0 l 329 411 l 450 411 m 389 1208 q 416 1200 410 1208 q 419 1175 422 1192 l 408 1099 q 398 1074 407 1082 q 371 1065 389 1065 l 332 1065 q 303 1097 299 1065 l 314 1175 q 326 1200 317 1192 q 353 1208 335 1208 l 389 1208 m 624 1208 q 651 1200 644 1208 q 654 1175 657 1192 l 643 1099 q 633 1074 642 1082 q 606 1065 624 1065 l 567 1065 q 538 1097 533 1065 l 549 1175 q 560 1200 551 1192 q 588 1208 569 1208 l 624 1208 z "},"Ẏ":{"ha":785,"x_min":89,"x_max":846,"o":"m 846 958 l 433 325 l 324 325 l 89 958 l 214 958 l 358 551 q 374 499 367 526 q 386 443 382 471 l 397 443 q 423 501 407 469 q 454 556 439 532 l 713 958 l 846 958 m 450 411 l 393 0 l 269 0 l 329 411 l 450 411 m 503 1204 q 531 1194 521 1204 q 538 1167 540 1185 l 526 1089 q 489 1054 522 1054 l 451 1054 q 424 1065 433 1054 q 418 1092 415 1075 l 428 1171 q 439 1197 431 1189 q 465 1204 447 1204 l 503 1204 z "},"Ỵ":{"ha":785,"x_min":89,"x_max":846,"o":"m 846 958 l 433 325 l 324 325 l 89 958 l 214 958 l 358 551 q 374 499 367 526 q 386 443 382 471 l 397 443 q 423 501 407 469 q 454 556 439 532 l 713 958 l 846 958 m 450 411 l 393 0 l 269 0 l 329 411 l 450 411 m 340 -72 q 368 -82 358 -72 q 375 -110 378 -92 l 364 -189 q 326 -222 358 -222 l 288 -222 q 262 -212 271 -222 q 254 -185 253 -201 l 265 -106 q 276 -80 268 -87 q 301 -72 283 -72 l 340 -72 z "},"Ỳ":{"ha":785,"x_min":89,"x_max":846,"o":"m 846 958 l 433 325 l 324 325 l 89 958 l 214 958 l 358 551 q 374 499 367 526 q 386 443 382 471 l 397 443 q 423 501 407 469 q 454 556 439 532 l 713 958 l 846 958 m 450 411 l 393 0 l 269 0 l 329 411 l 450 411 m 299 1268 l 535 1064 l 492 1011 l 235 1185 l 299 1268 z "},"Ỷ":{"ha":785,"x_min":89,"x_max":846,"o":"m 846 958 l 433 325 l 324 325 l 89 958 l 214 958 l 358 551 q 374 499 367 526 q 386 443 382 471 l 397 443 q 423 501 407 469 q 454 556 439 532 l 713 958 l 846 958 m 450 411 l 393 0 l 269 0 l 329 411 l 450 411 m 426 1089 q 507 1131 483 1100 q 531 1200 531 1161 q 506 1242 531 1233 q 438 1238 482 1251 l 435 1304 q 564 1304 514 1328 q 614 1215 614 1281 q 565 1094 614 1147 q 431 1031 517 1042 l 426 1089 z "},"Ȳ":{"ha":785,"x_min":89,"x_max":846,"o":"m 846 958 l 433 325 l 324 325 l 89 958 l 214 958 l 358 551 q 374 499 367 526 q 386 443 382 471 l 397 443 q 423 501 407 469 q 454 556 439 532 l 713 958 l 846 958 m 450 411 l 393 0 l 269 0 l 329 411 l 450 411 m 676 1179 l 665 1092 l 278 1092 l 289 1179 l 676 1179 z "},"Ỹ":{"ha":785,"x_min":89,"x_max":846,"o":"m 846 958 l 433 325 l 324 325 l 89 958 l 214 958 l 358 551 q 374 499 367 526 q 386 443 382 471 l 397 443 q 423 501 407 469 q 454 556 439 532 l 713 958 l 846 958 m 450 411 l 393 0 l 269 0 l 329 411 l 450 411 m 374 1221 q 431 1208 407 1218 q 476 1183 456 1197 q 519 1158 497 1169 q 568 1144 540 1147 q 628 1158 610 1139 q 653 1217 647 1178 l 708 1213 q 672 1094 707 1133 q 585 1058 636 1054 q 522 1072 549 1061 q 474 1097 496 1083 q 431 1123 451 1111 q 388 1138 411 1135 q 328 1122 347 1142 q 304 1060 310 1101 l 249 1065 q 288 1187 251 1149 q 374 1221 325 1225 z "},"Z":{"ha":781,"x_min":8,"x_max":788,"o":"m 638 856 l 772 854 l 156 103 l 22 104 l 638 856 m 676 104 l 661 0 l 8 0 l 22 104 l 676 104 m 788 958 l 772 854 l 135 854 l 150 958 l 788 958 z "},"Ź":{"ha":781,"x_min":8,"x_max":788,"o":"m 638 856 l 772 854 l 156 103 l 22 104 l 638 856 m 676 104 l 661 0 l 8 0 l 22 104 l 676 104 m 788 958 l 772 854 l 135 854 l 150 958 l 788 958 m 647 1269 l 704 1178 l 417 1011 l 381 1065 l 647 1269 z "},"Ž":{"ha":781,"x_min":8,"x_max":788,"o":"m 638 856 l 772 854 l 156 103 l 22 104 l 638 856 m 676 104 l 661 0 l 8 0 l 22 104 l 676 104 m 788 958 l 772 854 l 135 854 l 150 958 l 788 958 m 685 1260 l 722 1210 l 514 1032 l 428 1032 l 265 1217 l 314 1260 l 471 1122 l 482 1122 l 685 1260 z "},"Ż":{"ha":781,"x_min":8,"x_max":788,"o":"m 638 856 l 772 854 l 156 103 l 22 104 l 638 856 m 676 104 l 661 0 l 8 0 l 22 104 l 676 104 m 788 958 l 772 854 l 135 854 l 150 958 l 788 958 m 508 1204 q 535 1194 525 1204 q 542 1167 544 1185 l 531 1089 q 493 1054 526 1054 l 456 1054 q 428 1065 438 1054 q 422 1092 419 1075 l 432 1171 q 443 1197 435 1189 q 469 1204 451 1204 l 508 1204 z "},"Ẓ":{"ha":781,"x_min":8,"x_max":788,"o":"m 638 856 l 772 854 l 156 103 l 22 104 l 638 856 m 676 104 l 661 0 l 8 0 l 22 104 l 676 104 m 788 958 l 772 854 l 135 854 l 150 958 l 788 958 m 364 -72 q 392 -82 382 -72 q 399 -110 401 -92 l 388 -189 q 350 -222 382 -222 l 311 -222 q 285 -212 294 -222 q 278 -185 276 -201 l 289 -106 q 299 -80 292 -87 q 325 -72 307 -72 l 364 -72 z "},"a":{"ha":796,"x_min":51,"x_max":726,"o":"m 408 693 q 485 691 444 693 q 568 684 526 689 q 651 674 610 679 q 726 661 692 668 l 674 588 q 537 592 597 590 q 444 594 476 594 q 331 585 375 594 q 260 550 286 576 q 217 472 233 524 q 189 336 201 421 q 177 181 175 235 q 202 106 179 126 q 271 86 225 86 q 370 108 321 86 q 472 172 419 129 q 582 274 525 214 l 606 217 q 516 101 571 154 q 393 16 461 49 q 247 -17 325 -17 q 122 17 167 -17 q 64 131 76 51 q 71 346 51 211 q 115 529 88 460 q 184 634 143 599 q 281 681 225 669 q 408 693 336 693 m 607 661 l 726 661 l 633 0 l 540 0 l 550 160 l 538 171 l 607 661 z "},"á":{"ha":796,"x_min":51,"x_max":726,"o":"m 408 693 q 485 691 444 693 q 568 684 526 689 q 651 674 610 679 q 726 661 692 668 l 674 588 q 537 592 597 590 q 444 594 476 594 q 331 585 375 594 q 260 550 286 576 q 217 472 233 524 q 189 336 201 421 q 177 181 175 235 q 202 106 179 126 q 271 86 225 86 q 370 108 321 86 q 472 172 419 129 q 582 274 525 214 l 606 217 q 516 101 571 154 q 393 16 461 49 q 247 -17 325 -17 q 122 17 167 -17 q 64 131 76 51 q 71 346 51 211 q 115 529 88 460 q 184 634 143 599 q 281 681 225 669 q 408 693 336 693 m 607 661 l 726 661 l 633 0 l 540 0 l 550 160 l 538 171 l 607 661 m 629 1021 l 686 929 l 399 763 l 363 817 l 629 1021 z "},"ă":{"ha":796,"x_min":51,"x_max":726,"o":"m 408 693 q 485 691 444 693 q 568 684 526 689 q 651 674 610 679 q 726 661 692 668 l 674 588 q 537 592 597 590 q 444 594 476 594 q 331 585 375 594 q 260 550 286 576 q 217 472 233 524 q 189 336 201 421 q 177 181 175 235 q 202 106 179 126 q 271 86 225 86 q 370 108 321 86 q 472 172 419 129 q 582 274 525 214 l 606 217 q 516 101 571 154 q 393 16 461 49 q 247 -17 325 -17 q 122 17 167 -17 q 64 131 76 51 q 71 346 51 211 q 115 529 88 460 q 184 634 143 599 q 281 681 225 669 q 408 693 336 693 m 607 661 l 726 661 l 633 0 l 540 0 l 550 160 l 538 171 l 607 661 m 624 981 l 683 967 q 650 872 679 913 q 572 809 621 832 q 457 786 522 786 q 342 810 389 786 q 276 876 296 833 q 268 971 257 918 l 329 976 q 357 900 322 926 q 457 874 392 874 q 574 903 529 874 q 624 981 618 932 z "},"ắ":{"ha":796,"x_min":51,"x_max":726,"o":"m 408 693 q 485 691 444 693 q 568 684 526 689 q 651 674 610 679 q 726 661 692 668 l 674 588 q 537 592 597 590 q 444 594 476 594 q 331 585 375 594 q 260 550 286 576 q 217 472 233 524 q 189 336 201 421 q 177 181 175 235 q 202 106 179 126 q 271 86 225 86 q 370 108 321 86 q 472 172 419 129 q 582 274 525 214 l 606 217 q 516 101 571 154 q 393 16 461 49 q 247 -17 325 -17 q 122 17 167 -17 q 64 131 76 51 q 71 346 51 211 q 115 529 88 460 q 184 634 143 599 q 281 681 225 669 q 408 693 336 693 m 607 661 l 726 661 l 633 0 l 540 0 l 550 160 l 538 171 l 607 661 m 624 981 l 683 967 q 650 872 679 913 q 572 809 621 832 q 457 786 522 786 q 342 810 389 786 q 276 876 296 833 q 268 971 257 918 l 329 976 q 357 900 322 926 q 457 874 392 874 q 574 903 529 874 q 624 981 618 932 m 597 1167 l 650 1083 l 442 967 l 408 1017 l 597 1167 z "},"ặ":{"ha":796,"x_min":51,"x_max":726,"o":"m 408 693 q 485 691 444 693 q 568 684 526 689 q 651 674 610 679 q 726 661 692 668 l 674 588 q 537 592 597 590 q 444 594 476 594 q 331 585 375 594 q 260 550 286 576 q 217 472 233 524 q 189 336 201 421 q 177 181 175 235 q 202 106 179 126 q 271 86 225 86 q 370 108 321 86 q 472 172 419 129 q 582 274 525 214 l 606 217 q 516 101 571 154 q 393 16 461 49 q 247 -17 325 -17 q 122 17 167 -17 q 64 131 76 51 q 71 346 51 211 q 115 529 88 460 q 184 634 143 599 q 281 681 225 669 q 408 693 336 693 m 607 661 l 726 661 l 633 0 l 540 0 l 550 160 l 538 171 l 607 661 m 344 -90 q 372 -100 363 -90 q 379 -128 382 -110 l 368 -207 q 331 -240 363 -240 l 292 -240 q 266 -230 275 -240 q 258 -203 257 -219 l 269 -124 q 280 -98 272 -106 q 306 -90 288 -90 l 344 -90 m 624 981 l 683 967 q 650 872 679 913 q 572 809 621 832 q 457 786 522 786 q 342 810 389 786 q 276 876 296 833 q 268 971 257 918 l 329 976 q 357 900 322 926 q 457 874 392 874 q 574 903 529 874 q 624 981 618 932 z "},"ằ":{"ha":796,"x_min":51,"x_max":726,"o":"m 408 693 q 485 691 444 693 q 568 684 526 689 q 651 674 610 679 q 726 661 692 668 l 674 588 q 537 592 597 590 q 444 594 476 594 q 331 585 375 594 q 260 550 286 576 q 217 472 233 524 q 189 336 201 421 q 177 181 175 235 q 202 106 179 126 q 271 86 225 86 q 370 108 321 86 q 472 172 419 129 q 582 274 525 214 l 606 217 q 516 101 571 154 q 393 16 461 49 q 247 -17 325 -17 q 122 17 167 -17 q 64 131 76 51 q 71 346 51 211 q 115 529 88 460 q 184 634 143 599 q 281 681 225 669 q 408 693 336 693 m 607 661 l 726 661 l 633 0 l 540 0 l 550 160 l 538 171 l 607 661 m 624 981 l 683 967 q 650 872 679 913 q 572 809 621 832 q 457 786 522 786 q 342 810 389 786 q 276 876 296 833 q 268 971 257 918 l 329 976 q 357 900 322 926 q 457 874 392 874 q 574 903 529 874 q 624 981 618 932 m 368 1158 l 528 1014 l 489 965 l 310 1082 l 368 1158 z "},"ẳ":{"ha":796,"x_min":51,"x_max":726,"o":"m 408 693 q 485 691 444 693 q 568 684 526 689 q 651 674 610 679 q 726 661 692 668 l 674 588 q 537 592 597 590 q 444 594 476 594 q 331 585 375 594 q 260 550 286 576 q 217 472 233 524 q 189 336 201 421 q 177 181 175 235 q 202 106 179 126 q 271 86 225 86 q 370 108 321 86 q 472 172 419 129 q 582 274 525 214 l 606 217 q 516 101 571 154 q 393 16 461 49 q 247 -17 325 -17 q 122 17 167 -17 q 64 131 76 51 q 71 346 51 211 q 115 529 88 460 q 184 634 143 599 q 281 681 225 669 q 408 693 336 693 m 607 661 l 726 661 l 633 0 l 540 0 l 550 160 l 538 171 l 607 661 m 624 981 l 683 967 q 650 872 679 913 q 572 809 621 832 q 457 786 522 786 q 342 810 389 786 q 276 876 296 833 q 268 971 257 918 l 329 976 q 357 900 322 926 q 457 874 392 874 q 574 903 529 874 q 624 981 618 932 m 432 1011 q 506 1041 485 1021 q 528 1093 528 1061 q 503 1126 528 1122 q 442 1117 479 1131 l 440 1178 q 556 1185 508 1203 q 603 1110 603 1168 q 559 1008 603 1049 q 435 958 515 968 l 432 1011 z "},"ẵ":{"ha":796,"x_min":51,"x_max":726,"o":"m 408 693 q 485 691 444 693 q 568 684 526 689 q 651 674 610 679 q 726 661 692 668 l 674 588 q 537 592 597 590 q 444 594 476 594 q 331 585 375 594 q 260 550 286 576 q 217 472 233 524 q 189 336 201 421 q 177 181 175 235 q 202 106 179 126 q 271 86 225 86 q 370 108 321 86 q 472 172 419 129 q 582 274 525 214 l 606 217 q 516 101 571 154 q 393 16 461 49 q 247 -17 325 -17 q 122 17 167 -17 q 64 131 76 51 q 71 346 51 211 q 115 529 88 460 q 184 634 143 599 q 281 681 225 669 q 408 693 336 693 m 607 661 l 726 661 l 633 0 l 540 0 l 550 160 l 538 171 l 607 661 m 624 981 l 683 967 q 650 872 679 913 q 572 809 621 832 q 457 786 522 786 q 342 810 389 786 q 276 876 296 833 q 268 971 257 918 l 329 976 q 357 900 322 926 q 457 874 392 874 q 574 903 529 874 q 624 981 618 932 m 392 1174 q 445 1160 424 1171 q 485 1136 467 1149 q 524 1113 504 1124 q 569 1100 543 1103 q 627 1114 610 1096 q 647 1169 644 1132 l 700 1164 q 666 1053 699 1090 q 585 1019 633 1015 q 526 1033 550 1022 q 483 1058 501 1044 q 446 1082 464 1071 q 406 1094 428 1093 q 349 1079 367 1099 q 328 1019 332 1060 l 275 1025 q 311 1141 278 1104 q 392 1174 344 1178 z "},"â":{"ha":796,"x_min":51,"x_max":726,"o":"m 408 693 q 485 691 444 693 q 568 684 526 689 q 651 674 610 679 q 726 661 692 668 l 674 588 q 537 592 597 590 q 444 594 476 594 q 331 585 375 594 q 260 550 286 576 q 217 472 233 524 q 189 336 201 421 q 177 181 175 235 q 202 106 179 126 q 271 86 225 86 q 370 108 321 86 q 472 172 419 129 q 582 274 525 214 l 606 217 q 516 101 571 154 q 393 16 461 49 q 247 -17 325 -17 q 122 17 167 -17 q 64 131 76 51 q 71 346 51 211 q 115 529 88 460 q 184 634 143 599 q 281 681 225 669 q 408 693 336 693 m 607 661 l 726 661 l 633 0 l 540 0 l 550 160 l 538 171 l 607 661 m 519 994 l 692 810 l 647 764 l 482 904 l 471 904 l 264 765 l 229 818 l 436 994 l 519 994 z "},"ấ":{"ha":796,"x_min":51,"x_max":850,"o":"m 408 693 q 485 691 444 693 q 568 684 526 689 q 651 674 610 679 q 726 661 692 668 l 674 588 q 537 592 597 590 q 444 594 476 594 q 331 585 375 594 q 260 550 286 576 q 217 472 233 524 q 189 336 201 421 q 177 181 175 235 q 202 106 179 126 q 271 86 225 86 q 370 108 321 86 q 472 172 419 129 q 582 274 525 214 l 606 217 q 516 101 571 154 q 393 16 461 49 q 247 -17 325 -17 q 122 17 167 -17 q 64 131 76 51 q 71 346 51 211 q 115 529 88 460 q 184 634 143 599 q 281 681 225 669 q 408 693 336 693 m 607 661 l 726 661 l 633 0 l 540 0 l 550 160 l 538 171 l 607 661 m 522 976 l 674 814 l 629 767 l 485 886 l 474 886 l 290 767 l 256 818 l 439 976 l 522 976 m 789 1121 l 850 1044 l 653 910 l 614 954 l 789 1121 z "},"ậ":{"ha":796,"x_min":51,"x_max":726,"o":"m 408 693 q 485 691 444 693 q 568 684 526 689 q 651 674 610 679 q 726 661 692 668 l 674 588 q 537 592 597 590 q 444 594 476 594 q 331 585 375 594 q 260 550 286 576 q 217 472 233 524 q 189 336 201 421 q 177 181 175 235 q 202 106 179 126 q 271 86 225 86 q 370 108 321 86 q 472 172 419 129 q 582 274 525 214 l 606 217 q 516 101 571 154 q 393 16 461 49 q 247 -17 325 -17 q 122 17 167 -17 q 64 131 76 51 q 71 346 51 211 q 115 529 88 460 q 184 634 143 599 q 281 681 225 669 q 408 693 336 693 m 607 661 l 726 661 l 633 0 l 540 0 l 550 160 l 538 171 l 607 661 m 344 -90 q 372 -100 363 -90 q 379 -128 382 -110 l 368 -207 q 331 -240 363 -240 l 292 -240 q 266 -230 275 -240 q 258 -203 257 -219 l 269 -124 q 280 -98 272 -106 q 306 -90 288 -90 l 344 -90 m 519 994 l 692 810 l 647 764 l 482 904 l 469 904 l 264 765 l 229 818 l 435 994 l 519 994 z "},"ầ":{"ha":796,"x_min":51,"x_max":726,"o":"m 408 693 q 485 691 444 693 q 568 684 526 689 q 651 674 610 679 q 726 661 692 668 l 674 588 q 537 592 597 590 q 444 594 476 594 q 331 585 375 594 q 260 550 286 576 q 217 472 233 524 q 189 336 201 421 q 177 181 175 235 q 202 106 179 126 q 271 86 225 86 q 370 108 321 86 q 472 172 419 129 q 582 274 525 214 l 606 217 q 516 101 571 154 q 393 16 461 49 q 247 -17 325 -17 q 122 17 167 -17 q 64 131 76 51 q 71 346 51 211 q 115 529 88 460 q 184 634 143 599 q 281 681 225 669 q 408 693 336 693 m 607 661 l 726 661 l 633 0 l 540 0 l 550 160 l 538 171 l 607 661 m 503 976 l 654 814 l 610 767 l 465 886 l 454 886 l 271 767 l 236 818 l 419 976 l 503 976 m 172 1115 l 319 956 l 275 911 l 106 1046 l 172 1115 z "},"ẩ":{"ha":796,"x_min":51,"x_max":785,"o":"m 408 693 q 485 691 444 693 q 568 684 526 689 q 651 674 610 679 q 726 661 692 668 l 674 588 q 537 592 597 590 q 444 594 476 594 q 331 585 375 594 q 260 550 286 576 q 217 472 233 524 q 189 336 201 421 q 177 181 175 235 q 202 106 179 126 q 271 86 225 86 q 370 108 321 86 q 472 172 419 129 q 582 274 525 214 l 606 217 q 516 101 571 154 q 393 16 461 49 q 247 -17 325 -17 q 122 17 167 -17 q 64 131 76 51 q 71 346 51 211 q 115 529 88 460 q 184 634 143 599 q 281 681 225 669 q 408 693 336 693 m 607 661 l 726 661 l 633 0 l 540 0 l 550 160 l 538 171 l 607 661 m 510 976 l 661 814 l 617 767 l 472 886 l 461 886 l 278 767 l 243 818 l 426 976 l 510 976 m 614 964 q 688 993 667 972 q 710 1044 710 1014 q 685 1078 710 1075 q 624 1068 661 1082 l 622 1129 q 738 1138 690 1154 q 785 1063 785 1121 q 741 961 785 1001 q 617 911 697 921 l 614 964 z "},"ẫ":{"ha":796,"x_min":51,"x_max":726,"o":"m 408 693 q 485 691 444 693 q 568 684 526 689 q 651 674 610 679 q 726 661 692 668 l 674 588 q 537 592 597 590 q 444 594 476 594 q 331 585 375 594 q 260 550 286 576 q 217 472 233 524 q 189 336 201 421 q 177 181 175 235 q 202 106 179 126 q 271 86 225 86 q 370 108 321 86 q 472 172 419 129 q 582 274 525 214 l 606 217 q 516 101 571 154 q 393 16 461 49 q 247 -17 325 -17 q 122 17 167 -17 q 64 131 76 51 q 71 346 51 211 q 115 529 88 460 q 184 634 143 599 q 281 681 225 669 q 408 693 336 693 m 607 661 l 726 661 l 633 0 l 540 0 l 550 160 l 538 171 l 607 661 m 508 976 l 660 814 l 615 767 l 471 886 l 460 886 l 276 767 l 242 818 l 425 976 l 508 976 m 382 1168 q 435 1154 414 1165 q 476 1130 457 1143 q 514 1107 494 1117 q 560 1094 533 1097 q 617 1108 600 1090 q 638 1164 635 1125 l 690 1158 q 658 1047 690 1083 q 576 1013 625 1010 q 517 1026 542 1015 q 474 1051 493 1038 q 436 1076 454 1065 q 396 1089 418 1088 q 340 1073 357 1092 q 318 1014 322 1054 l 265 1019 q 301 1135 268 1099 q 382 1168 335 1172 z "},"ȁ":{"ha":796,"x_min":51,"x_max":726,"o":"m 408 693 q 485 691 444 693 q 568 684 526 689 q 651 674 610 679 q 726 661 692 668 l 674 588 q 537 592 597 590 q 444 594 476 594 q 331 585 375 594 q 260 550 286 576 q 217 472 233 524 q 189 336 201 421 q 177 181 175 235 q 202 106 179 126 q 271 86 225 86 q 370 108 321 86 q 472 172 419 129 q 582 274 525 214 l 606 217 q 516 101 571 154 q 393 16 461 49 q 247 -17 325 -17 q 122 17 167 -17 q 64 131 76 51 q 71 346 51 211 q 115 529 88 460 q 184 634 143 599 q 281 681 225 669 q 408 693 336 693 m 607 661 l 726 661 l 633 0 l 540 0 l 550 160 l 538 171 l 607 661 m 436 1028 l 629 793 l 579 754 l 364 975 l 436 1028 m 208 1028 l 400 793 l 351 754 l 136 975 l 208 1028 z "},"ä":{"ha":796,"x_min":51,"x_max":726,"o":"m 408 693 q 485 691 444 693 q 568 684 526 689 q 651 674 610 679 q 726 661 692 668 l 674 588 q 537 592 597 590 q 444 594 476 594 q 331 585 375 594 q 260 550 286 576 q 217 472 233 524 q 189 336 201 421 q 177 181 175 235 q 202 106 179 126 q 271 86 225 86 q 370 108 321 86 q 472 172 419 129 q 582 274 525 214 l 606 217 q 516 101 571 154 q 393 16 461 49 q 247 -17 325 -17 q 122 17 167 -17 q 64 131 76 51 q 71 346 51 211 q 115 529 88 460 q 184 634 143 599 q 281 681 225 669 q 408 693 336 693 m 607 661 l 726 661 l 633 0 l 540 0 l 550 160 l 538 171 l 607 661 m 376 958 q 403 950 397 958 q 407 925 410 942 l 396 849 q 385 824 394 832 q 358 815 376 815 l 319 815 q 290 847 286 815 l 301 925 q 313 950 304 942 q 340 958 322 958 l 376 958 m 611 958 q 638 950 632 958 q 642 925 644 942 l 631 849 q 620 824 629 832 q 593 815 611 815 l 554 815 q 525 847 521 815 l 536 925 q 548 950 539 942 q 575 958 557 958 l 611 958 z "},"ạ":{"ha":796,"x_min":51,"x_max":726,"o":"m 408 693 q 485 691 444 693 q 568 684 526 689 q 651 674 610 679 q 726 661 692 668 l 674 588 q 537 592 597 590 q 444 594 476 594 q 331 585 375 594 q 260 550 286 576 q 217 472 233 524 q 189 336 201 421 q 177 181 175 235 q 202 106 179 126 q 271 86 225 86 q 370 108 321 86 q 472 172 419 129 q 582 274 525 214 l 606 217 q 516 101 571 154 q 393 16 461 49 q 247 -17 325 -17 q 122 17 167 -17 q 64 131 76 51 q 71 346 51 211 q 115 529 88 460 q 184 634 143 599 q 281 681 225 669 q 408 693 336 693 m 607 661 l 726 661 l 633 0 l 540 0 l 550 160 l 538 171 l 607 661 m 344 -90 q 372 -100 363 -90 q 379 -128 382 -110 l 368 -207 q 331 -240 363 -240 l 293 -240 q 266 -230 275 -240 q 258 -203 257 -219 l 269 -124 q 281 -98 272 -106 q 307 -90 289 -90 l 344 -90 z "},"à":{"ha":796,"x_min":51,"x_max":726,"o":"m 408 693 q 485 691 444 693 q 568 684 526 689 q 651 674 610 679 q 726 661 692 668 l 674 588 q 537 592 597 590 q 444 594 476 594 q 331 585 375 594 q 260 550 286 576 q 217 472 233 524 q 189 336 201 421 q 177 181 175 235 q 202 106 179 126 q 271 86 225 86 q 370 108 321 86 q 472 172 419 129 q 582 274 525 214 l 606 217 q 516 101 571 154 q 393 16 461 49 q 247 -17 325 -17 q 122 17 167 -17 q 64 131 76 51 q 71 346 51 211 q 115 529 88 460 q 184 634 143 599 q 281 681 225 669 q 408 693 336 693 m 607 661 l 726 661 l 633 0 l 540 0 l 550 160 l 538 171 l 607 661 m 286 1019 l 522 815 l 479 763 l 222 936 l 286 1019 z "},"ả":{"ha":796,"x_min":51,"x_max":726,"o":"m 408 693 q 485 691 444 693 q 568 684 526 689 q 651 674 610 679 q 726 661 692 668 l 674 588 q 537 592 597 590 q 444 594 476 594 q 331 585 375 594 q 260 550 286 576 q 217 472 233 524 q 189 336 201 421 q 177 181 175 235 q 202 106 179 126 q 271 86 225 86 q 370 108 321 86 q 472 172 419 129 q 582 274 525 214 l 606 217 q 516 101 571 154 q 393 16 461 49 q 247 -17 325 -17 q 122 17 167 -17 q 64 131 76 51 q 71 346 51 211 q 115 529 88 460 q 184 634 143 599 q 281 681 225 669 q 408 693 336 693 m 607 661 l 726 661 l 633 0 l 540 0 l 550 160 l 538 171 l 607 661 m 414 840 q 494 882 471 851 q 518 951 518 913 q 494 994 518 985 q 425 989 469 1003 l 422 1056 q 551 1056 501 1079 q 601 967 601 1032 q 553 846 601 899 q 418 782 504 793 l 414 840 z "},"ȃ":{"ha":796,"x_min":51,"x_max":726,"o":"m 408 693 q 485 691 444 693 q 568 684 526 689 q 651 674 610 679 q 726 661 692 668 l 674 588 q 537 592 597 590 q 444 594 476 594 q 331 585 375 594 q 260 550 286 576 q 217 472 233 524 q 189 336 201 421 q 177 181 175 235 q 202 106 179 126 q 271 86 225 86 q 370 108 321 86 q 472 172 419 129 q 582 274 525 214 l 606 217 q 516 101 571 154 q 393 16 461 49 q 247 -17 325 -17 q 122 17 167 -17 q 64 131 76 51 q 71 346 51 211 q 115 529 88 460 q 184 634 143 599 q 281 681 225 669 q 408 693 336 693 m 607 661 l 726 661 l 633 0 l 540 0 l 550 160 l 538 171 l 607 661 m 301 786 l 240 800 q 275 894 246 854 q 353 958 304 935 q 467 981 403 981 q 583 957 536 981 q 649 892 629 933 q 657 796 668 850 l 596 792 q 568 867 603 840 q 468 893 533 893 q 351 865 396 893 q 301 786 307 836 z "},"ā":{"ha":796,"x_min":51,"x_max":726,"o":"m 408 693 q 485 691 444 693 q 568 684 526 689 q 651 674 610 679 q 726 661 692 668 l 674 588 q 537 592 597 590 q 444 594 476 594 q 331 585 375 594 q 260 550 286 576 q 217 472 233 524 q 189 336 201 421 q 177 181 175 235 q 202 106 179 126 q 271 86 225 86 q 370 108 321 86 q 472 172 419 129 q 582 274 525 214 l 606 217 q 516 101 571 154 q 393 16 461 49 q 247 -17 325 -17 q 122 17 167 -17 q 64 131 76 51 q 71 346 51 211 q 115 529 88 460 q 184 634 143 599 q 281 681 225 669 q 408 693 336 693 m 607 661 l 726 661 l 633 0 l 540 0 l 550 160 l 538 171 l 607 661 m 664 929 l 653 842 l 265 842 l 276 929 l 664 929 z "},"ą":{"ha":796,"x_min":51,"x_max":726,"o":"m 408 693 q 485 691 444 693 q 568 684 526 689 q 651 674 610 679 q 726 661 692 668 l 674 588 q 537 592 597 590 q 444 594 476 594 q 331 585 375 594 q 260 550 286 576 q 217 472 233 524 q 189 336 201 421 q 177 181 175 235 q 202 106 179 126 q 271 86 225 86 q 370 108 321 86 q 472 172 419 129 q 582 274 525 214 l 606 217 q 516 101 571 154 q 393 16 461 49 q 247 -17 325 -17 q 122 17 167 -17 q 64 131 76 51 q 71 346 51 211 q 115 529 88 460 q 184 634 143 599 q 281 681 225 669 q 408 693 336 693 m 607 661 l 726 661 l 633 0 l 540 0 l 550 160 l 538 171 l 607 661 m 576 4 l 632 0 q 567 -75 597 -36 q 510 -162 538 -114 q 508 -226 482 -212 q 603 -218 535 -240 l 618 -269 q 502 -297 549 -296 q 432 -278 456 -297 q 406 -227 408 -258 q 422 -158 404 -196 q 476 -84 440 -125 q 576 4 513 -43 z "},"å":{"ha":796,"x_min":51,"x_max":726,"o":"m 408 693 q 485 691 444 693 q 568 684 526 689 q 651 674 610 679 q 726 661 692 668 l 674 588 q 537 592 597 590 q 444 594 476 594 q 331 585 375 594 q 260 550 286 576 q 217 472 233 524 q 189 336 201 421 q 177 181 175 235 q 202 106 179 126 q 271 86 225 86 q 370 108 321 86 q 472 172 419 129 q 582 274 525 214 l 606 217 q 516 101 571 154 q 393 16 461 49 q 247 -17 325 -17 q 122 17 167 -17 q 64 131 76 51 q 71 346 51 211 q 115 529 88 460 q 184 634 143 599 q 281 681 225 669 q 408 693 336 693 m 607 661 l 726 661 l 633 0 l 540 0 l 550 160 l 538 171 l 607 661 m 475 1035 q 576 998 538 1035 q 615 901 615 961 q 571 788 615 833 q 457 743 526 743 q 356 780 394 743 q 317 876 317 817 q 362 990 317 944 q 475 1035 407 1035 m 474 974 q 407 947 431 974 q 383 882 383 921 q 403 826 383 849 q 460 804 422 804 q 524 831 500 804 q 549 897 549 858 q 529 952 549 931 q 474 974 510 974 z "},"ǻ":{"ha":796,"x_min":51,"x_max":726,"o":"m 619 1274 l 667 1176 l 390 1069 l 360 1126 l 619 1274 m 408 693 q 485 691 444 693 q 568 684 526 689 q 651 674 610 679 q 726 661 692 668 l 674 588 q 537 592 597 590 q 444 594 476 594 q 331 585 375 594 q 260 550 286 576 q 217 472 233 524 q 189 336 201 421 q 177 181 175 235 q 202 106 179 126 q 271 86 225 86 q 370 108 321 86 q 472 172 419 129 q 582 274 525 214 l 606 217 q 516 101 571 154 q 393 16 461 49 q 247 -17 325 -17 q 122 17 167 -17 q 64 131 76 51 q 71 346 51 211 q 115 529 88 460 q 184 634 143 599 q 281 681 225 669 q 408 693 336 693 m 607 661 l 726 661 l 633 0 l 540 0 l 550 160 l 538 171 l 607 661 m 475 1035 q 576 998 538 1035 q 615 901 615 961 q 571 788 615 833 q 457 743 526 743 q 356 780 394 743 q 317 876 317 817 q 362 990 317 944 q 475 1035 407 1035 m 474 974 q 407 947 431 974 q 383 882 383 921 q 403 826 383 849 q 460 804 422 804 q 524 831 500 804 q 549 897 549 858 q 529 952 549 931 q 474 974 510 974 z "},"ã":{"ha":796,"x_min":51,"x_max":726,"o":"m 408 693 q 485 691 444 693 q 568 684 526 689 q 651 674 610 679 q 726 661 692 668 l 674 588 q 537 592 597 590 q 444 594 476 594 q 331 585 375 594 q 260 550 286 576 q 217 472 233 524 q 189 336 201 421 q 177 181 175 235 q 202 106 179 126 q 271 86 225 86 q 370 108 321 86 q 472 172 419 129 q 582 274 525 214 l 606 217 q 516 101 571 154 q 393 16 461 49 q 247 -17 325 -17 q 122 17 167 -17 q 64 131 76 51 q 71 346 51 211 q 115 529 88 460 q 184 634 143 599 q 281 681 225 669 q 408 693 336 693 m 607 661 l 726 661 l 633 0 l 540 0 l 550 160 l 538 171 l 607 661 m 361 972 q 419 959 394 969 q 464 935 443 949 q 506 910 485 921 q 556 896 528 899 q 616 910 597 890 q 640 968 635 929 l 696 964 q 659 845 694 885 q 572 810 624 806 q 510 824 536 813 q 461 849 483 835 q 419 874 439 863 q 375 889 399 886 q 316 873 335 893 q 292 811 297 853 l 236 817 q 276 938 239 900 q 361 972 313 976 z "},"æ":{"ha":1213,"x_min":51,"x_max":1167,"o":"m 406 693 q 515 688 457 693 q 630 676 572 683 q 736 657 688 668 l 681 585 q 583 590 628 588 q 502 593 538 592 q 442 594 467 594 q 330 585 374 594 q 260 549 286 575 q 219 471 233 522 q 192 336 204 419 q 179 182 178 236 q 202 107 181 128 q 267 86 224 86 q 367 108 318 86 q 466 171 415 129 q 574 274 517 213 l 597 218 q 511 102 564 156 q 391 16 458 49 q 243 -17 324 -17 q 118 19 163 -17 q 63 134 74 54 q 69 346 51 214 q 114 529 86 460 q 183 634 142 599 q 279 681 224 669 q 406 693 335 693 m 904 693 q 1069 669 1011 693 q 1147 596 1128 644 q 1156 476 1167 547 q 1115 372 1144 411 q 1032 314 1085 333 q 899 288 979 294 l 568 257 l 582 346 l 897 376 q 970 391 942 381 q 1015 424 999 401 q 1038 486 1032 447 q 1031 560 1046 538 q 981 589 1017 583 q 889 594 944 594 q 794 585 833 594 q 729 549 756 575 q 685 476 703 524 q 657 353 668 429 q 655 182 640 240 q 714 103 669 124 q 829 83 758 83 q 908 85 865 83 q 994 92 951 88 q 1072 100 1038 96 l 1081 21 q 998 -1 1047 7 q 898 -13 949 -10 q 808 -17 847 -17 q 626 23 693 -17 q 539 145 560 63 q 535 354 518 228 q 574 520 549 454 q 643 624 600 586 q 751 677 686 661 q 904 693 815 693 z "},"ǽ":{"ha":1213,"x_min":51,"x_max":1167,"o":"m 406 693 q 515 688 457 693 q 630 676 572 683 q 736 657 688 668 l 681 585 q 583 590 628 588 q 502 593 538 592 q 442 594 467 594 q 330 585 374 594 q 260 549 286 575 q 219 471 233 522 q 192 336 204 419 q 179 182 178 236 q 202 107 181 128 q 267 86 224 86 q 367 108 318 86 q 466 171 415 129 q 574 274 517 213 l 597 218 q 511 102 564 156 q 391 16 458 49 q 243 -17 324 -17 q 118 19 163 -17 q 63 134 74 54 q 69 346 51 214 q 114 529 86 460 q 183 634 142 599 q 279 681 224 669 q 406 693 335 693 m 904 693 q 1069 669 1011 693 q 1147 596 1128 644 q 1156 476 1167 547 q 1115 372 1144 411 q 1032 314 1085 333 q 899 288 979 294 l 568 257 l 582 346 l 897 376 q 970 391 942 381 q 1015 424 999 401 q 1038 486 1032 447 q 1031 560 1046 538 q 981 589 1017 583 q 889 594 944 594 q 794 585 833 594 q 729 549 756 575 q 685 476 703 524 q 657 353 668 429 q 655 182 640 240 q 714 103 669 124 q 829 83 758 83 q 908 85 865 83 q 994 92 951 88 q 1072 100 1038 96 l 1081 21 q 998 -1 1047 7 q 898 -13 949 -10 q 808 -17 847 -17 q 626 23 693 -17 q 539 145 560 63 q 535 354 518 228 q 574 520 549 454 q 643 624 600 586 q 751 677 686 661 q 904 693 815 693 m 890 1021 l 947 929 l 660 763 l 624 817 l 890 1021 z "},"b":{"ha":796,"x_min":51,"x_max":725,"o":"m 528 693 q 651 662 606 693 q 711 552 697 631 q 706 331 725 474 q 661 146 689 215 q 594 41 633 76 q 501 -6 554 6 q 382 -18 449 -18 q 300 -15 343 -18 q 213 -4 257 -11 q 128 12 169 3 q 51 32 88 21 l 107 93 q 202 86 157 89 q 283 82 247 83 q 339 81 318 81 q 450 90 407 81 q 518 126 493 99 q 558 204 543 153 q 585 339 574 256 q 597 497 600 443 q 570 571 593 551 q 500 590 547 590 q 367 544 447 590 q 194 410 288 497 l 171 463 q 240 541 199 500 q 331 616 282 582 q 430 672 379 650 q 528 693 481 693 m 300 972 l 263 692 q 247 605 256 644 q 225 524 239 565 l 235 507 l 168 26 l 51 32 l 183 972 l 300 972 z "},"c":{"ha":672,"x_min":46,"x_max":644,"o":"m 428 693 q 537 686 476 693 q 644 660 597 679 l 625 586 q 530 592 581 590 q 447 593 479 593 q 313 572 365 593 q 231 496 260 551 q 188 333 201 440 q 186 176 174 229 q 242 103 199 122 q 363 83 285 83 q 419 85 385 83 q 492 89 453 86 q 565 97 531 92 l 574 17 q 460 -8 521 0 q 342 -17 399 -17 q 156 19 224 -17 q 67 135 89 56 q 64 343 46 214 q 124 549 83 472 q 239 660 165 626 q 428 693 313 693 z "},"ć":{"ha":672,"x_min":46,"x_max":654,"o":"m 428 693 q 537 686 476 693 q 644 660 597 679 l 625 586 q 530 592 581 590 q 447 593 479 593 q 313 572 365 593 q 231 496 260 551 q 188 333 201 440 q 186 176 174 229 q 242 103 199 122 q 363 83 285 83 q 419 85 385 83 q 492 89 453 86 q 565 97 531 92 l 574 17 q 460 -8 521 0 q 342 -17 399 -17 q 156 19 224 -17 q 67 135 89 56 q 64 343 46 214 q 124 549 83 472 q 239 660 165 626 q 428 693 313 693 m 597 1021 l 654 929 l 367 763 l 331 817 l 597 1021 z "},"č":{"ha":672,"x_min":46,"x_max":674,"o":"m 428 693 q 537 686 476 693 q 644 660 597 679 l 625 586 q 530 592 581 590 q 447 593 479 593 q 313 572 365 593 q 231 496 260 551 q 188 333 201 440 q 186 176 174 229 q 242 103 199 122 q 363 83 285 83 q 419 85 385 83 q 492 89 453 86 q 565 97 531 92 l 574 17 q 460 -8 521 0 q 342 -17 399 -17 q 156 19 224 -17 q 67 135 89 56 q 64 343 46 214 q 124 549 83 472 q 239 660 165 626 q 428 693 313 693 m 636 1010 l 674 960 l 465 782 l 379 782 l 217 967 l 265 1010 l 422 872 l 433 872 l 636 1010 z "},"ç":{"ha":672,"x_min":46,"x_max":644,"o":"m 428 693 q 537 686 476 693 q 644 660 597 679 l 625 586 q 530 592 581 590 q 447 593 479 593 q 313 572 365 593 q 231 496 260 551 q 188 333 201 440 q 186 176 174 229 q 242 103 199 122 q 363 83 285 83 q 419 85 385 83 q 492 89 453 86 q 565 97 531 92 l 574 17 q 460 -8 521 0 q 342 -17 399 -17 q 156 19 224 -17 q 67 135 89 56 q 64 343 46 214 q 124 549 83 472 q 239 660 165 626 q 428 693 313 693 m 253 -76 q 342 -77 307 -71 q 391 -106 376 -83 q 397 -172 406 -128 q 353 -269 389 -229 q 264 -326 318 -308 q 144 -335 210 -343 l 167 -272 q 265 -244 224 -274 q 313 -171 306 -215 q 303 -140 317 -147 q 239 -132 289 -133 l 253 -76 z "},"ḉ":{"ha":672,"x_min":46,"x_max":654,"o":"m 428 693 q 537 686 476 693 q 644 660 597 679 l 625 586 q 530 592 581 590 q 447 593 479 593 q 313 572 365 593 q 231 496 260 551 q 188 333 201 440 q 186 176 174 229 q 242 103 199 122 q 363 83 285 83 q 419 85 385 83 q 492 89 453 86 q 565 97 531 92 l 574 17 q 460 -8 521 0 q 342 -17 399 -17 q 156 19 224 -17 q 67 135 89 56 q 64 343 46 214 q 124 549 83 472 q 239 660 165 626 q 428 693 313 693 m 253 -76 q 342 -77 307 -71 q 390 -106 376 -83 q 397 -172 404 -128 q 352 -269 388 -229 q 263 -326 317 -308 q 144 -335 210 -343 l 167 -272 q 264 -244 224 -274 q 313 -171 304 -215 q 302 -140 315 -147 q 238 -132 289 -133 l 253 -76 m 597 1021 l 654 929 l 367 763 l 331 817 l 597 1021 z "},"ĉ":{"ha":672,"x_min":46,"x_max":660,"o":"m 428 693 q 537 686 476 693 q 644 660 597 679 l 625 586 q 530 592 581 590 q 447 593 479 593 q 313 572 365 593 q 231 496 260 551 q 188 333 201 440 q 186 176 174 229 q 242 103 199 122 q 363 83 285 83 q 419 85 385 83 q 492 89 453 86 q 565 97 531 92 l 574 17 q 460 -8 521 0 q 342 -17 399 -17 q 156 19 224 -17 q 67 135 89 56 q 64 343 46 214 q 124 549 83 472 q 239 660 165 626 q 428 693 313 693 m 488 994 l 660 810 l 615 764 l 450 904 l 439 904 l 232 765 l 197 818 l 404 994 l 488 994 z "},"ċ":{"ha":672,"x_min":46,"x_max":644,"o":"m 428 693 q 537 686 476 693 q 644 660 597 679 l 625 586 q 530 592 581 590 q 447 593 479 593 q 313 572 365 593 q 231 496 260 551 q 188 333 201 440 q 186 176 174 229 q 242 103 199 122 q 363 83 285 83 q 419 85 385 83 q 492 89 453 86 q 565 97 531 92 l 574 17 q 460 -8 521 0 q 342 -17 399 -17 q 156 19 224 -17 q 67 135 89 56 q 64 343 46 214 q 124 549 83 472 q 239 660 165 626 q 428 693 313 693 m 460 954 q 486 944 476 954 q 493 917 496 935 l 482 839 q 444 804 478 804 l 407 804 q 380 815 389 804 q 374 842 371 825 l 383 921 q 394 947 386 939 q 421 954 403 954 l 460 954 z "},"d":{"ha":794,"x_min":51,"x_max":768,"o":"m 396 693 q 554 684 469 693 q 706 661 639 675 l 674 590 q 537 594 597 593 q 440 596 476 596 q 328 587 372 596 q 258 551 285 578 q 217 474 232 525 q 189 336 201 422 q 177 185 175 239 q 200 108 179 131 q 267 86 221 86 q 413 133 340 86 q 581 274 485 179 l 604 217 q 542 140 579 181 q 456 64 504 100 q 352 6 408 28 q 233 -17 296 -17 q 122 17 165 -17 q 65 131 79 51 q 69 346 51 211 q 114 528 86 460 q 182 633 142 597 q 275 681 222 668 q 396 693 328 693 m 768 972 l 632 0 l 539 0 l 549 153 l 538 163 l 603 642 l 615 664 q 618 733 615 700 q 626 806 621 767 l 650 972 l 768 972 z "},"ð":{"ha":771,"x_min":47,"x_max":700,"o":"m 251 969 q 401 957 329 972 q 533 903 474 942 q 632 798 592 865 q 686 630 672 731 q 682 388 700 529 q 647 220 669 294 q 583 92 624 146 q 478 10 542 39 q 319 -18 414 -18 q 153 17 215 -18 q 69 126 90 53 q 61 308 47 199 q 153 538 81 454 q 374 622 225 622 q 439 617 406 622 q 505 596 472 611 q 567 552 538 581 q 622 476 597 524 l 613 428 q 546 486 581 465 q 474 515 511 507 q 399 524 438 524 q 284 497 328 524 q 217 421 240 471 q 183 300 193 371 q 200 131 165 179 q 325 82 235 82 q 450 117 403 82 q 523 223 497 151 q 563 404 549 294 q 569 619 579 532 q 528 758 558 706 q 451 839 497 811 q 349 876 404 867 q 233 883 293 885 l 251 969 m 650 986 l 685 936 l 371 719 l 339 767 l 650 986 z "},"ď":{"ha":794,"x_min":51,"x_max":967,"o":"m 396 693 q 554 684 469 693 q 706 661 639 675 l 674 590 q 537 594 597 593 q 440 596 476 596 q 328 587 372 596 q 258 551 285 578 q 217 474 232 525 q 189 336 201 422 q 177 185 175 239 q 200 108 179 131 q 267 86 221 86 q 413 133 340 86 q 581 274 485 179 l 604 217 q 542 140 579 181 q 456 64 504 100 q 352 6 408 28 q 233 -17 296 -17 q 122 17 165 -17 q 65 131 79 51 q 69 346 51 211 q 114 528 86 460 q 182 633 142 597 q 275 681 222 668 q 396 693 328 693 m 768 972 l 632 0 l 539 0 l 549 153 l 538 163 l 603 642 l 615 664 q 618 733 615 700 q 626 806 621 767 l 650 972 l 768 972 m 932 972 q 959 963 951 972 q 964 933 967 954 l 953 853 q 926 758 947 810 q 883 668 906 707 l 833 685 q 858 754 846 717 q 876 831 871 792 q 853 839 861 829 q 846 863 844 849 l 857 938 q 870 965 861 957 q 903 972 879 972 l 932 972 z "},"đ":{"ha":794,"x_min":51,"x_max":854,"o":"m 854 867 l 846 800 l 419 800 l 429 867 l 854 867 m 396 693 q 554 684 469 693 q 706 661 639 675 l 674 590 q 537 594 597 593 q 440 596 476 596 q 328 587 372 596 q 258 551 285 578 q 217 474 232 525 q 189 336 201 422 q 177 185 175 239 q 200 108 179 131 q 267 86 221 86 q 413 133 340 86 q 581 274 485 179 l 604 217 q 542 140 579 181 q 456 64 504 100 q 352 6 408 28 q 233 -17 296 -17 q 122 17 165 -17 q 65 131 79 51 q 69 346 51 211 q 114 528 86 460 q 182 633 142 597 q 275 681 222 668 q 396 693 328 693 m 768 972 l 632 0 l 539 0 l 549 153 l 538 163 l 603 642 l 615 664 q 618 733 615 700 q 626 806 621 767 l 650 972 l 768 972 z "},"ḍ":{"ha":794,"x_min":51,"x_max":768,"o":"m 396 693 q 554 684 469 693 q 706 661 639 675 l 674 590 q 537 594 597 593 q 440 596 476 596 q 328 587 372 596 q 258 551 285 578 q 217 474 232 525 q 189 336 201 422 q 177 185 175 239 q 200 108 179 131 q 267 86 221 86 q 413 133 340 86 q 581 274 485 179 l 604 217 q 542 140 579 181 q 456 64 504 100 q 352 6 408 28 q 233 -17 296 -17 q 122 17 165 -17 q 65 131 79 51 q 69 346 51 211 q 114 528 86 460 q 182 633 142 597 q 275 681 222 668 q 396 693 328 693 m 768 972 l 632 0 l 539 0 l 549 153 l 538 163 l 603 642 l 615 664 q 618 733 615 700 q 626 806 621 767 l 650 972 l 768 972 m 372 -90 q 400 -100 390 -90 q 407 -128 410 -110 l 396 -207 q 358 -240 390 -240 l 319 -240 q 294 -230 303 -240 q 286 -203 285 -219 l 297 -124 q 308 -98 300 -106 q 333 -90 315 -90 l 372 -90 z "},"ḏ":{"ha":794,"x_min":51,"x_max":768,"o":"m 396 693 q 554 684 469 693 q 706 661 639 675 l 674 590 q 537 594 597 593 q 440 596 476 596 q 328 587 372 596 q 258 551 285 578 q 217 474 232 525 q 189 336 201 422 q 177 185 175 239 q 200 108 179 131 q 267 86 221 86 q 413 133 340 86 q 581 274 485 179 l 604 217 q 542 140 579 181 q 456 64 504 100 q 352 6 408 28 q 233 -17 296 -17 q 122 17 165 -17 q 65 131 79 51 q 69 346 51 211 q 114 528 86 460 q 182 633 142 597 q 275 681 222 668 q 396 693 328 693 m 768 972 l 632 0 l 539 0 l 549 153 l 538 163 l 603 642 l 615 664 q 618 733 615 700 q 626 806 621 767 l 650 972 l 768 972 m 543 -126 l 531 -214 l 143 -214 l 156 -126 l 543 -126 z "},"ǆ":{"ha":1494,"x_min":51,"x_max":1463,"o":"m 396 693 q 554 684 469 693 q 706 661 639 675 l 674 590 q 537 594 597 593 q 440 596 476 596 q 328 587 372 596 q 258 551 285 578 q 217 474 232 525 q 189 336 201 422 q 177 185 175 239 q 200 108 179 131 q 267 86 221 86 q 413 133 340 86 q 581 274 485 179 l 604 217 q 542 140 579 181 q 456 64 504 100 q 352 6 408 28 q 233 -17 296 -17 q 122 17 165 -17 q 65 131 79 51 q 69 346 51 211 q 114 528 86 460 q 182 633 142 597 q 275 681 222 668 q 396 693 328 693 m 768 972 l 632 0 l 539 0 l 549 153 l 538 163 l 603 642 l 615 664 q 618 733 615 700 q 626 806 621 767 l 650 972 l 768 972 m 1314 581 l 1450 579 l 951 94 l 815 96 l 1314 581 m 1386 96 l 1372 0 l 803 0 l 817 96 l 1386 96 m 1463 676 l 1449 579 l 890 579 l 903 676 l 1463 676 m 1407 1010 l 1444 960 l 1236 782 l 1150 782 l 988 967 l 1036 1010 l 1193 872 l 1204 872 l 1407 1010 z "},"e":{"ha":746,"x_min":50,"x_max":700,"o":"m 436 693 q 601 669 543 693 q 680 596 660 644 q 688 476 700 547 q 647 372 676 411 q 564 314 617 333 q 431 288 511 294 l 101 257 l 114 346 l 429 376 q 503 391 475 381 q 548 424 532 401 q 571 486 564 447 q 564 560 579 538 q 513 589 549 583 q 421 594 476 594 q 326 585 365 594 q 261 549 288 575 q 218 476 235 524 q 189 353 201 429 q 188 182 172 240 q 247 103 203 124 q 361 83 290 83 q 442 85 399 83 q 529 92 486 88 q 610 100 572 96 l 618 21 q 533 -1 583 7 q 433 -13 483 -10 q 342 -17 382 -17 q 159 23 225 -17 q 72 145 93 63 q 67 354 50 228 q 107 520 81 454 q 176 624 133 586 q 283 677 219 661 q 436 693 347 693 z "},"é":{"ha":746,"x_min":50,"x_max":700,"o":"m 436 693 q 601 669 543 693 q 680 596 660 644 q 688 476 700 547 q 647 372 676 411 q 564 314 617 333 q 431 288 511 294 l 101 257 l 114 346 l 429 376 q 503 391 475 381 q 548 424 532 401 q 571 486 564 447 q 564 560 579 538 q 513 589 549 583 q 421 594 476 594 q 326 585 365 594 q 261 549 288 575 q 218 476 235 524 q 189 353 201 429 q 188 182 172 240 q 247 103 203 124 q 361 83 290 83 q 442 85 399 83 q 529 92 486 88 q 610 100 572 96 l 618 21 q 533 -1 583 7 q 433 -13 483 -10 q 342 -17 382 -17 q 159 23 225 -17 q 72 145 93 63 q 67 354 50 228 q 107 520 81 454 q 176 624 133 586 q 283 677 219 661 q 436 693 347 693 m 622 1021 l 679 929 l 392 763 l 356 817 l 622 1021 z "},"ĕ":{"ha":746,"x_min":50,"x_max":700,"o":"m 436 693 q 601 669 543 693 q 680 596 660 644 q 688 476 700 547 q 647 372 676 411 q 564 314 617 333 q 431 288 511 294 l 101 257 l 114 346 l 429 376 q 503 391 475 381 q 548 424 532 401 q 571 486 564 447 q 564 560 579 538 q 513 589 549 583 q 421 594 476 594 q 326 585 365 594 q 261 549 288 575 q 218 476 235 524 q 189 353 201 429 q 188 182 172 240 q 247 103 203 124 q 361 83 290 83 q 442 85 399 83 q 529 92 486 88 q 610 100 572 96 l 618 21 q 533 -1 583 7 q 433 -13 483 -10 q 342 -17 382 -17 q 159 23 225 -17 q 72 145 93 63 q 67 354 50 228 q 107 520 81 454 q 176 624 133 586 q 283 677 219 661 q 436 693 347 693 m 617 981 l 676 967 q 643 872 672 913 q 565 809 614 832 q 450 786 515 786 q 335 810 382 786 q 269 876 289 833 q 261 971 250 918 l 322 976 q 350 900 315 926 q 450 874 385 874 q 567 903 522 874 q 617 981 611 932 z "},"ě":{"ha":746,"x_min":50,"x_max":700,"o":"m 436 693 q 601 669 543 693 q 680 596 660 644 q 688 476 700 547 q 647 372 676 411 q 564 314 617 333 q 431 288 511 294 l 101 257 l 114 346 l 429 376 q 503 391 475 381 q 548 424 532 401 q 571 486 564 447 q 564 560 579 538 q 513 589 549 583 q 421 594 476 594 q 326 585 365 594 q 261 549 288 575 q 218 476 235 524 q 189 353 201 429 q 188 182 172 240 q 247 103 203 124 q 361 83 290 83 q 442 85 399 83 q 529 92 486 88 q 610 100 572 96 l 618 21 q 533 -1 583 7 q 433 -13 483 -10 q 342 -17 382 -17 q 159 23 225 -17 q 72 145 93 63 q 67 354 50 228 q 107 520 81 454 q 176 624 133 586 q 283 677 219 661 q 436 693 347 693 m 660 1010 l 697 960 l 489 782 l 403 782 l 240 967 l 289 1010 l 446 872 l 457 872 l 660 1010 z "},"ḝ":{"ha":746,"x_min":50,"x_max":700,"o":"m 436 693 q 601 669 543 693 q 680 596 660 644 q 688 476 700 547 q 647 372 676 411 q 564 314 617 333 q 431 288 511 294 l 101 257 l 114 346 l 429 376 q 503 391 475 381 q 548 424 532 401 q 571 486 564 447 q 564 560 579 538 q 513 589 549 583 q 421 594 476 594 q 326 585 365 594 q 261 549 288 575 q 218 476 235 524 q 189 353 201 429 q 188 182 172 240 q 247 103 203 124 q 361 83 290 83 q 442 85 399 83 q 529 92 486 88 q 610 100 572 96 l 618 21 q 533 -1 583 7 q 433 -13 483 -10 q 342 -17 382 -17 q 159 23 225 -17 q 72 145 93 63 q 67 354 50 228 q 107 520 81 454 q 176 624 133 586 q 283 677 219 661 q 436 693 347 693 m 271 -78 q 360 -78 325 -72 q 408 -107 394 -85 q 415 -174 422 -129 q 370 -270 406 -231 q 281 -327 335 -310 q 163 -336 228 -344 l 185 -274 q 282 -246 242 -275 q 331 -172 322 -217 q 320 -142 333 -149 q 256 -133 307 -135 l 271 -78 m 617 981 l 676 967 q 643 872 672 913 q 565 809 614 832 q 450 786 515 786 q 335 810 382 786 q 269 876 289 833 q 261 971 250 918 l 322 976 q 350 900 315 926 q 450 874 385 874 q 567 903 522 874 q 617 981 611 932 z "},"ê":{"ha":746,"x_min":50,"x_max":700,"o":"m 436 693 q 601 669 543 693 q 680 596 660 644 q 688 476 700 547 q 647 372 676 411 q 564 314 617 333 q 431 288 511 294 l 101 257 l 114 346 l 429 376 q 503 391 475 381 q 548 424 532 401 q 571 486 564 447 q 564 560 579 538 q 513 589 549 583 q 421 594 476 594 q 326 585 365 594 q 261 549 288 575 q 218 476 235 524 q 189 353 201 429 q 188 182 172 240 q 247 103 203 124 q 361 83 290 83 q 442 85 399 83 q 529 92 486 88 q 610 100 572 96 l 618 21 q 533 -1 583 7 q 433 -13 483 -10 q 342 -17 382 -17 q 159 23 225 -17 q 72 145 93 63 q 67 354 50 228 q 107 520 81 454 q 176 624 133 586 q 283 677 219 661 q 436 693 347 693 m 511 994 l 683 810 l 639 764 l 474 904 l 463 904 l 256 765 l 221 818 l 428 994 l 511 994 z "},"ế":{"ha":746,"x_min":50,"x_max":843,"o":"m 436 693 q 601 669 543 693 q 680 596 660 644 q 688 476 700 547 q 647 372 676 411 q 564 314 617 333 q 431 288 511 294 l 101 257 l 114 346 l 429 376 q 503 391 475 381 q 548 424 532 401 q 571 486 564 447 q 564 560 579 538 q 513 589 549 583 q 421 594 476 594 q 326 585 365 594 q 261 549 288 575 q 218 476 235 524 q 189 353 201 429 q 188 182 172 240 q 247 103 203 124 q 361 83 290 83 q 442 85 399 83 q 529 92 486 88 q 610 100 572 96 l 618 21 q 533 -1 583 7 q 433 -13 483 -10 q 342 -17 382 -17 q 159 23 225 -17 q 72 145 93 63 q 67 354 50 228 q 107 520 81 454 q 176 624 133 586 q 283 677 219 661 q 436 693 347 693 m 515 976 l 667 814 l 622 767 l 478 886 l 467 886 l 283 767 l 249 818 l 432 976 l 515 976 m 782 1121 l 843 1044 l 646 910 l 607 954 l 782 1121 z "},"ệ":{"ha":746,"x_min":50,"x_max":700,"o":"m 436 693 q 601 669 543 693 q 680 596 660 644 q 688 476 700 547 q 647 372 676 411 q 564 314 617 333 q 431 288 511 294 l 101 257 l 114 346 l 429 376 q 503 391 475 381 q 548 424 532 401 q 571 486 564 447 q 564 560 579 538 q 513 589 549 583 q 421 594 476 594 q 326 585 365 594 q 261 549 288 575 q 218 476 235 524 q 189 353 201 429 q 188 182 172 240 q 247 103 203 124 q 361 83 290 83 q 442 85 399 83 q 529 92 486 88 q 610 100 572 96 l 618 21 q 533 -1 583 7 q 433 -13 483 -10 q 342 -17 382 -17 q 159 23 225 -17 q 72 145 93 63 q 67 354 50 228 q 107 520 81 454 q 176 624 133 586 q 283 677 219 661 q 436 693 347 693 m 353 -90 q 381 -100 371 -90 q 388 -128 390 -110 l 376 -207 q 339 -240 371 -240 l 300 -240 q 274 -230 283 -240 q 267 -203 265 -219 l 278 -124 q 288 -98 281 -106 q 314 -90 296 -90 l 353 -90 m 513 994 l 685 810 l 640 764 l 475 904 l 463 904 l 257 765 l 222 818 l 428 994 l 513 994 z "},"ề":{"ha":746,"x_min":50,"x_max":700,"o":"m 436 693 q 601 669 543 693 q 680 596 660 644 q 688 476 700 547 q 647 372 676 411 q 564 314 617 333 q 431 288 511 294 l 101 257 l 114 346 l 429 376 q 503 391 475 381 q 548 424 532 401 q 571 486 564 447 q 564 560 579 538 q 513 589 549 583 q 421 594 476 594 q 326 585 365 594 q 261 549 288 575 q 218 476 235 524 q 189 353 201 429 q 188 182 172 240 q 247 103 203 124 q 361 83 290 83 q 442 85 399 83 q 529 92 486 88 q 610 100 572 96 l 618 21 q 533 -1 583 7 q 433 -13 483 -10 q 342 -17 382 -17 q 159 23 225 -17 q 72 145 93 63 q 67 354 50 228 q 107 520 81 454 q 176 624 133 586 q 283 677 219 661 q 436 693 347 693 m 496 976 l 647 814 l 603 767 l 458 886 l 447 886 l 264 767 l 229 818 l 413 976 l 496 976 m 165 1115 l 313 956 l 268 911 l 99 1046 l 165 1115 z "},"ể":{"ha":746,"x_min":50,"x_max":776,"o":"m 436 693 q 601 669 543 693 q 680 596 660 644 q 688 476 700 547 q 647 372 676 411 q 564 314 617 333 q 431 288 511 294 l 101 257 l 114 346 l 429 376 q 503 391 475 381 q 548 424 532 401 q 571 486 564 447 q 564 560 579 538 q 513 589 549 583 q 421 594 476 594 q 326 585 365 594 q 261 549 288 575 q 218 476 235 524 q 189 353 201 429 q 188 182 172 240 q 247 103 203 124 q 361 83 290 83 q 442 85 399 83 q 529 92 486 88 q 610 100 572 96 l 618 21 q 533 -1 583 7 q 433 -13 483 -10 q 342 -17 382 -17 q 159 23 225 -17 q 72 145 93 63 q 67 354 50 228 q 107 520 81 454 q 176 624 133 586 q 283 677 219 661 q 436 693 347 693 m 501 976 l 653 814 l 608 767 l 464 886 l 453 886 l 269 767 l 235 818 l 418 976 l 501 976 m 606 964 q 680 993 658 972 q 701 1044 701 1014 q 677 1078 701 1075 q 615 1068 653 1082 l 614 1129 q 729 1138 682 1154 q 776 1063 776 1121 q 733 961 776 1001 q 608 911 689 921 l 606 964 z "},"ễ":{"ha":746,"x_min":50,"x_max":700,"o":"m 436 693 q 601 669 543 693 q 680 596 660 644 q 688 476 700 547 q 647 372 676 411 q 564 314 617 333 q 431 288 511 294 l 101 257 l 114 346 l 429 376 q 503 391 475 381 q 548 424 532 401 q 571 486 564 447 q 564 560 579 538 q 513 589 549 583 q 421 594 476 594 q 326 585 365 594 q 261 549 288 575 q 218 476 235 524 q 189 353 201 429 q 188 182 172 240 q 247 103 203 124 q 361 83 290 83 q 442 85 399 83 q 529 92 486 88 q 610 100 572 96 l 618 21 q 533 -1 583 7 q 433 -13 483 -10 q 342 -17 382 -17 q 159 23 225 -17 q 72 145 93 63 q 67 354 50 228 q 107 520 81 454 q 176 624 133 586 q 283 677 219 661 q 436 693 347 693 m 501 976 l 653 814 l 608 767 l 464 886 l 453 886 l 269 767 l 235 818 l 418 976 l 501 976 m 375 1168 q 428 1154 407 1165 q 469 1130 450 1143 q 507 1107 488 1117 q 553 1094 526 1097 q 610 1108 593 1090 q 631 1164 628 1125 l 683 1158 q 651 1047 683 1083 q 569 1013 618 1010 q 510 1026 535 1015 q 467 1051 486 1038 q 429 1076 447 1065 q 389 1089 411 1088 q 333 1073 350 1092 q 311 1014 315 1054 l 258 1019 q 294 1135 261 1099 q 375 1168 328 1172 z "},"ȅ":{"ha":746,"x_min":50,"x_max":700,"o":"m 436 693 q 601 669 543 693 q 680 596 660 644 q 688 476 700 547 q 647 372 676 411 q 564 314 617 333 q 431 288 511 294 l 101 257 l 114 346 l 429 376 q 503 391 475 381 q 548 424 532 401 q 571 486 564 447 q 564 560 579 538 q 513 589 549 583 q 421 594 476 594 q 326 585 365 594 q 261 549 288 575 q 218 476 235 524 q 189 353 201 429 q 188 182 172 240 q 247 103 203 124 q 361 83 290 83 q 442 85 399 83 q 529 92 486 88 q 610 100 572 96 l 618 21 q 533 -1 583 7 q 433 -13 483 -10 q 342 -17 382 -17 q 159 23 225 -17 q 72 145 93 63 q 67 354 50 228 q 107 520 81 454 q 176 624 133 586 q 283 677 219 661 q 436 693 347 693 m 429 1028 l 622 793 l 572 754 l 357 975 l 429 1028 m 201 1028 l 393 793 l 344 754 l 129 975 l 201 1028 z "},"ë":{"ha":746,"x_min":50,"x_max":700,"o":"m 436 693 q 601 669 543 693 q 680 596 660 644 q 688 476 700 547 q 647 372 676 411 q 564 314 617 333 q 431 288 511 294 l 101 257 l 114 346 l 429 376 q 503 391 475 381 q 548 424 532 401 q 571 486 564 447 q 564 560 579 538 q 513 589 549 583 q 421 594 476 594 q 326 585 365 594 q 261 549 288 575 q 218 476 235 524 q 189 353 201 429 q 188 182 172 240 q 247 103 203 124 q 361 83 290 83 q 442 85 399 83 q 529 92 486 88 q 610 100 572 96 l 618 21 q 533 -1 583 7 q 433 -13 483 -10 q 342 -17 382 -17 q 159 23 225 -17 q 72 145 93 63 q 67 354 50 228 q 107 520 81 454 q 176 624 133 586 q 283 677 219 661 q 436 693 347 693 m 368 958 q 395 950 389 958 q 399 925 401 942 l 388 849 q 377 824 386 832 q 350 815 368 815 l 311 815 q 282 847 278 815 l 293 925 q 305 950 296 942 q 332 958 314 958 l 368 958 m 603 958 q 630 950 624 958 q 633 925 636 942 l 622 849 q 612 824 621 832 q 585 815 603 815 l 546 815 q 517 847 513 815 l 528 925 q 540 950 531 942 q 567 958 549 958 l 603 958 z "},"ė":{"ha":746,"x_min":50,"x_max":700,"o":"m 436 693 q 601 669 543 693 q 680 596 660 644 q 688 476 700 547 q 647 372 676 411 q 564 314 617 333 q 431 288 511 294 l 101 257 l 114 346 l 429 376 q 503 391 475 381 q 548 424 532 401 q 571 486 564 447 q 564 560 579 538 q 513 589 549 583 q 421 594 476 594 q 326 585 365 594 q 261 549 288 575 q 218 476 235 524 q 189 353 201 429 q 188 182 172 240 q 247 103 203 124 q 361 83 290 83 q 442 85 399 83 q 529 92 486 88 q 610 100 572 96 l 618 21 q 533 -1 583 7 q 433 -13 483 -10 q 342 -17 382 -17 q 159 23 225 -17 q 72 145 93 63 q 67 354 50 228 q 107 520 81 454 q 176 624 133 586 q 283 677 219 661 q 436 693 347 693 m 483 954 q 510 944 500 954 q 517 917 519 935 l 506 839 q 468 804 501 804 l 431 804 q 403 815 413 804 q 397 842 394 825 l 407 921 q 418 947 410 939 q 444 954 426 954 l 483 954 z "},"ẹ":{"ha":746,"x_min":50,"x_max":700,"o":"m 436 693 q 601 669 543 693 q 680 596 660 644 q 688 476 700 547 q 647 372 676 411 q 564 314 617 333 q 431 288 511 294 l 101 257 l 114 346 l 429 376 q 503 391 475 381 q 548 424 532 401 q 571 486 564 447 q 564 560 579 538 q 513 589 549 583 q 421 594 476 594 q 326 585 365 594 q 261 549 288 575 q 218 476 235 524 q 189 353 201 429 q 188 182 172 240 q 247 103 203 124 q 361 83 290 83 q 442 85 399 83 q 529 92 486 88 q 610 100 572 96 l 618 21 q 533 -1 583 7 q 433 -13 483 -10 q 342 -17 382 -17 q 159 23 225 -17 q 72 145 93 63 q 67 354 50 228 q 107 520 81 454 q 176 624 133 586 q 283 677 219 661 q 436 693 347 693 m 353 -90 q 381 -100 371 -90 q 388 -128 390 -110 l 376 -207 q 339 -240 371 -240 l 301 -240 q 274 -230 283 -240 q 267 -203 265 -219 l 278 -124 q 289 -98 281 -106 q 315 -90 297 -90 l 353 -90 z "},"è":{"ha":746,"x_min":50,"x_max":700,"o":"m 436 693 q 601 669 543 693 q 680 596 660 644 q 688 476 700 547 q 647 372 676 411 q 564 314 617 333 q 431 288 511 294 l 101 257 l 114 346 l 429 376 q 503 391 475 381 q 548 424 532 401 q 571 486 564 447 q 564 560 579 538 q 513 589 549 583 q 421 594 476 594 q 326 585 365 594 q 261 549 288 575 q 218 476 235 524 q 189 353 201 429 q 188 182 172 240 q 247 103 203 124 q 361 83 290 83 q 442 85 399 83 q 529 92 486 88 q 610 100 572 96 l 618 21 q 533 -1 583 7 q 433 -13 483 -10 q 342 -17 382 -17 q 159 23 225 -17 q 72 145 93 63 q 67 354 50 228 q 107 520 81 454 q 176 624 133 586 q 283 677 219 661 q 436 693 347 693 m 278 1019 l 514 815 l 471 763 l 214 936 l 278 1019 z "},"ẻ":{"ha":746,"x_min":50,"x_max":700,"o":"m 436 693 q 601 669 543 693 q 680 596 660 644 q 688 476 700 547 q 647 372 676 411 q 564 314 617 333 q 431 288 511 294 l 101 257 l 114 346 l 429 376 q 503 391 475 381 q 548 424 532 401 q 571 486 564 447 q 564 560 579 538 q 513 589 549 583 q 421 594 476 594 q 326 585 365 594 q 261 549 288 575 q 218 476 235 524 q 189 353 201 429 q 188 182 172 240 q 247 103 203 124 q 361 83 290 83 q 442 85 399 83 q 529 92 486 88 q 610 100 572 96 l 618 21 q 533 -1 583 7 q 433 -13 483 -10 q 342 -17 382 -17 q 159 23 225 -17 q 72 145 93 63 q 67 354 50 228 q 107 520 81 454 q 176 624 133 586 q 283 677 219 661 q 436 693 347 693 m 407 840 q 488 882 464 851 q 511 951 511 913 q 487 994 511 985 q 418 989 463 1003 l 415 1056 q 544 1056 494 1079 q 594 967 594 1032 q 546 846 594 899 q 411 782 497 793 l 407 840 z "},"ȇ":{"ha":746,"x_min":50,"x_max":700,"o":"m 436 693 q 601 669 543 693 q 680 596 660 644 q 688 476 700 547 q 647 372 676 411 q 564 314 617 333 q 431 288 511 294 l 101 257 l 114 346 l 429 376 q 503 391 475 381 q 548 424 532 401 q 571 486 564 447 q 564 560 579 538 q 513 589 549 583 q 421 594 476 594 q 326 585 365 594 q 261 549 288 575 q 218 476 235 524 q 189 353 201 429 q 188 182 172 240 q 247 103 203 124 q 361 83 290 83 q 442 85 399 83 q 529 92 486 88 q 610 100 572 96 l 618 21 q 533 -1 583 7 q 433 -13 483 -10 q 342 -17 382 -17 q 159 23 225 -17 q 72 145 93 63 q 67 354 50 228 q 107 520 81 454 q 176 624 133 586 q 283 677 219 661 q 436 693 347 693 m 293 786 l 232 800 q 267 894 238 854 q 345 958 296 935 q 458 981 394 981 q 574 957 528 981 q 640 892 621 933 q 649 796 660 850 l 588 792 q 560 867 594 840 q 460 893 525 893 q 343 865 388 893 q 293 786 299 836 z "},"ē":{"ha":746,"x_min":50,"x_max":700,"o":"m 436 693 q 601 669 543 693 q 680 596 660 644 q 688 476 700 547 q 647 372 676 411 q 564 314 617 333 q 431 288 511 294 l 101 257 l 114 346 l 429 376 q 503 391 475 381 q 548 424 532 401 q 571 486 564 447 q 564 560 579 538 q 513 589 549 583 q 421 594 476 594 q 326 585 365 594 q 261 549 288 575 q 218 476 235 524 q 189 353 201 429 q 188 182 172 240 q 247 103 203 124 q 361 83 290 83 q 442 85 399 83 q 529 92 486 88 q 610 100 572 96 l 618 21 q 533 -1 583 7 q 433 -13 483 -10 q 342 -17 382 -17 q 159 23 225 -17 q 72 145 93 63 q 67 354 50 228 q 107 520 81 454 q 176 624 133 586 q 283 677 219 661 q 436 693 347 693 m 657 929 l 646 842 l 258 842 l 269 929 l 657 929 z "},"ḗ":{"ha":746,"x_min":50,"x_max":700,"o":"m 436 693 q 601 669 543 693 q 680 596 660 644 q 688 476 700 547 q 647 372 676 411 q 564 314 617 333 q 431 288 511 294 l 101 257 l 114 346 l 429 376 q 503 391 475 381 q 548 424 532 401 q 571 486 564 447 q 564 560 579 538 q 513 589 549 583 q 421 594 476 594 q 326 585 365 594 q 261 549 288 575 q 218 476 235 524 q 189 353 201 429 q 188 182 172 240 q 247 103 203 124 q 361 83 290 83 q 442 85 399 83 q 529 92 486 88 q 610 100 572 96 l 618 21 q 533 -1 583 7 q 433 -13 483 -10 q 342 -17 382 -17 q 159 23 225 -17 q 72 145 93 63 q 67 354 50 228 q 107 520 81 454 q 176 624 133 586 q 283 677 219 661 q 436 693 347 693 m 650 888 l 638 800 l 250 800 l 263 888 l 650 888 m 540 1140 l 603 1064 l 406 928 l 365 974 l 540 1140 z "},"ḕ":{"ha":746,"x_min":50,"x_max":700,"o":"m 436 693 q 601 669 543 693 q 680 596 660 644 q 688 476 700 547 q 647 372 676 411 q 564 314 617 333 q 431 288 511 294 l 101 257 l 114 346 l 429 376 q 503 391 475 381 q 548 424 532 401 q 571 486 564 447 q 564 560 579 538 q 513 589 549 583 q 421 594 476 594 q 326 585 365 594 q 261 549 288 575 q 218 476 235 524 q 189 353 201 429 q 188 182 172 240 q 247 103 203 124 q 361 83 290 83 q 442 85 399 83 q 529 92 486 88 q 610 100 572 96 l 618 21 q 533 -1 583 7 q 433 -13 483 -10 q 342 -17 382 -17 q 159 23 225 -17 q 72 145 93 63 q 67 354 50 228 q 107 520 81 454 q 176 624 133 586 q 283 677 219 661 q 436 693 347 693 m 650 888 l 638 800 l 250 800 l 263 888 l 650 888 m 374 1131 l 521 971 l 476 928 l 307 1061 l 374 1131 z "},"ę":{"ha":746,"x_min":50,"x_max":700,"o":"m 436 693 q 601 669 543 693 q 680 596 660 644 q 688 476 700 547 q 647 372 676 411 q 564 314 617 333 q 431 288 511 294 l 101 257 l 114 346 l 429 376 q 503 391 475 381 q 548 424 532 401 q 571 486 564 447 q 564 560 579 538 q 513 589 549 583 q 421 594 476 594 q 326 585 365 594 q 261 549 288 575 q 218 476 235 524 q 189 353 201 429 q 188 182 172 240 q 247 103 203 124 q 361 83 290 83 q 442 85 399 83 q 529 92 486 88 q 610 100 572 96 l 618 21 q 533 -1 583 7 q 433 -13 483 -10 q 342 -17 382 -17 q 159 23 225 -17 q 72 145 93 63 q 67 354 50 228 q 107 520 81 454 q 176 624 133 586 q 283 677 219 661 q 436 693 347 693 m 558 26 l 614 22 q 549 -53 579 -14 q 492 -140 519 -92 q 490 -204 464 -190 q 585 -196 517 -218 l 600 -247 q 484 -274 531 -274 q 414 -256 438 -275 q 388 -205 390 -236 q 404 -136 386 -174 q 458 -62 422 -103 q 558 26 494 -21 z "},"ẽ":{"ha":746,"x_min":50,"x_max":700,"o":"m 436 693 q 601 669 543 693 q 680 596 660 644 q 688 476 700 547 q 647 372 676 411 q 564 314 617 333 q 431 288 511 294 l 101 257 l 114 346 l 429 376 q 503 391 475 381 q 548 424 532 401 q 571 486 564 447 q 564 560 579 538 q 513 589 549 583 q 421 594 476 594 q 326 585 365 594 q 261 549 288 575 q 218 476 235 524 q 189 353 201 429 q 188 182 172 240 q 247 103 203 124 q 361 83 290 83 q 442 85 399 83 q 529 92 486 88 q 610 100 572 96 l 618 21 q 533 -1 583 7 q 433 -13 483 -10 q 342 -17 382 -17 q 159 23 225 -17 q 72 145 93 63 q 67 354 50 228 q 107 520 81 454 q 176 624 133 586 q 283 677 219 661 q 436 693 347 693 m 353 972 q 410 959 386 969 q 456 935 435 949 q 498 910 476 921 q 547 896 519 899 q 608 910 589 890 q 632 968 626 929 l 688 964 q 651 845 686 885 q 564 810 615 806 q 501 824 528 813 q 453 849 475 835 q 410 874 431 863 q 367 889 390 886 q 308 873 326 893 q 283 811 289 853 l 228 817 q 267 938 231 900 q 353 972 304 976 z "},"ə":{"ha":746,"x_min":47,"x_max":697,"o":"m 310 -17 q 145 8 204 -17 q 67 82 86 33 q 58 200 47 131 q 99 305 69 265 q 183 364 129 344 q 315 389 236 383 l 644 419 l 632 332 l 317 301 q 243 288 272 299 q 198 253 214 276 q 175 190 182 231 q 182 117 167 139 q 233 89 197 94 q 325 83 269 83 q 419 92 381 83 q 485 127 458 101 q 528 200 511 153 q 557 324 544 247 q 559 495 574 438 q 500 574 544 553 q 385 594 456 594 q 304 592 347 594 q 217 585 261 589 q 136 576 174 582 l 128 657 q 213 678 164 671 q 314 690 263 686 q 404 693 365 693 q 587 653 521 693 q 675 532 653 614 q 679 322 697 450 q 639 156 665 222 q 569 53 613 90 q 463 -1 526 15 q 310 -17 399 -17 z "},"f":{"ha":524,"x_min":-167,"x_max":625,"o":"m 433 996 q 492 995 457 996 q 563 992 526 994 q 625 986 599 990 l 607 899 l 471 899 q 373 875 404 899 q 331 782 342 851 l 208 -83 q 144 -228 196 -176 q -6 -279 92 -279 q -77 -277 -36 -279 q -167 -269 -118 -275 l -149 -181 l -43 -181 q 53 -158 22 -181 q 93 -65 83 -135 l 214 800 q 281 945 228 894 q 433 996 335 996 m 532 676 l 518 583 l 63 583 l 74 669 l 203 676 l 532 676 z "},"g":{"ha":799,"x_min":21,"x_max":731,"o":"m 611 661 l 731 661 l 636 13 q 601 -111 628 -56 q 528 -207 575 -167 q 413 -269 482 -247 q 251 -293 344 -290 q 192 -292 233 -293 q 105 -286 151 -292 q 21 -271 58 -281 l 33 -192 q 93 -194 63 -193 q 163 -194 124 -194 q 253 -193 201 -194 q 425 -150 351 -190 q 517 -11 499 -110 q 538 82 528 38 q 572 164 549 126 l 540 178 l 611 661 m 397 693 q 508 689 450 693 q 624 678 567 685 q 728 661 681 671 l 675 588 q 538 592 599 590 q 442 594 478 594 q 331 585 374 594 q 261 550 288 576 q 219 472 235 524 q 192 336 204 421 q 178 182 176 236 q 203 107 181 128 q 272 86 226 86 q 372 108 322 86 q 473 171 421 129 q 583 274 525 213 l 608 219 q 518 103 574 157 q 393 17 463 50 q 244 -17 324 -17 q 126 16 172 -17 q 66 128 81 49 q 72 346 51 207 q 117 530 89 461 q 185 634 144 599 q 278 681 225 669 q 397 693 331 693 z "},"ğ":{"ha":799,"x_min":21,"x_max":731,"o":"m 611 661 l 731 661 l 636 13 q 601 -111 628 -56 q 528 -207 575 -167 q 413 -269 482 -247 q 251 -293 344 -290 q 192 -292 233 -293 q 105 -286 151 -292 q 21 -271 58 -281 l 33 -192 q 93 -194 63 -193 q 163 -194 124 -194 q 253 -193 201 -194 q 425 -150 351 -190 q 517 -11 499 -110 q 538 82 528 38 q 572 164 549 126 l 540 178 l 611 661 m 397 693 q 508 689 450 693 q 624 678 567 685 q 728 661 681 671 l 675 588 q 538 592 599 590 q 442 594 478 594 q 331 585 374 594 q 261 550 288 576 q 219 472 235 524 q 192 336 204 421 q 178 182 176 236 q 203 107 181 128 q 272 86 226 86 q 372 108 322 86 q 473 171 421 129 q 583 274 525 213 l 608 219 q 518 103 574 157 q 393 17 463 50 q 244 -17 324 -17 q 126 16 172 -17 q 66 128 81 49 q 72 346 51 207 q 117 530 89 461 q 185 634 144 599 q 278 681 225 669 q 397 693 331 693 m 639 981 l 699 967 q 665 872 694 913 q 587 809 636 832 q 472 786 538 786 q 358 810 404 786 q 292 876 311 833 q 283 971 272 918 l 344 976 q 372 900 338 926 q 472 874 407 874 q 589 903 544 874 q 639 981 633 932 z "},"ǧ":{"ha":799,"x_min":21,"x_max":731,"o":"m 611 661 l 731 661 l 636 13 q 601 -111 628 -56 q 528 -207 575 -167 q 413 -269 482 -247 q 251 -293 344 -290 q 192 -292 233 -293 q 105 -286 151 -292 q 21 -271 58 -281 l 33 -192 q 93 -194 63 -193 q 163 -194 124 -194 q 253 -193 201 -194 q 425 -150 351 -190 q 517 -11 499 -110 q 538 82 528 38 q 572 164 549 126 l 540 178 l 611 661 m 397 693 q 508 689 450 693 q 624 678 567 685 q 728 661 681 671 l 675 588 q 538 592 599 590 q 442 594 478 594 q 331 585 374 594 q 261 550 288 576 q 219 472 235 524 q 192 336 204 421 q 178 182 176 236 q 203 107 181 128 q 272 86 226 86 q 372 108 322 86 q 473 171 421 129 q 583 274 525 213 l 608 219 q 518 103 574 157 q 393 17 463 50 q 244 -17 324 -17 q 126 16 172 -17 q 66 128 81 49 q 72 346 51 207 q 117 530 89 461 q 185 634 144 599 q 278 681 225 669 q 397 693 331 693 m 682 1010 l 719 960 l 511 782 l 425 782 l 263 967 l 311 1010 l 468 872 l 479 872 l 682 1010 z "},"ĝ":{"ha":799,"x_min":21,"x_max":731,"o":"m 611 661 l 731 661 l 636 13 q 601 -111 628 -56 q 528 -207 575 -167 q 413 -269 482 -247 q 251 -293 344 -290 q 192 -292 233 -293 q 105 -286 151 -292 q 21 -271 58 -281 l 33 -192 q 93 -194 63 -193 q 163 -194 124 -194 q 253 -193 201 -194 q 425 -150 351 -190 q 517 -11 499 -110 q 538 82 528 38 q 572 164 549 126 l 540 178 l 611 661 m 397 693 q 508 689 450 693 q 624 678 567 685 q 728 661 681 671 l 675 588 q 538 592 599 590 q 442 594 478 594 q 331 585 374 594 q 261 550 288 576 q 219 472 235 524 q 192 336 204 421 q 178 182 176 236 q 203 107 181 128 q 272 86 226 86 q 372 108 322 86 q 473 171 421 129 q 583 274 525 213 l 608 219 q 518 103 574 157 q 393 17 463 50 q 244 -17 324 -17 q 126 16 172 -17 q 66 128 81 49 q 72 346 51 207 q 117 530 89 461 q 185 634 144 599 q 278 681 225 669 q 397 693 331 693 m 533 994 l 706 810 l 661 764 l 496 904 l 485 904 l 278 765 l 243 818 l 450 994 l 533 994 z "},"ģ":{"ha":799,"x_min":21,"x_max":731,"o":"m 433 775 q 404 784 413 775 q 400 814 396 793 l 411 890 q 426 951 415 919 q 451 1015 436 983 q 482 1074 465 1046 l 535 1056 q 512 988 522 1019 q 493 913 501 956 q 519 906 511 915 q 526 881 528 896 l 517 811 q 502 783 511 790 q 467 775 493 775 l 433 775 m 611 661 l 731 661 l 636 13 q 601 -111 628 -56 q 528 -207 575 -167 q 413 -269 482 -247 q 251 -293 344 -290 q 192 -292 233 -293 q 105 -286 151 -292 q 21 -271 58 -281 l 33 -192 q 93 -194 63 -193 q 163 -194 124 -194 q 253 -193 201 -194 q 425 -150 351 -190 q 517 -11 499 -110 q 538 82 528 38 q 572 164 549 126 l 540 178 l 611 661 m 397 693 q 508 689 450 693 q 624 678 567 685 q 728 661 681 671 l 675 588 q 538 592 599 590 q 442 594 478 594 q 331 585 374 594 q 261 550 288 576 q 219 472 235 524 q 192 336 204 421 q 178 182 176 236 q 203 107 181 128 q 272 86 226 86 q 372 108 322 86 q 473 171 421 129 q 583 274 525 213 l 608 219 q 518 103 574 157 q 393 17 463 50 q 244 -17 324 -17 q 126 16 172 -17 q 66 128 81 49 q 72 346 51 207 q 117 530 89 461 q 185 634 144 599 q 278 681 225 669 q 397 693 331 693 z "},"ġ":{"ha":799,"x_min":21,"x_max":731,"o":"m 611 661 l 731 661 l 636 13 q 601 -111 628 -56 q 528 -207 575 -167 q 413 -269 482 -247 q 251 -293 344 -290 q 192 -292 233 -293 q 105 -286 151 -292 q 21 -271 58 -281 l 33 -192 q 93 -194 63 -193 q 163 -194 124 -194 q 253 -193 201 -194 q 425 -150 351 -190 q 517 -11 499 -110 q 538 82 528 38 q 572 164 549 126 l 540 178 l 611 661 m 397 693 q 508 689 450 693 q 624 678 567 685 q 728 661 681 671 l 675 588 q 538 592 599 590 q 442 594 478 594 q 331 585 374 594 q 261 550 288 576 q 219 472 235 524 q 192 336 204 421 q 178 182 176 236 q 203 107 181 128 q 272 86 226 86 q 372 108 322 86 q 473 171 421 129 q 583 274 525 213 l 608 219 q 518 103 574 157 q 393 17 463 50 q 244 -17 324 -17 q 126 16 172 -17 q 66 128 81 49 q 72 346 51 207 q 117 530 89 461 q 185 634 144 599 q 278 681 225 669 q 397 693 331 693 m 506 954 q 532 944 522 954 q 539 917 542 935 l 528 839 q 490 804 524 804 l 453 804 q 426 815 435 804 q 419 842 417 825 l 429 921 q 440 947 432 939 q 467 954 449 954 l 506 954 z "},"ḡ":{"ha":799,"x_min":21,"x_max":731,"o":"m 611 661 l 731 661 l 636 13 q 601 -111 628 -56 q 528 -207 575 -167 q 413 -269 482 -247 q 251 -293 344 -290 q 192 -292 233 -293 q 105 -286 151 -292 q 21 -271 58 -281 l 33 -192 q 93 -194 63 -193 q 163 -194 124 -194 q 253 -193 201 -194 q 425 -150 351 -190 q 517 -11 499 -110 q 538 82 528 38 q 572 164 549 126 l 540 178 l 611 661 m 397 693 q 508 689 450 693 q 624 678 567 685 q 728 661 681 671 l 675 588 q 538 592 599 590 q 442 594 478 594 q 331 585 374 594 q 261 550 288 576 q 219 472 235 524 q 192 336 204 421 q 178 182 176 236 q 203 107 181 128 q 272 86 226 86 q 372 108 322 86 q 473 171 421 129 q 583 274 525 213 l 608 219 q 518 103 574 157 q 393 17 463 50 q 244 -17 324 -17 q 126 16 172 -17 q 66 128 81 49 q 72 346 51 207 q 117 530 89 461 q 185 634 144 599 q 278 681 225 669 q 397 693 331 693 m 679 929 l 667 842 l 279 842 l 292 929 l 679 929 z "},"h":{"ha":803,"x_min":49,"x_max":728,"o":"m 556 693 q 684 646 640 693 q 715 506 728 599 l 643 0 l 525 0 l 593 476 q 585 568 601 543 q 519 593 568 593 q 383 551 453 593 q 218 432 314 508 l 219 519 q 397 649 315 606 q 556 693 478 693 m 304 972 l 267 700 q 248 588 260 644 q 225 500 236 532 l 233 481 l 167 0 l 49 0 l 186 972 l 304 972 z "}}}
